%TF.GenerationSoftware,KiCad,Pcbnew,9.0.1*%
%TF.CreationDate,2025-04-29T02:16:07+02:00*%
%TF.ProjectId,phil-lab-11,7068696c-2d6c-4616-922d-31312e6b6963,rev?*%
%TF.SameCoordinates,Original*%
%TF.FileFunction,Legend,Top*%
%TF.FilePolarity,Positive*%
%FSLAX46Y46*%
G04 Gerber Fmt 4.6, Leading zero omitted, Abs format (unit mm)*
G04 Created by KiCad (PCBNEW 9.0.1) date 2025-04-29 02:16:07*
%MOMM*%
%LPD*%
G01*
G04 APERTURE LIST*
%ADD10C,0.100000*%
%ADD11C,0.150000*%
%ADD12C,0.120000*%
G04 APERTURE END LIST*
D10*
X70704761Y-40064895D02*
X70704761Y-40636323D01*
X70704761Y-40636323D02*
X70666666Y-40750609D01*
X70666666Y-40750609D02*
X70590475Y-40826800D01*
X70590475Y-40826800D02*
X70476190Y-40864895D01*
X70476190Y-40864895D02*
X70399999Y-40864895D01*
X71466666Y-40864895D02*
X71085714Y-40864895D01*
X71085714Y-40864895D02*
X71085714Y-40064895D01*
X72190476Y-40788704D02*
X72152380Y-40826800D01*
X72152380Y-40826800D02*
X72038095Y-40864895D01*
X72038095Y-40864895D02*
X71961904Y-40864895D01*
X71961904Y-40864895D02*
X71847618Y-40826800D01*
X71847618Y-40826800D02*
X71771428Y-40750609D01*
X71771428Y-40750609D02*
X71733333Y-40674419D01*
X71733333Y-40674419D02*
X71695237Y-40522038D01*
X71695237Y-40522038D02*
X71695237Y-40407752D01*
X71695237Y-40407752D02*
X71733333Y-40255371D01*
X71733333Y-40255371D02*
X71771428Y-40179180D01*
X71771428Y-40179180D02*
X71847618Y-40102990D01*
X71847618Y-40102990D02*
X71961904Y-40064895D01*
X71961904Y-40064895D02*
X72038095Y-40064895D01*
X72038095Y-40064895D02*
X72152380Y-40102990D01*
X72152380Y-40102990D02*
X72190476Y-40141085D01*
X72761904Y-40064895D02*
X72761904Y-40636323D01*
X72761904Y-40636323D02*
X72723809Y-40750609D01*
X72723809Y-40750609D02*
X72647618Y-40826800D01*
X72647618Y-40826800D02*
X72533333Y-40864895D01*
X72533333Y-40864895D02*
X72457142Y-40864895D01*
X73523809Y-40864895D02*
X73142857Y-40864895D01*
X73142857Y-40864895D02*
X73142857Y-40064895D01*
X74247619Y-40788704D02*
X74209523Y-40826800D01*
X74209523Y-40826800D02*
X74095238Y-40864895D01*
X74095238Y-40864895D02*
X74019047Y-40864895D01*
X74019047Y-40864895D02*
X73904761Y-40826800D01*
X73904761Y-40826800D02*
X73828571Y-40750609D01*
X73828571Y-40750609D02*
X73790476Y-40674419D01*
X73790476Y-40674419D02*
X73752380Y-40522038D01*
X73752380Y-40522038D02*
X73752380Y-40407752D01*
X73752380Y-40407752D02*
X73790476Y-40255371D01*
X73790476Y-40255371D02*
X73828571Y-40179180D01*
X73828571Y-40179180D02*
X73904761Y-40102990D01*
X73904761Y-40102990D02*
X74019047Y-40064895D01*
X74019047Y-40064895D02*
X74095238Y-40064895D01*
X74095238Y-40064895D02*
X74209523Y-40102990D01*
X74209523Y-40102990D02*
X74247619Y-40141085D01*
X74819047Y-40064895D02*
X74819047Y-40636323D01*
X74819047Y-40636323D02*
X74780952Y-40750609D01*
X74780952Y-40750609D02*
X74704761Y-40826800D01*
X74704761Y-40826800D02*
X74590476Y-40864895D01*
X74590476Y-40864895D02*
X74514285Y-40864895D01*
X75580952Y-40864895D02*
X75200000Y-40864895D01*
X75200000Y-40864895D02*
X75200000Y-40064895D01*
X76304762Y-40788704D02*
X76266666Y-40826800D01*
X76266666Y-40826800D02*
X76152381Y-40864895D01*
X76152381Y-40864895D02*
X76076190Y-40864895D01*
X76076190Y-40864895D02*
X75961904Y-40826800D01*
X75961904Y-40826800D02*
X75885714Y-40750609D01*
X75885714Y-40750609D02*
X75847619Y-40674419D01*
X75847619Y-40674419D02*
X75809523Y-40522038D01*
X75809523Y-40522038D02*
X75809523Y-40407752D01*
X75809523Y-40407752D02*
X75847619Y-40255371D01*
X75847619Y-40255371D02*
X75885714Y-40179180D01*
X75885714Y-40179180D02*
X75961904Y-40102990D01*
X75961904Y-40102990D02*
X76076190Y-40064895D01*
X76076190Y-40064895D02*
X76152381Y-40064895D01*
X76152381Y-40064895D02*
X76266666Y-40102990D01*
X76266666Y-40102990D02*
X76304762Y-40141085D01*
X76876190Y-40064895D02*
X76876190Y-40636323D01*
X76876190Y-40636323D02*
X76838095Y-40750609D01*
X76838095Y-40750609D02*
X76761904Y-40826800D01*
X76761904Y-40826800D02*
X76647619Y-40864895D01*
X76647619Y-40864895D02*
X76571428Y-40864895D01*
X77638095Y-40864895D02*
X77257143Y-40864895D01*
X77257143Y-40864895D02*
X77257143Y-40064895D01*
X78361905Y-40788704D02*
X78323809Y-40826800D01*
X78323809Y-40826800D02*
X78209524Y-40864895D01*
X78209524Y-40864895D02*
X78133333Y-40864895D01*
X78133333Y-40864895D02*
X78019047Y-40826800D01*
X78019047Y-40826800D02*
X77942857Y-40750609D01*
X77942857Y-40750609D02*
X77904762Y-40674419D01*
X77904762Y-40674419D02*
X77866666Y-40522038D01*
X77866666Y-40522038D02*
X77866666Y-40407752D01*
X77866666Y-40407752D02*
X77904762Y-40255371D01*
X77904762Y-40255371D02*
X77942857Y-40179180D01*
X77942857Y-40179180D02*
X78019047Y-40102990D01*
X78019047Y-40102990D02*
X78133333Y-40064895D01*
X78133333Y-40064895D02*
X78209524Y-40064895D01*
X78209524Y-40064895D02*
X78323809Y-40102990D01*
X78323809Y-40102990D02*
X78361905Y-40141085D01*
X29356265Y-51792133D02*
X29965789Y-51792133D01*
X29661027Y-52096895D02*
X29661027Y-51487371D01*
X40956265Y-30792133D02*
X41565789Y-30792133D01*
X41261027Y-31096895D02*
X41261027Y-30487371D01*
X39656265Y-50392133D02*
X40265789Y-50392133D01*
X39961027Y-50696895D02*
X39961027Y-50087371D01*
X100806265Y-47092133D02*
X101415789Y-47092133D01*
X101111027Y-47396895D02*
X101111027Y-46787371D01*
X74561803Y-26550000D02*
G75*
G02*
X74338197Y-26550000I-111803J0D01*
G01*
X74338197Y-26550000D02*
G75*
G02*
X74561803Y-26550000I111803J0D01*
G01*
X35191421Y-48450000D02*
G75*
G02*
X34908579Y-48450000I-141421J0D01*
G01*
X34908579Y-48450000D02*
G75*
G02*
X35191421Y-48450000I141421J0D01*
G01*
X35080278Y-31200000D02*
G75*
G02*
X34719722Y-31200000I-180278J0D01*
G01*
X34719722Y-31200000D02*
G75*
G02*
X35080278Y-31200000I180278J0D01*
G01*
X70080278Y-47200000D02*
G75*
G02*
X69719722Y-47200000I-180278J0D01*
G01*
X69719722Y-47200000D02*
G75*
G02*
X70080278Y-47200000I180278J0D01*
G01*
X47000000Y-44000000D02*
X47000000Y-45100000D01*
X47000000Y-45500000D02*
X47000000Y-46600000D01*
X47000000Y-47000000D02*
X47000000Y-48100000D01*
X47000000Y-48500000D02*
X47000000Y-49600000D01*
X47000000Y-50000000D02*
X47000000Y-51100000D01*
X47000000Y-51500000D02*
X47000000Y-52600000D01*
X47000000Y-53000000D02*
X47000000Y-54100000D01*
X47000000Y-54500000D02*
X47000000Y-55600000D01*
X47000000Y-56000000D02*
X47000000Y-57100000D01*
X47000000Y-57500000D02*
X47000000Y-58600000D01*
X47000000Y-59000000D02*
X47000000Y-60100000D01*
X47000000Y-60500000D02*
X47000000Y-61600000D01*
X47000000Y-62000000D02*
X47000000Y-63100000D01*
X47000000Y-63500000D02*
X47000000Y-64600000D01*
X47000000Y-65000000D02*
X47000000Y-66000000D01*
X45000000Y-44000000D02*
X46100000Y-44000000D01*
X46500000Y-44000000D02*
X47000000Y-44000000D01*
X45000000Y-20000000D02*
X45000000Y-21100000D01*
X45000000Y-21500000D02*
X45000000Y-22600000D01*
X45000000Y-23000000D02*
X45000000Y-24100000D01*
X45000000Y-24500000D02*
X45000000Y-25600000D01*
X45000000Y-26000000D02*
X45000000Y-27100000D01*
X45000000Y-27500000D02*
X45000000Y-28600000D01*
X45000000Y-29000000D02*
X45000000Y-30100000D01*
X45000000Y-30500000D02*
X45000000Y-31600000D01*
X45000000Y-32000000D02*
X45000000Y-33100000D01*
X45000000Y-33500000D02*
X45000000Y-34600000D01*
X45000000Y-35000000D02*
X45000000Y-36100000D01*
X45000000Y-36500000D02*
X45000000Y-37600000D01*
X45000000Y-38000000D02*
X45000000Y-39100000D01*
X45000000Y-39500000D02*
X45000000Y-40600000D01*
X45000000Y-41000000D02*
X45000000Y-42100000D01*
X45000000Y-42500000D02*
X45000000Y-43600000D01*
X45000000Y-44000000D02*
X45000000Y-44000000D01*
X99223809Y-49464856D02*
X99366666Y-49512475D01*
X99366666Y-49512475D02*
X99604761Y-49512475D01*
X99604761Y-49512475D02*
X99699999Y-49464856D01*
X99699999Y-49464856D02*
X99747618Y-49417236D01*
X99747618Y-49417236D02*
X99795237Y-49321998D01*
X99795237Y-49321998D02*
X99795237Y-49226760D01*
X99795237Y-49226760D02*
X99747618Y-49131522D01*
X99747618Y-49131522D02*
X99699999Y-49083903D01*
X99699999Y-49083903D02*
X99604761Y-49036284D01*
X99604761Y-49036284D02*
X99414285Y-48988665D01*
X99414285Y-48988665D02*
X99319047Y-48941046D01*
X99319047Y-48941046D02*
X99271428Y-48893427D01*
X99271428Y-48893427D02*
X99223809Y-48798189D01*
X99223809Y-48798189D02*
X99223809Y-48702951D01*
X99223809Y-48702951D02*
X99271428Y-48607713D01*
X99271428Y-48607713D02*
X99319047Y-48560094D01*
X99319047Y-48560094D02*
X99414285Y-48512475D01*
X99414285Y-48512475D02*
X99652380Y-48512475D01*
X99652380Y-48512475D02*
X99795237Y-48560094D01*
X100080952Y-48512475D02*
X100652380Y-48512475D01*
X100366666Y-49512475D02*
X100366666Y-48512475D01*
X100938095Y-49226760D02*
X101414285Y-49226760D01*
X100842857Y-49512475D02*
X101176190Y-48512475D01*
X101176190Y-48512475D02*
X101509523Y-49512475D01*
X101700000Y-48512475D02*
X102271428Y-48512475D01*
X101985714Y-49512475D02*
X101985714Y-48512475D01*
X102604762Y-48512475D02*
X102604762Y-49321998D01*
X102604762Y-49321998D02*
X102652381Y-49417236D01*
X102652381Y-49417236D02*
X102700000Y-49464856D01*
X102700000Y-49464856D02*
X102795238Y-49512475D01*
X102795238Y-49512475D02*
X102985714Y-49512475D01*
X102985714Y-49512475D02*
X103080952Y-49464856D01*
X103080952Y-49464856D02*
X103128571Y-49417236D01*
X103128571Y-49417236D02*
X103176190Y-49321998D01*
X103176190Y-49321998D02*
X103176190Y-48512475D01*
X103604762Y-49464856D02*
X103747619Y-49512475D01*
X103747619Y-49512475D02*
X103985714Y-49512475D01*
X103985714Y-49512475D02*
X104080952Y-49464856D01*
X104080952Y-49464856D02*
X104128571Y-49417236D01*
X104128571Y-49417236D02*
X104176190Y-49321998D01*
X104176190Y-49321998D02*
X104176190Y-49226760D01*
X104176190Y-49226760D02*
X104128571Y-49131522D01*
X104128571Y-49131522D02*
X104080952Y-49083903D01*
X104080952Y-49083903D02*
X103985714Y-49036284D01*
X103985714Y-49036284D02*
X103795238Y-48988665D01*
X103795238Y-48988665D02*
X103700000Y-48941046D01*
X103700000Y-48941046D02*
X103652381Y-48893427D01*
X103652381Y-48893427D02*
X103604762Y-48798189D01*
X103604762Y-48798189D02*
X103604762Y-48702951D01*
X103604762Y-48702951D02*
X103652381Y-48607713D01*
X103652381Y-48607713D02*
X103700000Y-48560094D01*
X103700000Y-48560094D02*
X103795238Y-48512475D01*
X103795238Y-48512475D02*
X104033333Y-48512475D01*
X104033333Y-48512475D02*
X104176190Y-48560094D01*
X99342857Y-51122419D02*
X99342857Y-50122419D01*
X99342857Y-50122419D02*
X99723809Y-50122419D01*
X99723809Y-50122419D02*
X99819047Y-50170038D01*
X99819047Y-50170038D02*
X99866666Y-50217657D01*
X99866666Y-50217657D02*
X99914285Y-50312895D01*
X99914285Y-50312895D02*
X99914285Y-50455752D01*
X99914285Y-50455752D02*
X99866666Y-50550990D01*
X99866666Y-50550990D02*
X99819047Y-50598609D01*
X99819047Y-50598609D02*
X99723809Y-50646228D01*
X99723809Y-50646228D02*
X99342857Y-50646228D01*
X100342857Y-51122419D02*
X100342857Y-50122419D01*
X100819047Y-51122419D02*
X100819047Y-50122419D01*
X100819047Y-50122419D02*
X101390475Y-51122419D01*
X101390475Y-51122419D02*
X101390475Y-50122419D01*
X103152380Y-51122419D02*
X102580952Y-51122419D01*
X102866666Y-51122419D02*
X102866666Y-50122419D01*
X102866666Y-50122419D02*
X102771428Y-50265276D01*
X102771428Y-50265276D02*
X102676190Y-50360514D01*
X102676190Y-50360514D02*
X102580952Y-50408133D01*
X104009523Y-50122419D02*
X103819047Y-50122419D01*
X103819047Y-50122419D02*
X103723809Y-50170038D01*
X103723809Y-50170038D02*
X103676190Y-50217657D01*
X103676190Y-50217657D02*
X103580952Y-50360514D01*
X103580952Y-50360514D02*
X103533333Y-50550990D01*
X103533333Y-50550990D02*
X103533333Y-50931942D01*
X103533333Y-50931942D02*
X103580952Y-51027180D01*
X103580952Y-51027180D02*
X103628571Y-51074800D01*
X103628571Y-51074800D02*
X103723809Y-51122419D01*
X103723809Y-51122419D02*
X103914285Y-51122419D01*
X103914285Y-51122419D02*
X104009523Y-51074800D01*
X104009523Y-51074800D02*
X104057142Y-51027180D01*
X104057142Y-51027180D02*
X104104761Y-50931942D01*
X104104761Y-50931942D02*
X104104761Y-50693847D01*
X104104761Y-50693847D02*
X104057142Y-50598609D01*
X104057142Y-50598609D02*
X104009523Y-50550990D01*
X104009523Y-50550990D02*
X103914285Y-50503371D01*
X103914285Y-50503371D02*
X103723809Y-50503371D01*
X103723809Y-50503371D02*
X103628571Y-50550990D01*
X103628571Y-50550990D02*
X103580952Y-50598609D01*
X103580952Y-50598609D02*
X103533333Y-50693847D01*
X41803884Y-45572419D02*
X41803884Y-44572419D01*
X41803884Y-44572419D02*
X42184836Y-44572419D01*
X42184836Y-44572419D02*
X42280074Y-44620038D01*
X42280074Y-44620038D02*
X42327693Y-44667657D01*
X42327693Y-44667657D02*
X42375312Y-44762895D01*
X42375312Y-44762895D02*
X42375312Y-44905752D01*
X42375312Y-44905752D02*
X42327693Y-45000990D01*
X42327693Y-45000990D02*
X42280074Y-45048609D01*
X42280074Y-45048609D02*
X42184836Y-45096228D01*
X42184836Y-45096228D02*
X41803884Y-45096228D01*
X42708646Y-44572419D02*
X42946741Y-45572419D01*
X42946741Y-45572419D02*
X43137217Y-44858133D01*
X43137217Y-44858133D02*
X43327693Y-45572419D01*
X43327693Y-45572419D02*
X43565789Y-44572419D01*
X44518169Y-45572419D02*
X44184836Y-45096228D01*
X43946741Y-45572419D02*
X43946741Y-44572419D01*
X43946741Y-44572419D02*
X44327693Y-44572419D01*
X44327693Y-44572419D02*
X44422931Y-44620038D01*
X44422931Y-44620038D02*
X44470550Y-44667657D01*
X44470550Y-44667657D02*
X44518169Y-44762895D01*
X44518169Y-44762895D02*
X44518169Y-44905752D01*
X44518169Y-44905752D02*
X44470550Y-45000990D01*
X44470550Y-45000990D02*
X44422931Y-45048609D01*
X44422931Y-45048609D02*
X44327693Y-45096228D01*
X44327693Y-45096228D02*
X43946741Y-45096228D01*
X50925312Y-19677080D02*
X50849122Y-19638985D01*
X50849122Y-19638985D02*
X50734836Y-19638985D01*
X50734836Y-19638985D02*
X50620550Y-19677080D01*
X50620550Y-19677080D02*
X50544360Y-19753270D01*
X50544360Y-19753270D02*
X50506265Y-19829461D01*
X50506265Y-19829461D02*
X50468169Y-19981842D01*
X50468169Y-19981842D02*
X50468169Y-20096128D01*
X50468169Y-20096128D02*
X50506265Y-20248509D01*
X50506265Y-20248509D02*
X50544360Y-20324699D01*
X50544360Y-20324699D02*
X50620550Y-20400890D01*
X50620550Y-20400890D02*
X50734836Y-20438985D01*
X50734836Y-20438985D02*
X50811027Y-20438985D01*
X50811027Y-20438985D02*
X50925312Y-20400890D01*
X50925312Y-20400890D02*
X50963408Y-20362794D01*
X50963408Y-20362794D02*
X50963408Y-20096128D01*
X50963408Y-20096128D02*
X50811027Y-20096128D01*
X51306265Y-20438985D02*
X51306265Y-19638985D01*
X51306265Y-19638985D02*
X51763408Y-20438985D01*
X51763408Y-20438985D02*
X51763408Y-19638985D01*
X52144360Y-20438985D02*
X52144360Y-19638985D01*
X52144360Y-19638985D02*
X52334836Y-19638985D01*
X52334836Y-19638985D02*
X52449122Y-19677080D01*
X52449122Y-19677080D02*
X52525312Y-19753270D01*
X52525312Y-19753270D02*
X52563407Y-19829461D01*
X52563407Y-19829461D02*
X52601503Y-19981842D01*
X52601503Y-19981842D02*
X52601503Y-20096128D01*
X52601503Y-20096128D02*
X52563407Y-20248509D01*
X52563407Y-20248509D02*
X52525312Y-20324699D01*
X52525312Y-20324699D02*
X52449122Y-20400890D01*
X52449122Y-20400890D02*
X52334836Y-20438985D01*
X52334836Y-20438985D02*
X52144360Y-20438985D01*
X53515788Y-20438985D02*
X53515788Y-19638985D01*
X53515788Y-19638985D02*
X53972931Y-20438985D01*
X53972931Y-20438985D02*
X53972931Y-19638985D01*
X54811026Y-20438985D02*
X54544359Y-20058032D01*
X54353883Y-20438985D02*
X54353883Y-19638985D01*
X54353883Y-19638985D02*
X54658645Y-19638985D01*
X54658645Y-19638985D02*
X54734835Y-19677080D01*
X54734835Y-19677080D02*
X54772930Y-19715175D01*
X54772930Y-19715175D02*
X54811026Y-19791366D01*
X54811026Y-19791366D02*
X54811026Y-19905651D01*
X54811026Y-19905651D02*
X54772930Y-19981842D01*
X54772930Y-19981842D02*
X54734835Y-20019937D01*
X54734835Y-20019937D02*
X54658645Y-20058032D01*
X54658645Y-20058032D02*
X54353883Y-20058032D01*
X55115787Y-20400890D02*
X55230073Y-20438985D01*
X55230073Y-20438985D02*
X55420549Y-20438985D01*
X55420549Y-20438985D02*
X55496740Y-20400890D01*
X55496740Y-20400890D02*
X55534835Y-20362794D01*
X55534835Y-20362794D02*
X55572930Y-20286604D01*
X55572930Y-20286604D02*
X55572930Y-20210413D01*
X55572930Y-20210413D02*
X55534835Y-20134223D01*
X55534835Y-20134223D02*
X55496740Y-20096128D01*
X55496740Y-20096128D02*
X55420549Y-20058032D01*
X55420549Y-20058032D02*
X55268168Y-20019937D01*
X55268168Y-20019937D02*
X55191978Y-19981842D01*
X55191978Y-19981842D02*
X55153883Y-19943747D01*
X55153883Y-19943747D02*
X55115787Y-19867556D01*
X55115787Y-19867556D02*
X55115787Y-19791366D01*
X55115787Y-19791366D02*
X55153883Y-19715175D01*
X55153883Y-19715175D02*
X55191978Y-19677080D01*
X55191978Y-19677080D02*
X55268168Y-19638985D01*
X55268168Y-19638985D02*
X55458645Y-19638985D01*
X55458645Y-19638985D02*
X55572930Y-19677080D01*
X55801502Y-19638985D02*
X56258645Y-19638985D01*
X56030073Y-20438985D02*
X56030073Y-19638985D01*
X50506265Y-21422178D02*
X51115789Y-21422178D01*
X53515788Y-21422178D02*
X54125312Y-21422178D01*
X50925312Y-22252990D02*
X50849122Y-22214895D01*
X50849122Y-22214895D02*
X50734836Y-22214895D01*
X50734836Y-22214895D02*
X50620550Y-22252990D01*
X50620550Y-22252990D02*
X50544360Y-22329180D01*
X50544360Y-22329180D02*
X50506265Y-22405371D01*
X50506265Y-22405371D02*
X50468169Y-22557752D01*
X50468169Y-22557752D02*
X50468169Y-22672038D01*
X50468169Y-22672038D02*
X50506265Y-22824419D01*
X50506265Y-22824419D02*
X50544360Y-22900609D01*
X50544360Y-22900609D02*
X50620550Y-22976800D01*
X50620550Y-22976800D02*
X50734836Y-23014895D01*
X50734836Y-23014895D02*
X50811027Y-23014895D01*
X50811027Y-23014895D02*
X50925312Y-22976800D01*
X50925312Y-22976800D02*
X50963408Y-22938704D01*
X50963408Y-22938704D02*
X50963408Y-22672038D01*
X50963408Y-22672038D02*
X50811027Y-22672038D01*
X51306265Y-23014895D02*
X51306265Y-22214895D01*
X51306265Y-22214895D02*
X51763408Y-23014895D01*
X51763408Y-23014895D02*
X51763408Y-22214895D01*
X52144360Y-23014895D02*
X52144360Y-22214895D01*
X52144360Y-22214895D02*
X52334836Y-22214895D01*
X52334836Y-22214895D02*
X52449122Y-22252990D01*
X52449122Y-22252990D02*
X52525312Y-22329180D01*
X52525312Y-22329180D02*
X52563407Y-22405371D01*
X52563407Y-22405371D02*
X52601503Y-22557752D01*
X52601503Y-22557752D02*
X52601503Y-22672038D01*
X52601503Y-22672038D02*
X52563407Y-22824419D01*
X52563407Y-22824419D02*
X52525312Y-22900609D01*
X52525312Y-22900609D02*
X52449122Y-22976800D01*
X52449122Y-22976800D02*
X52334836Y-23014895D01*
X52334836Y-23014895D02*
X52144360Y-23014895D01*
X53477692Y-22976800D02*
X53591978Y-23014895D01*
X53591978Y-23014895D02*
X53782454Y-23014895D01*
X53782454Y-23014895D02*
X53858645Y-22976800D01*
X53858645Y-22976800D02*
X53896740Y-22938704D01*
X53896740Y-22938704D02*
X53934835Y-22862514D01*
X53934835Y-22862514D02*
X53934835Y-22786323D01*
X53934835Y-22786323D02*
X53896740Y-22710133D01*
X53896740Y-22710133D02*
X53858645Y-22672038D01*
X53858645Y-22672038D02*
X53782454Y-22633942D01*
X53782454Y-22633942D02*
X53630073Y-22595847D01*
X53630073Y-22595847D02*
X53553883Y-22557752D01*
X53553883Y-22557752D02*
X53515788Y-22519657D01*
X53515788Y-22519657D02*
X53477692Y-22443466D01*
X53477692Y-22443466D02*
X53477692Y-22367276D01*
X53477692Y-22367276D02*
X53515788Y-22291085D01*
X53515788Y-22291085D02*
X53553883Y-22252990D01*
X53553883Y-22252990D02*
X53630073Y-22214895D01*
X53630073Y-22214895D02*
X53820550Y-22214895D01*
X53820550Y-22214895D02*
X53934835Y-22252990D01*
X54201502Y-22214895D02*
X54391978Y-23014895D01*
X54391978Y-23014895D02*
X54544359Y-22443466D01*
X54544359Y-22443466D02*
X54696740Y-23014895D01*
X54696740Y-23014895D02*
X54887217Y-22214895D01*
X55344360Y-22214895D02*
X55496741Y-22214895D01*
X55496741Y-22214895D02*
X55572931Y-22252990D01*
X55572931Y-22252990D02*
X55649122Y-22329180D01*
X55649122Y-22329180D02*
X55687217Y-22481561D01*
X55687217Y-22481561D02*
X55687217Y-22748228D01*
X55687217Y-22748228D02*
X55649122Y-22900609D01*
X55649122Y-22900609D02*
X55572931Y-22976800D01*
X55572931Y-22976800D02*
X55496741Y-23014895D01*
X55496741Y-23014895D02*
X55344360Y-23014895D01*
X55344360Y-23014895D02*
X55268169Y-22976800D01*
X55268169Y-22976800D02*
X55191979Y-22900609D01*
X55191979Y-22900609D02*
X55153883Y-22748228D01*
X55153883Y-22748228D02*
X55153883Y-22481561D01*
X55153883Y-22481561D02*
X55191979Y-22329180D01*
X55191979Y-22329180D02*
X55268169Y-22252990D01*
X55268169Y-22252990D02*
X55344360Y-22214895D01*
X50925312Y-23540945D02*
X50849122Y-23502850D01*
X50849122Y-23502850D02*
X50734836Y-23502850D01*
X50734836Y-23502850D02*
X50620550Y-23540945D01*
X50620550Y-23540945D02*
X50544360Y-23617135D01*
X50544360Y-23617135D02*
X50506265Y-23693326D01*
X50506265Y-23693326D02*
X50468169Y-23845707D01*
X50468169Y-23845707D02*
X50468169Y-23959993D01*
X50468169Y-23959993D02*
X50506265Y-24112374D01*
X50506265Y-24112374D02*
X50544360Y-24188564D01*
X50544360Y-24188564D02*
X50620550Y-24264755D01*
X50620550Y-24264755D02*
X50734836Y-24302850D01*
X50734836Y-24302850D02*
X50811027Y-24302850D01*
X50811027Y-24302850D02*
X50925312Y-24264755D01*
X50925312Y-24264755D02*
X50963408Y-24226659D01*
X50963408Y-24226659D02*
X50963408Y-23959993D01*
X50963408Y-23959993D02*
X50811027Y-23959993D01*
X51306265Y-24302850D02*
X51306265Y-23502850D01*
X51306265Y-23502850D02*
X51763408Y-24302850D01*
X51763408Y-24302850D02*
X51763408Y-23502850D01*
X52144360Y-24302850D02*
X52144360Y-23502850D01*
X52144360Y-23502850D02*
X52334836Y-23502850D01*
X52334836Y-23502850D02*
X52449122Y-23540945D01*
X52449122Y-23540945D02*
X52525312Y-23617135D01*
X52525312Y-23617135D02*
X52563407Y-23693326D01*
X52563407Y-23693326D02*
X52601503Y-23845707D01*
X52601503Y-23845707D02*
X52601503Y-23959993D01*
X52601503Y-23959993D02*
X52563407Y-24112374D01*
X52563407Y-24112374D02*
X52525312Y-24188564D01*
X52525312Y-24188564D02*
X52449122Y-24264755D01*
X52449122Y-24264755D02*
X52334836Y-24302850D01*
X52334836Y-24302850D02*
X52144360Y-24302850D01*
X53477692Y-24264755D02*
X53591978Y-24302850D01*
X53591978Y-24302850D02*
X53782454Y-24302850D01*
X53782454Y-24302850D02*
X53858645Y-24264755D01*
X53858645Y-24264755D02*
X53896740Y-24226659D01*
X53896740Y-24226659D02*
X53934835Y-24150469D01*
X53934835Y-24150469D02*
X53934835Y-24074278D01*
X53934835Y-24074278D02*
X53896740Y-23998088D01*
X53896740Y-23998088D02*
X53858645Y-23959993D01*
X53858645Y-23959993D02*
X53782454Y-23921897D01*
X53782454Y-23921897D02*
X53630073Y-23883802D01*
X53630073Y-23883802D02*
X53553883Y-23845707D01*
X53553883Y-23845707D02*
X53515788Y-23807612D01*
X53515788Y-23807612D02*
X53477692Y-23731421D01*
X53477692Y-23731421D02*
X53477692Y-23655231D01*
X53477692Y-23655231D02*
X53515788Y-23579040D01*
X53515788Y-23579040D02*
X53553883Y-23540945D01*
X53553883Y-23540945D02*
X53630073Y-23502850D01*
X53630073Y-23502850D02*
X53820550Y-23502850D01*
X53820550Y-23502850D02*
X53934835Y-23540945D01*
X54201502Y-23502850D02*
X54391978Y-24302850D01*
X54391978Y-24302850D02*
X54544359Y-23731421D01*
X54544359Y-23731421D02*
X54696740Y-24302850D01*
X54696740Y-24302850D02*
X54887217Y-23502850D01*
X55649122Y-24226659D02*
X55611026Y-24264755D01*
X55611026Y-24264755D02*
X55496741Y-24302850D01*
X55496741Y-24302850D02*
X55420550Y-24302850D01*
X55420550Y-24302850D02*
X55306264Y-24264755D01*
X55306264Y-24264755D02*
X55230074Y-24188564D01*
X55230074Y-24188564D02*
X55191979Y-24112374D01*
X55191979Y-24112374D02*
X55153883Y-23959993D01*
X55153883Y-23959993D02*
X55153883Y-23845707D01*
X55153883Y-23845707D02*
X55191979Y-23693326D01*
X55191979Y-23693326D02*
X55230074Y-23617135D01*
X55230074Y-23617135D02*
X55306264Y-23540945D01*
X55306264Y-23540945D02*
X55420550Y-23502850D01*
X55420550Y-23502850D02*
X55496741Y-23502850D01*
X55496741Y-23502850D02*
X55611026Y-23540945D01*
X55611026Y-23540945D02*
X55649122Y-23579040D01*
X56372931Y-24302850D02*
X55991979Y-24302850D01*
X55991979Y-24302850D02*
X55991979Y-23502850D01*
X56639598Y-24302850D02*
X56639598Y-23502850D01*
X57096741Y-24302850D02*
X56753883Y-23845707D01*
X57096741Y-23502850D02*
X56639598Y-23959993D01*
X50430074Y-24790805D02*
X50925312Y-24790805D01*
X50925312Y-24790805D02*
X50658646Y-25095567D01*
X50658646Y-25095567D02*
X50772931Y-25095567D01*
X50772931Y-25095567D02*
X50849122Y-25133662D01*
X50849122Y-25133662D02*
X50887217Y-25171757D01*
X50887217Y-25171757D02*
X50925312Y-25247948D01*
X50925312Y-25247948D02*
X50925312Y-25438424D01*
X50925312Y-25438424D02*
X50887217Y-25514614D01*
X50887217Y-25514614D02*
X50849122Y-25552710D01*
X50849122Y-25552710D02*
X50772931Y-25590805D01*
X50772931Y-25590805D02*
X50544360Y-25590805D01*
X50544360Y-25590805D02*
X50468169Y-25552710D01*
X50468169Y-25552710D02*
X50430074Y-25514614D01*
X51268170Y-25514614D02*
X51306265Y-25552710D01*
X51306265Y-25552710D02*
X51268170Y-25590805D01*
X51268170Y-25590805D02*
X51230074Y-25552710D01*
X51230074Y-25552710D02*
X51268170Y-25514614D01*
X51268170Y-25514614D02*
X51268170Y-25590805D01*
X51572931Y-24790805D02*
X52068169Y-24790805D01*
X52068169Y-24790805D02*
X51801503Y-25095567D01*
X51801503Y-25095567D02*
X51915788Y-25095567D01*
X51915788Y-25095567D02*
X51991979Y-25133662D01*
X51991979Y-25133662D02*
X52030074Y-25171757D01*
X52030074Y-25171757D02*
X52068169Y-25247948D01*
X52068169Y-25247948D02*
X52068169Y-25438424D01*
X52068169Y-25438424D02*
X52030074Y-25514614D01*
X52030074Y-25514614D02*
X51991979Y-25552710D01*
X51991979Y-25552710D02*
X51915788Y-25590805D01*
X51915788Y-25590805D02*
X51687217Y-25590805D01*
X51687217Y-25590805D02*
X51611026Y-25552710D01*
X51611026Y-25552710D02*
X51572931Y-25514614D01*
X53477692Y-25552710D02*
X53591978Y-25590805D01*
X53591978Y-25590805D02*
X53782454Y-25590805D01*
X53782454Y-25590805D02*
X53858645Y-25552710D01*
X53858645Y-25552710D02*
X53896740Y-25514614D01*
X53896740Y-25514614D02*
X53934835Y-25438424D01*
X53934835Y-25438424D02*
X53934835Y-25362233D01*
X53934835Y-25362233D02*
X53896740Y-25286043D01*
X53896740Y-25286043D02*
X53858645Y-25247948D01*
X53858645Y-25247948D02*
X53782454Y-25209852D01*
X53782454Y-25209852D02*
X53630073Y-25171757D01*
X53630073Y-25171757D02*
X53553883Y-25133662D01*
X53553883Y-25133662D02*
X53515788Y-25095567D01*
X53515788Y-25095567D02*
X53477692Y-25019376D01*
X53477692Y-25019376D02*
X53477692Y-24943186D01*
X53477692Y-24943186D02*
X53515788Y-24866995D01*
X53515788Y-24866995D02*
X53553883Y-24828900D01*
X53553883Y-24828900D02*
X53630073Y-24790805D01*
X53630073Y-24790805D02*
X53820550Y-24790805D01*
X53820550Y-24790805D02*
X53934835Y-24828900D01*
X54201502Y-24790805D02*
X54391978Y-25590805D01*
X54391978Y-25590805D02*
X54544359Y-25019376D01*
X54544359Y-25019376D02*
X54696740Y-25590805D01*
X54696740Y-25590805D02*
X54887217Y-24790805D01*
X55191979Y-25590805D02*
X55191979Y-24790805D01*
X55191979Y-24790805D02*
X55382455Y-24790805D01*
X55382455Y-24790805D02*
X55496741Y-24828900D01*
X55496741Y-24828900D02*
X55572931Y-24905090D01*
X55572931Y-24905090D02*
X55611026Y-24981281D01*
X55611026Y-24981281D02*
X55649122Y-25133662D01*
X55649122Y-25133662D02*
X55649122Y-25247948D01*
X55649122Y-25247948D02*
X55611026Y-25400329D01*
X55611026Y-25400329D02*
X55572931Y-25476519D01*
X55572931Y-25476519D02*
X55496741Y-25552710D01*
X55496741Y-25552710D02*
X55382455Y-25590805D01*
X55382455Y-25590805D02*
X55191979Y-25590805D01*
X55991979Y-25590805D02*
X55991979Y-24790805D01*
X56525312Y-24790805D02*
X56677693Y-24790805D01*
X56677693Y-24790805D02*
X56753883Y-24828900D01*
X56753883Y-24828900D02*
X56830074Y-24905090D01*
X56830074Y-24905090D02*
X56868169Y-25057471D01*
X56868169Y-25057471D02*
X56868169Y-25324138D01*
X56868169Y-25324138D02*
X56830074Y-25476519D01*
X56830074Y-25476519D02*
X56753883Y-25552710D01*
X56753883Y-25552710D02*
X56677693Y-25590805D01*
X56677693Y-25590805D02*
X56525312Y-25590805D01*
X56525312Y-25590805D02*
X56449121Y-25552710D01*
X56449121Y-25552710D02*
X56372931Y-25476519D01*
X56372931Y-25476519D02*
X56334835Y-25324138D01*
X56334835Y-25324138D02*
X56334835Y-25057471D01*
X56334835Y-25057471D02*
X56372931Y-24905090D01*
X56372931Y-24905090D02*
X56449121Y-24828900D01*
X56449121Y-24828900D02*
X56525312Y-24790805D01*
X93887217Y-20348609D02*
X93553884Y-20348609D01*
X93553884Y-20872419D02*
X93553884Y-19872419D01*
X93553884Y-19872419D02*
X94030074Y-19872419D01*
X94553884Y-20872419D02*
X94458646Y-20824800D01*
X94458646Y-20824800D02*
X94411027Y-20729561D01*
X94411027Y-20729561D02*
X94411027Y-19872419D01*
X95363408Y-20872419D02*
X95363408Y-20348609D01*
X95363408Y-20348609D02*
X95315789Y-20253371D01*
X95315789Y-20253371D02*
X95220551Y-20205752D01*
X95220551Y-20205752D02*
X95030075Y-20205752D01*
X95030075Y-20205752D02*
X94934837Y-20253371D01*
X95363408Y-20824800D02*
X95268170Y-20872419D01*
X95268170Y-20872419D02*
X95030075Y-20872419D01*
X95030075Y-20872419D02*
X94934837Y-20824800D01*
X94934837Y-20824800D02*
X94887218Y-20729561D01*
X94887218Y-20729561D02*
X94887218Y-20634323D01*
X94887218Y-20634323D02*
X94934837Y-20539085D01*
X94934837Y-20539085D02*
X95030075Y-20491466D01*
X95030075Y-20491466D02*
X95268170Y-20491466D01*
X95268170Y-20491466D02*
X95363408Y-20443847D01*
X95791980Y-20824800D02*
X95887218Y-20872419D01*
X95887218Y-20872419D02*
X96077694Y-20872419D01*
X96077694Y-20872419D02*
X96172932Y-20824800D01*
X96172932Y-20824800D02*
X96220551Y-20729561D01*
X96220551Y-20729561D02*
X96220551Y-20681942D01*
X96220551Y-20681942D02*
X96172932Y-20586704D01*
X96172932Y-20586704D02*
X96077694Y-20539085D01*
X96077694Y-20539085D02*
X95934837Y-20539085D01*
X95934837Y-20539085D02*
X95839599Y-20491466D01*
X95839599Y-20491466D02*
X95791980Y-20396228D01*
X95791980Y-20396228D02*
X95791980Y-20348609D01*
X95791980Y-20348609D02*
X95839599Y-20253371D01*
X95839599Y-20253371D02*
X95934837Y-20205752D01*
X95934837Y-20205752D02*
X96077694Y-20205752D01*
X96077694Y-20205752D02*
X96172932Y-20253371D01*
X96649123Y-20872419D02*
X96649123Y-19872419D01*
X97077694Y-20872419D02*
X97077694Y-20348609D01*
X97077694Y-20348609D02*
X97030075Y-20253371D01*
X97030075Y-20253371D02*
X96934837Y-20205752D01*
X96934837Y-20205752D02*
X96791980Y-20205752D01*
X96791980Y-20205752D02*
X96696742Y-20253371D01*
X96696742Y-20253371D02*
X96649123Y-20300990D01*
X82684210Y-20892419D02*
X82350877Y-20416228D01*
X82112782Y-20892419D02*
X82112782Y-19892419D01*
X82112782Y-19892419D02*
X82493734Y-19892419D01*
X82493734Y-19892419D02*
X82588972Y-19940038D01*
X82588972Y-19940038D02*
X82636591Y-19987657D01*
X82636591Y-19987657D02*
X82684210Y-20082895D01*
X82684210Y-20082895D02*
X82684210Y-20225752D01*
X82684210Y-20225752D02*
X82636591Y-20320990D01*
X82636591Y-20320990D02*
X82588972Y-20368609D01*
X82588972Y-20368609D02*
X82493734Y-20416228D01*
X82493734Y-20416228D02*
X82112782Y-20416228D01*
X83541353Y-20225752D02*
X83541353Y-20892419D01*
X83112782Y-20225752D02*
X83112782Y-20749561D01*
X83112782Y-20749561D02*
X83160401Y-20844800D01*
X83160401Y-20844800D02*
X83255639Y-20892419D01*
X83255639Y-20892419D02*
X83398496Y-20892419D01*
X83398496Y-20892419D02*
X83493734Y-20844800D01*
X83493734Y-20844800D02*
X83541353Y-20797180D01*
X84017544Y-20225752D02*
X84017544Y-20892419D01*
X84017544Y-20320990D02*
X84065163Y-20273371D01*
X84065163Y-20273371D02*
X84160401Y-20225752D01*
X84160401Y-20225752D02*
X84303258Y-20225752D01*
X84303258Y-20225752D02*
X84398496Y-20273371D01*
X84398496Y-20273371D02*
X84446115Y-20368609D01*
X84446115Y-20368609D02*
X84446115Y-20892419D01*
X87827067Y-26878637D02*
X87969924Y-26926256D01*
X87969924Y-26926256D02*
X88017543Y-26973875D01*
X88017543Y-26973875D02*
X88065162Y-27069113D01*
X88065162Y-27069113D02*
X88065162Y-27211970D01*
X88065162Y-27211970D02*
X88017543Y-27307208D01*
X88017543Y-27307208D02*
X87969924Y-27354828D01*
X87969924Y-27354828D02*
X87874686Y-27402447D01*
X87874686Y-27402447D02*
X87493734Y-27402447D01*
X87493734Y-27402447D02*
X87493734Y-26402447D01*
X87493734Y-26402447D02*
X87827067Y-26402447D01*
X87827067Y-26402447D02*
X87922305Y-26450066D01*
X87922305Y-26450066D02*
X87969924Y-26497685D01*
X87969924Y-26497685D02*
X88017543Y-26592923D01*
X88017543Y-26592923D02*
X88017543Y-26688161D01*
X88017543Y-26688161D02*
X87969924Y-26783399D01*
X87969924Y-26783399D02*
X87922305Y-26831018D01*
X87922305Y-26831018D02*
X87827067Y-26878637D01*
X87827067Y-26878637D02*
X87493734Y-26878637D01*
X88636591Y-27402447D02*
X88541353Y-27354828D01*
X88541353Y-27354828D02*
X88493734Y-27307208D01*
X88493734Y-27307208D02*
X88446115Y-27211970D01*
X88446115Y-27211970D02*
X88446115Y-26926256D01*
X88446115Y-26926256D02*
X88493734Y-26831018D01*
X88493734Y-26831018D02*
X88541353Y-26783399D01*
X88541353Y-26783399D02*
X88636591Y-26735780D01*
X88636591Y-26735780D02*
X88779448Y-26735780D01*
X88779448Y-26735780D02*
X88874686Y-26783399D01*
X88874686Y-26783399D02*
X88922305Y-26831018D01*
X88922305Y-26831018D02*
X88969924Y-26926256D01*
X88969924Y-26926256D02*
X88969924Y-27211970D01*
X88969924Y-27211970D02*
X88922305Y-27307208D01*
X88922305Y-27307208D02*
X88874686Y-27354828D01*
X88874686Y-27354828D02*
X88779448Y-27402447D01*
X88779448Y-27402447D02*
X88636591Y-27402447D01*
X89541353Y-27402447D02*
X89446115Y-27354828D01*
X89446115Y-27354828D02*
X89398496Y-27307208D01*
X89398496Y-27307208D02*
X89350877Y-27211970D01*
X89350877Y-27211970D02*
X89350877Y-26926256D01*
X89350877Y-26926256D02*
X89398496Y-26831018D01*
X89398496Y-26831018D02*
X89446115Y-26783399D01*
X89446115Y-26783399D02*
X89541353Y-26735780D01*
X89541353Y-26735780D02*
X89684210Y-26735780D01*
X89684210Y-26735780D02*
X89779448Y-26783399D01*
X89779448Y-26783399D02*
X89827067Y-26831018D01*
X89827067Y-26831018D02*
X89874686Y-26926256D01*
X89874686Y-26926256D02*
X89874686Y-27211970D01*
X89874686Y-27211970D02*
X89827067Y-27307208D01*
X89827067Y-27307208D02*
X89779448Y-27354828D01*
X89779448Y-27354828D02*
X89684210Y-27402447D01*
X89684210Y-27402447D02*
X89541353Y-27402447D01*
X90160401Y-26735780D02*
X90541353Y-26735780D01*
X90303258Y-26402447D02*
X90303258Y-27259589D01*
X90303258Y-27259589D02*
X90350877Y-27354828D01*
X90350877Y-27354828D02*
X90446115Y-27402447D01*
X90446115Y-27402447D02*
X90541353Y-27402447D01*
X90874687Y-27021494D02*
X91636592Y-27021494D01*
X92112782Y-27402447D02*
X92112782Y-26402447D01*
X92112782Y-26402447D02*
X92446115Y-27116732D01*
X92446115Y-27116732D02*
X92779448Y-26402447D01*
X92779448Y-26402447D02*
X92779448Y-27402447D01*
X93398496Y-27402447D02*
X93303258Y-27354828D01*
X93303258Y-27354828D02*
X93255639Y-27307208D01*
X93255639Y-27307208D02*
X93208020Y-27211970D01*
X93208020Y-27211970D02*
X93208020Y-26926256D01*
X93208020Y-26926256D02*
X93255639Y-26831018D01*
X93255639Y-26831018D02*
X93303258Y-26783399D01*
X93303258Y-26783399D02*
X93398496Y-26735780D01*
X93398496Y-26735780D02*
X93541353Y-26735780D01*
X93541353Y-26735780D02*
X93636591Y-26783399D01*
X93636591Y-26783399D02*
X93684210Y-26831018D01*
X93684210Y-26831018D02*
X93731829Y-26926256D01*
X93731829Y-26926256D02*
X93731829Y-27211970D01*
X93731829Y-27211970D02*
X93684210Y-27307208D01*
X93684210Y-27307208D02*
X93636591Y-27354828D01*
X93636591Y-27354828D02*
X93541353Y-27402447D01*
X93541353Y-27402447D02*
X93398496Y-27402447D01*
X94588972Y-27402447D02*
X94588972Y-26402447D01*
X94588972Y-27354828D02*
X94493734Y-27402447D01*
X94493734Y-27402447D02*
X94303258Y-27402447D01*
X94303258Y-27402447D02*
X94208020Y-27354828D01*
X94208020Y-27354828D02*
X94160401Y-27307208D01*
X94160401Y-27307208D02*
X94112782Y-27211970D01*
X94112782Y-27211970D02*
X94112782Y-26926256D01*
X94112782Y-26926256D02*
X94160401Y-26831018D01*
X94160401Y-26831018D02*
X94208020Y-26783399D01*
X94208020Y-26783399D02*
X94303258Y-26735780D01*
X94303258Y-26735780D02*
X94493734Y-26735780D01*
X94493734Y-26735780D02*
X94588972Y-26783399D01*
X95446115Y-27354828D02*
X95350877Y-27402447D01*
X95350877Y-27402447D02*
X95160401Y-27402447D01*
X95160401Y-27402447D02*
X95065163Y-27354828D01*
X95065163Y-27354828D02*
X95017544Y-27259589D01*
X95017544Y-27259589D02*
X95017544Y-26878637D01*
X95017544Y-26878637D02*
X95065163Y-26783399D01*
X95065163Y-26783399D02*
X95160401Y-26735780D01*
X95160401Y-26735780D02*
X95350877Y-26735780D01*
X95350877Y-26735780D02*
X95446115Y-26783399D01*
X95446115Y-26783399D02*
X95493734Y-26878637D01*
X95493734Y-26878637D02*
X95493734Y-26973875D01*
X95493734Y-26973875D02*
X95017544Y-27069113D01*
X89731828Y-28964772D02*
X89874685Y-29012391D01*
X89874685Y-29012391D02*
X90112780Y-29012391D01*
X90112780Y-29012391D02*
X90208018Y-28964772D01*
X90208018Y-28964772D02*
X90255637Y-28917152D01*
X90255637Y-28917152D02*
X90303256Y-28821914D01*
X90303256Y-28821914D02*
X90303256Y-28726676D01*
X90303256Y-28726676D02*
X90255637Y-28631438D01*
X90255637Y-28631438D02*
X90208018Y-28583819D01*
X90208018Y-28583819D02*
X90112780Y-28536200D01*
X90112780Y-28536200D02*
X89922304Y-28488581D01*
X89922304Y-28488581D02*
X89827066Y-28440962D01*
X89827066Y-28440962D02*
X89779447Y-28393343D01*
X89779447Y-28393343D02*
X89731828Y-28298105D01*
X89731828Y-28298105D02*
X89731828Y-28202867D01*
X89731828Y-28202867D02*
X89779447Y-28107629D01*
X89779447Y-28107629D02*
X89827066Y-28060010D01*
X89827066Y-28060010D02*
X89922304Y-28012391D01*
X89922304Y-28012391D02*
X90160399Y-28012391D01*
X90160399Y-28012391D02*
X90303256Y-28060010D01*
X91112780Y-28964772D02*
X91017542Y-29012391D01*
X91017542Y-29012391D02*
X90827066Y-29012391D01*
X90827066Y-29012391D02*
X90731828Y-28964772D01*
X90731828Y-28964772D02*
X90684209Y-28869533D01*
X90684209Y-28869533D02*
X90684209Y-28488581D01*
X90684209Y-28488581D02*
X90731828Y-28393343D01*
X90731828Y-28393343D02*
X90827066Y-28345724D01*
X90827066Y-28345724D02*
X91017542Y-28345724D01*
X91017542Y-28345724D02*
X91112780Y-28393343D01*
X91112780Y-28393343D02*
X91160399Y-28488581D01*
X91160399Y-28488581D02*
X91160399Y-28583819D01*
X91160399Y-28583819D02*
X90684209Y-28679057D01*
X91731828Y-29012391D02*
X91636590Y-28964772D01*
X91636590Y-28964772D02*
X91588971Y-28869533D01*
X91588971Y-28869533D02*
X91588971Y-28012391D01*
X92493733Y-28964772D02*
X92398495Y-29012391D01*
X92398495Y-29012391D02*
X92208019Y-29012391D01*
X92208019Y-29012391D02*
X92112781Y-28964772D01*
X92112781Y-28964772D02*
X92065162Y-28869533D01*
X92065162Y-28869533D02*
X92065162Y-28488581D01*
X92065162Y-28488581D02*
X92112781Y-28393343D01*
X92112781Y-28393343D02*
X92208019Y-28345724D01*
X92208019Y-28345724D02*
X92398495Y-28345724D01*
X92398495Y-28345724D02*
X92493733Y-28393343D01*
X92493733Y-28393343D02*
X92541352Y-28488581D01*
X92541352Y-28488581D02*
X92541352Y-28583819D01*
X92541352Y-28583819D02*
X92065162Y-28679057D01*
X93398495Y-28964772D02*
X93303257Y-29012391D01*
X93303257Y-29012391D02*
X93112781Y-29012391D01*
X93112781Y-29012391D02*
X93017543Y-28964772D01*
X93017543Y-28964772D02*
X92969924Y-28917152D01*
X92969924Y-28917152D02*
X92922305Y-28821914D01*
X92922305Y-28821914D02*
X92922305Y-28536200D01*
X92922305Y-28536200D02*
X92969924Y-28440962D01*
X92969924Y-28440962D02*
X93017543Y-28393343D01*
X93017543Y-28393343D02*
X93112781Y-28345724D01*
X93112781Y-28345724D02*
X93303257Y-28345724D01*
X93303257Y-28345724D02*
X93398495Y-28393343D01*
X93684210Y-28345724D02*
X94065162Y-28345724D01*
X93827067Y-28012391D02*
X93827067Y-28869533D01*
X93827067Y-28869533D02*
X93874686Y-28964772D01*
X93874686Y-28964772D02*
X93969924Y-29012391D01*
X93969924Y-29012391D02*
X94065162Y-29012391D01*
X94541353Y-29012391D02*
X94446115Y-28964772D01*
X94446115Y-28964772D02*
X94398496Y-28917152D01*
X94398496Y-28917152D02*
X94350877Y-28821914D01*
X94350877Y-28821914D02*
X94350877Y-28536200D01*
X94350877Y-28536200D02*
X94398496Y-28440962D01*
X94398496Y-28440962D02*
X94446115Y-28393343D01*
X94446115Y-28393343D02*
X94541353Y-28345724D01*
X94541353Y-28345724D02*
X94684210Y-28345724D01*
X94684210Y-28345724D02*
X94779448Y-28393343D01*
X94779448Y-28393343D02*
X94827067Y-28440962D01*
X94827067Y-28440962D02*
X94874686Y-28536200D01*
X94874686Y-28536200D02*
X94874686Y-28821914D01*
X94874686Y-28821914D02*
X94827067Y-28917152D01*
X94827067Y-28917152D02*
X94779448Y-28964772D01*
X94779448Y-28964772D02*
X94684210Y-29012391D01*
X94684210Y-29012391D02*
X94541353Y-29012391D01*
X95303258Y-29012391D02*
X95303258Y-28345724D01*
X95303258Y-28536200D02*
X95350877Y-28440962D01*
X95350877Y-28440962D02*
X95398496Y-28393343D01*
X95398496Y-28393343D02*
X95493734Y-28345724D01*
X95493734Y-28345724D02*
X95588972Y-28345724D01*
X41922931Y-20339800D02*
X43065789Y-20339800D01*
X42494360Y-20911228D02*
X42494360Y-19768371D01*
X42577693Y-22872419D02*
X42006265Y-22872419D01*
X42291979Y-22872419D02*
X42291979Y-21872419D01*
X42291979Y-21872419D02*
X42196741Y-22015276D01*
X42196741Y-22015276D02*
X42101503Y-22110514D01*
X42101503Y-22110514D02*
X42006265Y-22158133D01*
X42958646Y-21967657D02*
X43006265Y-21920038D01*
X43006265Y-21920038D02*
X43101503Y-21872419D01*
X43101503Y-21872419D02*
X43339598Y-21872419D01*
X43339598Y-21872419D02*
X43434836Y-21920038D01*
X43434836Y-21920038D02*
X43482455Y-21967657D01*
X43482455Y-21967657D02*
X43530074Y-22062895D01*
X43530074Y-22062895D02*
X43530074Y-22158133D01*
X43530074Y-22158133D02*
X43482455Y-22300990D01*
X43482455Y-22300990D02*
X42911027Y-22872419D01*
X42911027Y-22872419D02*
X43530074Y-22872419D01*
X43815789Y-21872419D02*
X44149122Y-22872419D01*
X44149122Y-22872419D02*
X44482455Y-21872419D01*
X48214285Y-59542503D02*
X48214285Y-58542503D01*
X48214285Y-59018693D02*
X48785713Y-59018693D01*
X48785713Y-59542503D02*
X48785713Y-58542503D01*
X49642856Y-59494884D02*
X49547618Y-59542503D01*
X49547618Y-59542503D02*
X49357142Y-59542503D01*
X49357142Y-59542503D02*
X49261904Y-59494884D01*
X49261904Y-59494884D02*
X49214285Y-59399645D01*
X49214285Y-59399645D02*
X49214285Y-59018693D01*
X49214285Y-59018693D02*
X49261904Y-58923455D01*
X49261904Y-58923455D02*
X49357142Y-58875836D01*
X49357142Y-58875836D02*
X49547618Y-58875836D01*
X49547618Y-58875836D02*
X49642856Y-58923455D01*
X49642856Y-58923455D02*
X49690475Y-59018693D01*
X49690475Y-59018693D02*
X49690475Y-59113931D01*
X49690475Y-59113931D02*
X49214285Y-59209169D01*
X50261904Y-59542503D02*
X50166666Y-59494884D01*
X50166666Y-59494884D02*
X50119047Y-59399645D01*
X50119047Y-59399645D02*
X50119047Y-58542503D01*
X50785714Y-59542503D02*
X50690476Y-59494884D01*
X50690476Y-59494884D02*
X50642857Y-59399645D01*
X50642857Y-59399645D02*
X50642857Y-58542503D01*
X51309524Y-59542503D02*
X51214286Y-59494884D01*
X51214286Y-59494884D02*
X51166667Y-59447264D01*
X51166667Y-59447264D02*
X51119048Y-59352026D01*
X51119048Y-59352026D02*
X51119048Y-59066312D01*
X51119048Y-59066312D02*
X51166667Y-58971074D01*
X51166667Y-58971074D02*
X51214286Y-58923455D01*
X51214286Y-58923455D02*
X51309524Y-58875836D01*
X51309524Y-58875836D02*
X51452381Y-58875836D01*
X51452381Y-58875836D02*
X51547619Y-58923455D01*
X51547619Y-58923455D02*
X51595238Y-58971074D01*
X51595238Y-58971074D02*
X51642857Y-59066312D01*
X51642857Y-59066312D02*
X51642857Y-59352026D01*
X51642857Y-59352026D02*
X51595238Y-59447264D01*
X51595238Y-59447264D02*
X51547619Y-59494884D01*
X51547619Y-59494884D02*
X51452381Y-59542503D01*
X51452381Y-59542503D02*
X51309524Y-59542503D01*
X52785715Y-59494884D02*
X52928572Y-59542503D01*
X52928572Y-59542503D02*
X53166667Y-59542503D01*
X53166667Y-59542503D02*
X53261905Y-59494884D01*
X53261905Y-59494884D02*
X53309524Y-59447264D01*
X53309524Y-59447264D02*
X53357143Y-59352026D01*
X53357143Y-59352026D02*
X53357143Y-59256788D01*
X53357143Y-59256788D02*
X53309524Y-59161550D01*
X53309524Y-59161550D02*
X53261905Y-59113931D01*
X53261905Y-59113931D02*
X53166667Y-59066312D01*
X53166667Y-59066312D02*
X52976191Y-59018693D01*
X52976191Y-59018693D02*
X52880953Y-58971074D01*
X52880953Y-58971074D02*
X52833334Y-58923455D01*
X52833334Y-58923455D02*
X52785715Y-58828217D01*
X52785715Y-58828217D02*
X52785715Y-58732979D01*
X52785715Y-58732979D02*
X52833334Y-58637741D01*
X52833334Y-58637741D02*
X52880953Y-58590122D01*
X52880953Y-58590122D02*
X52976191Y-58542503D01*
X52976191Y-58542503D02*
X53214286Y-58542503D01*
X53214286Y-58542503D02*
X53357143Y-58590122D01*
X53642858Y-58542503D02*
X54214286Y-58542503D01*
X53928572Y-59542503D02*
X53928572Y-58542503D01*
X54547620Y-59542503D02*
X54547620Y-58542503D01*
X54547620Y-58542503D02*
X54880953Y-59256788D01*
X54880953Y-59256788D02*
X55214286Y-58542503D01*
X55214286Y-58542503D02*
X55214286Y-59542503D01*
X55595239Y-58542503D02*
X56214286Y-58542503D01*
X56214286Y-58542503D02*
X55880953Y-58923455D01*
X55880953Y-58923455D02*
X56023810Y-58923455D01*
X56023810Y-58923455D02*
X56119048Y-58971074D01*
X56119048Y-58971074D02*
X56166667Y-59018693D01*
X56166667Y-59018693D02*
X56214286Y-59113931D01*
X56214286Y-59113931D02*
X56214286Y-59352026D01*
X56214286Y-59352026D02*
X56166667Y-59447264D01*
X56166667Y-59447264D02*
X56119048Y-59494884D01*
X56119048Y-59494884D02*
X56023810Y-59542503D01*
X56023810Y-59542503D02*
X55738096Y-59542503D01*
X55738096Y-59542503D02*
X55642858Y-59494884D01*
X55642858Y-59494884D02*
X55595239Y-59447264D01*
X56595239Y-58637741D02*
X56642858Y-58590122D01*
X56642858Y-58590122D02*
X56738096Y-58542503D01*
X56738096Y-58542503D02*
X56976191Y-58542503D01*
X56976191Y-58542503D02*
X57071429Y-58590122D01*
X57071429Y-58590122D02*
X57119048Y-58637741D01*
X57119048Y-58637741D02*
X57166667Y-58732979D01*
X57166667Y-58732979D02*
X57166667Y-58828217D01*
X57166667Y-58828217D02*
X57119048Y-58971074D01*
X57119048Y-58971074D02*
X56547620Y-59542503D01*
X56547620Y-59542503D02*
X57166667Y-59542503D01*
X57928572Y-59018693D02*
X57595239Y-59018693D01*
X57595239Y-59542503D02*
X57595239Y-58542503D01*
X57595239Y-58542503D02*
X58071429Y-58542503D01*
X58880953Y-58875836D02*
X58880953Y-59542503D01*
X58642858Y-58494884D02*
X58404763Y-59209169D01*
X58404763Y-59209169D02*
X59023810Y-59209169D01*
X59595239Y-58542503D02*
X59690477Y-58542503D01*
X59690477Y-58542503D02*
X59785715Y-58590122D01*
X59785715Y-58590122D02*
X59833334Y-58637741D01*
X59833334Y-58637741D02*
X59880953Y-58732979D01*
X59880953Y-58732979D02*
X59928572Y-58923455D01*
X59928572Y-58923455D02*
X59928572Y-59161550D01*
X59928572Y-59161550D02*
X59880953Y-59352026D01*
X59880953Y-59352026D02*
X59833334Y-59447264D01*
X59833334Y-59447264D02*
X59785715Y-59494884D01*
X59785715Y-59494884D02*
X59690477Y-59542503D01*
X59690477Y-59542503D02*
X59595239Y-59542503D01*
X59595239Y-59542503D02*
X59500001Y-59494884D01*
X59500001Y-59494884D02*
X59452382Y-59447264D01*
X59452382Y-59447264D02*
X59404763Y-59352026D01*
X59404763Y-59352026D02*
X59357144Y-59161550D01*
X59357144Y-59161550D02*
X59357144Y-58923455D01*
X59357144Y-58923455D02*
X59404763Y-58732979D01*
X59404763Y-58732979D02*
X59452382Y-58637741D01*
X59452382Y-58637741D02*
X59500001Y-58590122D01*
X59500001Y-58590122D02*
X59595239Y-58542503D01*
X60833334Y-58542503D02*
X60357144Y-58542503D01*
X60357144Y-58542503D02*
X60309525Y-59018693D01*
X60309525Y-59018693D02*
X60357144Y-58971074D01*
X60357144Y-58971074D02*
X60452382Y-58923455D01*
X60452382Y-58923455D02*
X60690477Y-58923455D01*
X60690477Y-58923455D02*
X60785715Y-58971074D01*
X60785715Y-58971074D02*
X60833334Y-59018693D01*
X60833334Y-59018693D02*
X60880953Y-59113931D01*
X60880953Y-59113931D02*
X60880953Y-59352026D01*
X60880953Y-59352026D02*
X60833334Y-59447264D01*
X60833334Y-59447264D02*
X60785715Y-59494884D01*
X60785715Y-59494884D02*
X60690477Y-59542503D01*
X60690477Y-59542503D02*
X60452382Y-59542503D01*
X60452382Y-59542503D02*
X60357144Y-59494884D01*
X60357144Y-59494884D02*
X60309525Y-59447264D01*
X61880953Y-59542503D02*
X61547620Y-59066312D01*
X61309525Y-59542503D02*
X61309525Y-58542503D01*
X61309525Y-58542503D02*
X61690477Y-58542503D01*
X61690477Y-58542503D02*
X61785715Y-58590122D01*
X61785715Y-58590122D02*
X61833334Y-58637741D01*
X61833334Y-58637741D02*
X61880953Y-58732979D01*
X61880953Y-58732979D02*
X61880953Y-58875836D01*
X61880953Y-58875836D02*
X61833334Y-58971074D01*
X61833334Y-58971074D02*
X61785715Y-59018693D01*
X61785715Y-59018693D02*
X61690477Y-59066312D01*
X61690477Y-59066312D02*
X61309525Y-59066312D01*
X62833334Y-58590122D02*
X62738096Y-58542503D01*
X62738096Y-58542503D02*
X62595239Y-58542503D01*
X62595239Y-58542503D02*
X62452382Y-58590122D01*
X62452382Y-58590122D02*
X62357144Y-58685360D01*
X62357144Y-58685360D02*
X62309525Y-58780598D01*
X62309525Y-58780598D02*
X62261906Y-58971074D01*
X62261906Y-58971074D02*
X62261906Y-59113931D01*
X62261906Y-59113931D02*
X62309525Y-59304407D01*
X62309525Y-59304407D02*
X62357144Y-59399645D01*
X62357144Y-59399645D02*
X62452382Y-59494884D01*
X62452382Y-59494884D02*
X62595239Y-59542503D01*
X62595239Y-59542503D02*
X62690477Y-59542503D01*
X62690477Y-59542503D02*
X62833334Y-59494884D01*
X62833334Y-59494884D02*
X62880953Y-59447264D01*
X62880953Y-59447264D02*
X62880953Y-59113931D01*
X62880953Y-59113931D02*
X62690477Y-59113931D01*
X63166668Y-58542503D02*
X63738096Y-58542503D01*
X63452382Y-59542503D02*
X63452382Y-58542503D01*
X64500001Y-58542503D02*
X64309525Y-58542503D01*
X64309525Y-58542503D02*
X64214287Y-58590122D01*
X64214287Y-58590122D02*
X64166668Y-58637741D01*
X64166668Y-58637741D02*
X64071430Y-58780598D01*
X64071430Y-58780598D02*
X64023811Y-58971074D01*
X64023811Y-58971074D02*
X64023811Y-59352026D01*
X64023811Y-59352026D02*
X64071430Y-59447264D01*
X64071430Y-59447264D02*
X64119049Y-59494884D01*
X64119049Y-59494884D02*
X64214287Y-59542503D01*
X64214287Y-59542503D02*
X64404763Y-59542503D01*
X64404763Y-59542503D02*
X64500001Y-59494884D01*
X64500001Y-59494884D02*
X64547620Y-59447264D01*
X64547620Y-59447264D02*
X64595239Y-59352026D01*
X64595239Y-59352026D02*
X64595239Y-59113931D01*
X64595239Y-59113931D02*
X64547620Y-59018693D01*
X64547620Y-59018693D02*
X64500001Y-58971074D01*
X64500001Y-58971074D02*
X64404763Y-58923455D01*
X64404763Y-58923455D02*
X64214287Y-58923455D01*
X64214287Y-58923455D02*
X64119049Y-58971074D01*
X64119049Y-58971074D02*
X64071430Y-59018693D01*
X64071430Y-59018693D02*
X64023811Y-59113931D01*
X65785716Y-59447264D02*
X65833335Y-59494884D01*
X65833335Y-59494884D02*
X65785716Y-59542503D01*
X65785716Y-59542503D02*
X65738097Y-59494884D01*
X65738097Y-59494884D02*
X65785716Y-59447264D01*
X65785716Y-59447264D02*
X65785716Y-59542503D01*
X65785716Y-58923455D02*
X65833335Y-58971074D01*
X65833335Y-58971074D02*
X65785716Y-59018693D01*
X65785716Y-59018693D02*
X65738097Y-58971074D01*
X65738097Y-58971074D02*
X65785716Y-58923455D01*
X65785716Y-58923455D02*
X65785716Y-59018693D01*
X66261906Y-59542503D02*
X66261906Y-58542503D01*
X66261906Y-58542503D02*
X66500001Y-58542503D01*
X66500001Y-58542503D02*
X66642858Y-58590122D01*
X66642858Y-58590122D02*
X66738096Y-58685360D01*
X66738096Y-58685360D02*
X66785715Y-58780598D01*
X66785715Y-58780598D02*
X66833334Y-58971074D01*
X66833334Y-58971074D02*
X66833334Y-59113931D01*
X66833334Y-59113931D02*
X66785715Y-59304407D01*
X66785715Y-59304407D02*
X66738096Y-59399645D01*
X66738096Y-59399645D02*
X66642858Y-59494884D01*
X66642858Y-59494884D02*
X66500001Y-59542503D01*
X66500001Y-59542503D02*
X66261906Y-59542503D01*
X52119047Y-61152447D02*
X52119047Y-60152447D01*
X52119047Y-60152447D02*
X52499999Y-60152447D01*
X52499999Y-60152447D02*
X52595237Y-60200066D01*
X52595237Y-60200066D02*
X52642856Y-60247685D01*
X52642856Y-60247685D02*
X52690475Y-60342923D01*
X52690475Y-60342923D02*
X52690475Y-60485780D01*
X52690475Y-60485780D02*
X52642856Y-60581018D01*
X52642856Y-60581018D02*
X52595237Y-60628637D01*
X52595237Y-60628637D02*
X52499999Y-60676256D01*
X52499999Y-60676256D02*
X52119047Y-60676256D01*
X53119047Y-61152447D02*
X53119047Y-60152447D01*
X53547618Y-61152447D02*
X53547618Y-60628637D01*
X53547618Y-60628637D02*
X53499999Y-60533399D01*
X53499999Y-60533399D02*
X53404761Y-60485780D01*
X53404761Y-60485780D02*
X53261904Y-60485780D01*
X53261904Y-60485780D02*
X53166666Y-60533399D01*
X53166666Y-60533399D02*
X53119047Y-60581018D01*
X54023809Y-61152447D02*
X54023809Y-60485780D01*
X54023809Y-60152447D02*
X53976190Y-60200066D01*
X53976190Y-60200066D02*
X54023809Y-60247685D01*
X54023809Y-60247685D02*
X54071428Y-60200066D01*
X54071428Y-60200066D02*
X54023809Y-60152447D01*
X54023809Y-60152447D02*
X54023809Y-60247685D01*
X54642856Y-61152447D02*
X54547618Y-61104828D01*
X54547618Y-61104828D02*
X54499999Y-61009589D01*
X54499999Y-61009589D02*
X54499999Y-60152447D01*
X55071428Y-60152447D02*
X54976190Y-60342923D01*
X55452380Y-61104828D02*
X55547618Y-61152447D01*
X55547618Y-61152447D02*
X55738094Y-61152447D01*
X55738094Y-61152447D02*
X55833332Y-61104828D01*
X55833332Y-61104828D02*
X55880951Y-61009589D01*
X55880951Y-61009589D02*
X55880951Y-60961970D01*
X55880951Y-60961970D02*
X55833332Y-60866732D01*
X55833332Y-60866732D02*
X55738094Y-60819113D01*
X55738094Y-60819113D02*
X55595237Y-60819113D01*
X55595237Y-60819113D02*
X55499999Y-60771494D01*
X55499999Y-60771494D02*
X55452380Y-60676256D01*
X55452380Y-60676256D02*
X55452380Y-60628637D01*
X55452380Y-60628637D02*
X55499999Y-60533399D01*
X55499999Y-60533399D02*
X55595237Y-60485780D01*
X55595237Y-60485780D02*
X55738094Y-60485780D01*
X55738094Y-60485780D02*
X55833332Y-60533399D01*
X57547618Y-61152447D02*
X57071428Y-61152447D01*
X57071428Y-61152447D02*
X57071428Y-60152447D01*
X58309523Y-61152447D02*
X58309523Y-60628637D01*
X58309523Y-60628637D02*
X58261904Y-60533399D01*
X58261904Y-60533399D02*
X58166666Y-60485780D01*
X58166666Y-60485780D02*
X57976190Y-60485780D01*
X57976190Y-60485780D02*
X57880952Y-60533399D01*
X58309523Y-61104828D02*
X58214285Y-61152447D01*
X58214285Y-61152447D02*
X57976190Y-61152447D01*
X57976190Y-61152447D02*
X57880952Y-61104828D01*
X57880952Y-61104828D02*
X57833333Y-61009589D01*
X57833333Y-61009589D02*
X57833333Y-60914351D01*
X57833333Y-60914351D02*
X57880952Y-60819113D01*
X57880952Y-60819113D02*
X57976190Y-60771494D01*
X57976190Y-60771494D02*
X58214285Y-60771494D01*
X58214285Y-60771494D02*
X58309523Y-60723875D01*
X58785714Y-61152447D02*
X58785714Y-60152447D01*
X58785714Y-60533399D02*
X58880952Y-60485780D01*
X58880952Y-60485780D02*
X59071428Y-60485780D01*
X59071428Y-60485780D02*
X59166666Y-60533399D01*
X59166666Y-60533399D02*
X59214285Y-60581018D01*
X59214285Y-60581018D02*
X59261904Y-60676256D01*
X59261904Y-60676256D02*
X59261904Y-60961970D01*
X59261904Y-60961970D02*
X59214285Y-61057208D01*
X59214285Y-61057208D02*
X59166666Y-61104828D01*
X59166666Y-61104828D02*
X59071428Y-61152447D01*
X59071428Y-61152447D02*
X58880952Y-61152447D01*
X58880952Y-61152447D02*
X58785714Y-61104828D01*
X60404762Y-60485780D02*
X61119047Y-60485780D01*
X60690476Y-60057208D02*
X60404762Y-61342923D01*
X61023809Y-60914351D02*
X60309524Y-60914351D01*
X60738095Y-61342923D02*
X61023809Y-60057208D01*
X61976190Y-61152447D02*
X61404762Y-61152447D01*
X61690476Y-61152447D02*
X61690476Y-60152447D01*
X61690476Y-60152447D02*
X61595238Y-60295304D01*
X61595238Y-60295304D02*
X61500000Y-60390542D01*
X61500000Y-60390542D02*
X61404762Y-60438161D01*
X62928571Y-61152447D02*
X62357143Y-61152447D01*
X62642857Y-61152447D02*
X62642857Y-60152447D01*
X62642857Y-60152447D02*
X62547619Y-60295304D01*
X62547619Y-60295304D02*
X62452381Y-60390542D01*
X62452381Y-60390542D02*
X62357143Y-60438161D01*
X49761904Y-62762391D02*
X49761904Y-61762391D01*
X49761904Y-61762391D02*
X49999999Y-61762391D01*
X49999999Y-61762391D02*
X50142856Y-61810010D01*
X50142856Y-61810010D02*
X50238094Y-61905248D01*
X50238094Y-61905248D02*
X50285713Y-62000486D01*
X50285713Y-62000486D02*
X50333332Y-62190962D01*
X50333332Y-62190962D02*
X50333332Y-62333819D01*
X50333332Y-62333819D02*
X50285713Y-62524295D01*
X50285713Y-62524295D02*
X50238094Y-62619533D01*
X50238094Y-62619533D02*
X50142856Y-62714772D01*
X50142856Y-62714772D02*
X49999999Y-62762391D01*
X49999999Y-62762391D02*
X49761904Y-62762391D01*
X51142856Y-62714772D02*
X51047618Y-62762391D01*
X51047618Y-62762391D02*
X50857142Y-62762391D01*
X50857142Y-62762391D02*
X50761904Y-62714772D01*
X50761904Y-62714772D02*
X50714285Y-62619533D01*
X50714285Y-62619533D02*
X50714285Y-62238581D01*
X50714285Y-62238581D02*
X50761904Y-62143343D01*
X50761904Y-62143343D02*
X50857142Y-62095724D01*
X50857142Y-62095724D02*
X51047618Y-62095724D01*
X51047618Y-62095724D02*
X51142856Y-62143343D01*
X51142856Y-62143343D02*
X51190475Y-62238581D01*
X51190475Y-62238581D02*
X51190475Y-62333819D01*
X51190475Y-62333819D02*
X50714285Y-62429057D01*
X51571428Y-62714772D02*
X51666666Y-62762391D01*
X51666666Y-62762391D02*
X51857142Y-62762391D01*
X51857142Y-62762391D02*
X51952380Y-62714772D01*
X51952380Y-62714772D02*
X51999999Y-62619533D01*
X51999999Y-62619533D02*
X51999999Y-62571914D01*
X51999999Y-62571914D02*
X51952380Y-62476676D01*
X51952380Y-62476676D02*
X51857142Y-62429057D01*
X51857142Y-62429057D02*
X51714285Y-62429057D01*
X51714285Y-62429057D02*
X51619047Y-62381438D01*
X51619047Y-62381438D02*
X51571428Y-62286200D01*
X51571428Y-62286200D02*
X51571428Y-62238581D01*
X51571428Y-62238581D02*
X51619047Y-62143343D01*
X51619047Y-62143343D02*
X51714285Y-62095724D01*
X51714285Y-62095724D02*
X51857142Y-62095724D01*
X51857142Y-62095724D02*
X51952380Y-62143343D01*
X52428571Y-62762391D02*
X52428571Y-62095724D01*
X52428571Y-61762391D02*
X52380952Y-61810010D01*
X52380952Y-61810010D02*
X52428571Y-61857629D01*
X52428571Y-61857629D02*
X52476190Y-61810010D01*
X52476190Y-61810010D02*
X52428571Y-61762391D01*
X52428571Y-61762391D02*
X52428571Y-61857629D01*
X53333332Y-62095724D02*
X53333332Y-62905248D01*
X53333332Y-62905248D02*
X53285713Y-63000486D01*
X53285713Y-63000486D02*
X53238094Y-63048105D01*
X53238094Y-63048105D02*
X53142856Y-63095724D01*
X53142856Y-63095724D02*
X52999999Y-63095724D01*
X52999999Y-63095724D02*
X52904761Y-63048105D01*
X53333332Y-62714772D02*
X53238094Y-62762391D01*
X53238094Y-62762391D02*
X53047618Y-62762391D01*
X53047618Y-62762391D02*
X52952380Y-62714772D01*
X52952380Y-62714772D02*
X52904761Y-62667152D01*
X52904761Y-62667152D02*
X52857142Y-62571914D01*
X52857142Y-62571914D02*
X52857142Y-62286200D01*
X52857142Y-62286200D02*
X52904761Y-62190962D01*
X52904761Y-62190962D02*
X52952380Y-62143343D01*
X52952380Y-62143343D02*
X53047618Y-62095724D01*
X53047618Y-62095724D02*
X53238094Y-62095724D01*
X53238094Y-62095724D02*
X53333332Y-62143343D01*
X53809523Y-62095724D02*
X53809523Y-62762391D01*
X53809523Y-62190962D02*
X53857142Y-62143343D01*
X53857142Y-62143343D02*
X53952380Y-62095724D01*
X53952380Y-62095724D02*
X54095237Y-62095724D01*
X54095237Y-62095724D02*
X54190475Y-62143343D01*
X54190475Y-62143343D02*
X54238094Y-62238581D01*
X54238094Y-62238581D02*
X54238094Y-62762391D01*
X55095237Y-62714772D02*
X54999999Y-62762391D01*
X54999999Y-62762391D02*
X54809523Y-62762391D01*
X54809523Y-62762391D02*
X54714285Y-62714772D01*
X54714285Y-62714772D02*
X54666666Y-62619533D01*
X54666666Y-62619533D02*
X54666666Y-62238581D01*
X54666666Y-62238581D02*
X54714285Y-62143343D01*
X54714285Y-62143343D02*
X54809523Y-62095724D01*
X54809523Y-62095724D02*
X54999999Y-62095724D01*
X54999999Y-62095724D02*
X55095237Y-62143343D01*
X55095237Y-62143343D02*
X55142856Y-62238581D01*
X55142856Y-62238581D02*
X55142856Y-62333819D01*
X55142856Y-62333819D02*
X54666666Y-62429057D01*
X55999999Y-62762391D02*
X55999999Y-61762391D01*
X55999999Y-62714772D02*
X55904761Y-62762391D01*
X55904761Y-62762391D02*
X55714285Y-62762391D01*
X55714285Y-62762391D02*
X55619047Y-62714772D01*
X55619047Y-62714772D02*
X55571428Y-62667152D01*
X55571428Y-62667152D02*
X55523809Y-62571914D01*
X55523809Y-62571914D02*
X55523809Y-62286200D01*
X55523809Y-62286200D02*
X55571428Y-62190962D01*
X55571428Y-62190962D02*
X55619047Y-62143343D01*
X55619047Y-62143343D02*
X55714285Y-62095724D01*
X55714285Y-62095724D02*
X55904761Y-62095724D01*
X55904761Y-62095724D02*
X55999999Y-62143343D01*
X57238095Y-62762391D02*
X57238095Y-61762391D01*
X57238095Y-62143343D02*
X57333333Y-62095724D01*
X57333333Y-62095724D02*
X57523809Y-62095724D01*
X57523809Y-62095724D02*
X57619047Y-62143343D01*
X57619047Y-62143343D02*
X57666666Y-62190962D01*
X57666666Y-62190962D02*
X57714285Y-62286200D01*
X57714285Y-62286200D02*
X57714285Y-62571914D01*
X57714285Y-62571914D02*
X57666666Y-62667152D01*
X57666666Y-62667152D02*
X57619047Y-62714772D01*
X57619047Y-62714772D02*
X57523809Y-62762391D01*
X57523809Y-62762391D02*
X57333333Y-62762391D01*
X57333333Y-62762391D02*
X57238095Y-62714772D01*
X58047619Y-62095724D02*
X58285714Y-62762391D01*
X58523809Y-62095724D02*
X58285714Y-62762391D01*
X58285714Y-62762391D02*
X58190476Y-63000486D01*
X58190476Y-63000486D02*
X58142857Y-63048105D01*
X58142857Y-63048105D02*
X58047619Y-63095724D01*
X59619048Y-62714772D02*
X59761905Y-62762391D01*
X59761905Y-62762391D02*
X60000000Y-62762391D01*
X60000000Y-62762391D02*
X60095238Y-62714772D01*
X60095238Y-62714772D02*
X60142857Y-62667152D01*
X60142857Y-62667152D02*
X60190476Y-62571914D01*
X60190476Y-62571914D02*
X60190476Y-62476676D01*
X60190476Y-62476676D02*
X60142857Y-62381438D01*
X60142857Y-62381438D02*
X60095238Y-62333819D01*
X60095238Y-62333819D02*
X60000000Y-62286200D01*
X60000000Y-62286200D02*
X59809524Y-62238581D01*
X59809524Y-62238581D02*
X59714286Y-62190962D01*
X59714286Y-62190962D02*
X59666667Y-62143343D01*
X59666667Y-62143343D02*
X59619048Y-62048105D01*
X59619048Y-62048105D02*
X59619048Y-61952867D01*
X59619048Y-61952867D02*
X59666667Y-61857629D01*
X59666667Y-61857629D02*
X59714286Y-61810010D01*
X59714286Y-61810010D02*
X59809524Y-61762391D01*
X59809524Y-61762391D02*
X60047619Y-61762391D01*
X60047619Y-61762391D02*
X60190476Y-61810010D01*
X60619048Y-62762391D02*
X60619048Y-61762391D01*
X61047619Y-62762391D02*
X61047619Y-62238581D01*
X61047619Y-62238581D02*
X61000000Y-62143343D01*
X61000000Y-62143343D02*
X60904762Y-62095724D01*
X60904762Y-62095724D02*
X60761905Y-62095724D01*
X60761905Y-62095724D02*
X60666667Y-62143343D01*
X60666667Y-62143343D02*
X60619048Y-62190962D01*
X61523810Y-62762391D02*
X61523810Y-62095724D01*
X61523810Y-61762391D02*
X61476191Y-61810010D01*
X61476191Y-61810010D02*
X61523810Y-61857629D01*
X61523810Y-61857629D02*
X61571429Y-61810010D01*
X61571429Y-61810010D02*
X61523810Y-61762391D01*
X61523810Y-61762391D02*
X61523810Y-61857629D01*
X62000000Y-62095724D02*
X62000000Y-62762391D01*
X62000000Y-62190962D02*
X62047619Y-62143343D01*
X62047619Y-62143343D02*
X62142857Y-62095724D01*
X62142857Y-62095724D02*
X62285714Y-62095724D01*
X62285714Y-62095724D02*
X62380952Y-62143343D01*
X62380952Y-62143343D02*
X62428571Y-62238581D01*
X62428571Y-62238581D02*
X62428571Y-62762391D01*
X62904762Y-62762391D02*
X62904762Y-61762391D01*
X63000000Y-62381438D02*
X63285714Y-62762391D01*
X63285714Y-62095724D02*
X62904762Y-62476676D01*
X64142857Y-62095724D02*
X64142857Y-62762391D01*
X63714286Y-62095724D02*
X63714286Y-62619533D01*
X63714286Y-62619533D02*
X63761905Y-62714772D01*
X63761905Y-62714772D02*
X63857143Y-62762391D01*
X63857143Y-62762391D02*
X64000000Y-62762391D01*
X64000000Y-62762391D02*
X64095238Y-62714772D01*
X64095238Y-62714772D02*
X64142857Y-62667152D01*
X64619048Y-62762391D02*
X64619048Y-62095724D01*
X64619048Y-62286200D02*
X64666667Y-62190962D01*
X64666667Y-62190962D02*
X64714286Y-62143343D01*
X64714286Y-62143343D02*
X64809524Y-62095724D01*
X64809524Y-62095724D02*
X64904762Y-62095724D01*
X65238096Y-62762391D02*
X65238096Y-62095724D01*
X65238096Y-61762391D02*
X65190477Y-61810010D01*
X65190477Y-61810010D02*
X65238096Y-61857629D01*
X65238096Y-61857629D02*
X65285715Y-61810010D01*
X65285715Y-61810010D02*
X65238096Y-61762391D01*
X65238096Y-61762391D02*
X65238096Y-61857629D01*
X54309524Y-63467573D02*
X54357143Y-63419954D01*
X54357143Y-63419954D02*
X54452381Y-63372335D01*
X54452381Y-63372335D02*
X54690476Y-63372335D01*
X54690476Y-63372335D02*
X54785714Y-63419954D01*
X54785714Y-63419954D02*
X54833333Y-63467573D01*
X54833333Y-63467573D02*
X54880952Y-63562811D01*
X54880952Y-63562811D02*
X54880952Y-63658049D01*
X54880952Y-63658049D02*
X54833333Y-63800906D01*
X54833333Y-63800906D02*
X54261905Y-64372335D01*
X54261905Y-64372335D02*
X54880952Y-64372335D01*
X55500000Y-63372335D02*
X55595238Y-63372335D01*
X55595238Y-63372335D02*
X55690476Y-63419954D01*
X55690476Y-63419954D02*
X55738095Y-63467573D01*
X55738095Y-63467573D02*
X55785714Y-63562811D01*
X55785714Y-63562811D02*
X55833333Y-63753287D01*
X55833333Y-63753287D02*
X55833333Y-63991382D01*
X55833333Y-63991382D02*
X55785714Y-64181858D01*
X55785714Y-64181858D02*
X55738095Y-64277096D01*
X55738095Y-64277096D02*
X55690476Y-64324716D01*
X55690476Y-64324716D02*
X55595238Y-64372335D01*
X55595238Y-64372335D02*
X55500000Y-64372335D01*
X55500000Y-64372335D02*
X55404762Y-64324716D01*
X55404762Y-64324716D02*
X55357143Y-64277096D01*
X55357143Y-64277096D02*
X55309524Y-64181858D01*
X55309524Y-64181858D02*
X55261905Y-63991382D01*
X55261905Y-63991382D02*
X55261905Y-63753287D01*
X55261905Y-63753287D02*
X55309524Y-63562811D01*
X55309524Y-63562811D02*
X55357143Y-63467573D01*
X55357143Y-63467573D02*
X55404762Y-63419954D01*
X55404762Y-63419954D02*
X55500000Y-63372335D01*
X56214286Y-63467573D02*
X56261905Y-63419954D01*
X56261905Y-63419954D02*
X56357143Y-63372335D01*
X56357143Y-63372335D02*
X56595238Y-63372335D01*
X56595238Y-63372335D02*
X56690476Y-63419954D01*
X56690476Y-63419954D02*
X56738095Y-63467573D01*
X56738095Y-63467573D02*
X56785714Y-63562811D01*
X56785714Y-63562811D02*
X56785714Y-63658049D01*
X56785714Y-63658049D02*
X56738095Y-63800906D01*
X56738095Y-63800906D02*
X56166667Y-64372335D01*
X56166667Y-64372335D02*
X56785714Y-64372335D01*
X57690476Y-63372335D02*
X57214286Y-63372335D01*
X57214286Y-63372335D02*
X57166667Y-63848525D01*
X57166667Y-63848525D02*
X57214286Y-63800906D01*
X57214286Y-63800906D02*
X57309524Y-63753287D01*
X57309524Y-63753287D02*
X57547619Y-63753287D01*
X57547619Y-63753287D02*
X57642857Y-63800906D01*
X57642857Y-63800906D02*
X57690476Y-63848525D01*
X57690476Y-63848525D02*
X57738095Y-63943763D01*
X57738095Y-63943763D02*
X57738095Y-64181858D01*
X57738095Y-64181858D02*
X57690476Y-64277096D01*
X57690476Y-64277096D02*
X57642857Y-64324716D01*
X57642857Y-64324716D02*
X57547619Y-64372335D01*
X57547619Y-64372335D02*
X57309524Y-64372335D01*
X57309524Y-64372335D02*
X57214286Y-64324716D01*
X57214286Y-64324716D02*
X57166667Y-64277096D01*
X58880952Y-63324716D02*
X58023810Y-64610430D01*
X59404762Y-63372335D02*
X59500000Y-63372335D01*
X59500000Y-63372335D02*
X59595238Y-63419954D01*
X59595238Y-63419954D02*
X59642857Y-63467573D01*
X59642857Y-63467573D02*
X59690476Y-63562811D01*
X59690476Y-63562811D02*
X59738095Y-63753287D01*
X59738095Y-63753287D02*
X59738095Y-63991382D01*
X59738095Y-63991382D02*
X59690476Y-64181858D01*
X59690476Y-64181858D02*
X59642857Y-64277096D01*
X59642857Y-64277096D02*
X59595238Y-64324716D01*
X59595238Y-64324716D02*
X59500000Y-64372335D01*
X59500000Y-64372335D02*
X59404762Y-64372335D01*
X59404762Y-64372335D02*
X59309524Y-64324716D01*
X59309524Y-64324716D02*
X59261905Y-64277096D01*
X59261905Y-64277096D02*
X59214286Y-64181858D01*
X59214286Y-64181858D02*
X59166667Y-63991382D01*
X59166667Y-63991382D02*
X59166667Y-63753287D01*
X59166667Y-63753287D02*
X59214286Y-63562811D01*
X59214286Y-63562811D02*
X59261905Y-63467573D01*
X59261905Y-63467573D02*
X59309524Y-63419954D01*
X59309524Y-63419954D02*
X59404762Y-63372335D01*
X60595238Y-63705668D02*
X60595238Y-64372335D01*
X60357143Y-63324716D02*
X60119048Y-64039001D01*
X60119048Y-64039001D02*
X60738095Y-64039001D01*
X52397619Y-43342419D02*
X52397619Y-42342419D01*
X52826190Y-42437657D02*
X52873809Y-42390038D01*
X52873809Y-42390038D02*
X52969047Y-42342419D01*
X52969047Y-42342419D02*
X53207142Y-42342419D01*
X53207142Y-42342419D02*
X53302380Y-42390038D01*
X53302380Y-42390038D02*
X53349999Y-42437657D01*
X53349999Y-42437657D02*
X53397618Y-42532895D01*
X53397618Y-42532895D02*
X53397618Y-42628133D01*
X53397618Y-42628133D02*
X53349999Y-42770990D01*
X53349999Y-42770990D02*
X52778571Y-43342419D01*
X52778571Y-43342419D02*
X53397618Y-43342419D01*
X54397618Y-43247180D02*
X54349999Y-43294800D01*
X54349999Y-43294800D02*
X54207142Y-43342419D01*
X54207142Y-43342419D02*
X54111904Y-43342419D01*
X54111904Y-43342419D02*
X53969047Y-43294800D01*
X53969047Y-43294800D02*
X53873809Y-43199561D01*
X53873809Y-43199561D02*
X53826190Y-43104323D01*
X53826190Y-43104323D02*
X53778571Y-42913847D01*
X53778571Y-42913847D02*
X53778571Y-42770990D01*
X53778571Y-42770990D02*
X53826190Y-42580514D01*
X53826190Y-42580514D02*
X53873809Y-42485276D01*
X53873809Y-42485276D02*
X53969047Y-42390038D01*
X53969047Y-42390038D02*
X54111904Y-42342419D01*
X54111904Y-42342419D02*
X54207142Y-42342419D01*
X54207142Y-42342419D02*
X54349999Y-42390038D01*
X54349999Y-42390038D02*
X54397618Y-42437657D01*
X55349999Y-43342419D02*
X54778571Y-43342419D01*
X55064285Y-43342419D02*
X55064285Y-42342419D01*
X55064285Y-42342419D02*
X54969047Y-42485276D01*
X54969047Y-42485276D02*
X54873809Y-42580514D01*
X54873809Y-42580514D02*
X54778571Y-42628133D01*
X45638973Y-36242419D02*
X46258020Y-36242419D01*
X46258020Y-36242419D02*
X45924687Y-36623371D01*
X45924687Y-36623371D02*
X46067544Y-36623371D01*
X46067544Y-36623371D02*
X46162782Y-36670990D01*
X46162782Y-36670990D02*
X46210401Y-36718609D01*
X46210401Y-36718609D02*
X46258020Y-36813847D01*
X46258020Y-36813847D02*
X46258020Y-37051942D01*
X46258020Y-37051942D02*
X46210401Y-37147180D01*
X46210401Y-37147180D02*
X46162782Y-37194800D01*
X46162782Y-37194800D02*
X46067544Y-37242419D01*
X46067544Y-37242419D02*
X45781830Y-37242419D01*
X45781830Y-37242419D02*
X45686592Y-37194800D01*
X45686592Y-37194800D02*
X45638973Y-37147180D01*
X46686592Y-37147180D02*
X46734211Y-37194800D01*
X46734211Y-37194800D02*
X46686592Y-37242419D01*
X46686592Y-37242419D02*
X46638973Y-37194800D01*
X46638973Y-37194800D02*
X46686592Y-37147180D01*
X46686592Y-37147180D02*
X46686592Y-37242419D01*
X47067544Y-36242419D02*
X47686591Y-36242419D01*
X47686591Y-36242419D02*
X47353258Y-36623371D01*
X47353258Y-36623371D02*
X47496115Y-36623371D01*
X47496115Y-36623371D02*
X47591353Y-36670990D01*
X47591353Y-36670990D02*
X47638972Y-36718609D01*
X47638972Y-36718609D02*
X47686591Y-36813847D01*
X47686591Y-36813847D02*
X47686591Y-37051942D01*
X47686591Y-37051942D02*
X47638972Y-37147180D01*
X47638972Y-37147180D02*
X47591353Y-37194800D01*
X47591353Y-37194800D02*
X47496115Y-37242419D01*
X47496115Y-37242419D02*
X47210401Y-37242419D01*
X47210401Y-37242419D02*
X47115163Y-37194800D01*
X47115163Y-37194800D02*
X47067544Y-37147180D01*
X47972306Y-36242419D02*
X48305639Y-37242419D01*
X48305639Y-37242419D02*
X48638972Y-36242419D01*
X46162782Y-38804744D02*
X46305639Y-38852363D01*
X46305639Y-38852363D02*
X46543734Y-38852363D01*
X46543734Y-38852363D02*
X46638972Y-38804744D01*
X46638972Y-38804744D02*
X46686591Y-38757124D01*
X46686591Y-38757124D02*
X46734210Y-38661886D01*
X46734210Y-38661886D02*
X46734210Y-38566648D01*
X46734210Y-38566648D02*
X46686591Y-38471410D01*
X46686591Y-38471410D02*
X46638972Y-38423791D01*
X46638972Y-38423791D02*
X46543734Y-38376172D01*
X46543734Y-38376172D02*
X46353258Y-38328553D01*
X46353258Y-38328553D02*
X46258020Y-38280934D01*
X46258020Y-38280934D02*
X46210401Y-38233315D01*
X46210401Y-38233315D02*
X46162782Y-38138077D01*
X46162782Y-38138077D02*
X46162782Y-38042839D01*
X46162782Y-38042839D02*
X46210401Y-37947601D01*
X46210401Y-37947601D02*
X46258020Y-37899982D01*
X46258020Y-37899982D02*
X46353258Y-37852363D01*
X46353258Y-37852363D02*
X46591353Y-37852363D01*
X46591353Y-37852363D02*
X46734210Y-37899982D01*
X47734210Y-38757124D02*
X47686591Y-38804744D01*
X47686591Y-38804744D02*
X47543734Y-38852363D01*
X47543734Y-38852363D02*
X47448496Y-38852363D01*
X47448496Y-38852363D02*
X47305639Y-38804744D01*
X47305639Y-38804744D02*
X47210401Y-38709505D01*
X47210401Y-38709505D02*
X47162782Y-38614267D01*
X47162782Y-38614267D02*
X47115163Y-38423791D01*
X47115163Y-38423791D02*
X47115163Y-38280934D01*
X47115163Y-38280934D02*
X47162782Y-38090458D01*
X47162782Y-38090458D02*
X47210401Y-37995220D01*
X47210401Y-37995220D02*
X47305639Y-37899982D01*
X47305639Y-37899982D02*
X47448496Y-37852363D01*
X47448496Y-37852363D02*
X47543734Y-37852363D01*
X47543734Y-37852363D02*
X47686591Y-37899982D01*
X47686591Y-37899982D02*
X47734210Y-37947601D01*
X48638972Y-38852363D02*
X48162782Y-38852363D01*
X48162782Y-38852363D02*
X48162782Y-37852363D01*
X46115163Y-40414688D02*
X46258020Y-40462307D01*
X46258020Y-40462307D02*
X46496115Y-40462307D01*
X46496115Y-40462307D02*
X46591353Y-40414688D01*
X46591353Y-40414688D02*
X46638972Y-40367068D01*
X46638972Y-40367068D02*
X46686591Y-40271830D01*
X46686591Y-40271830D02*
X46686591Y-40176592D01*
X46686591Y-40176592D02*
X46638972Y-40081354D01*
X46638972Y-40081354D02*
X46591353Y-40033735D01*
X46591353Y-40033735D02*
X46496115Y-39986116D01*
X46496115Y-39986116D02*
X46305639Y-39938497D01*
X46305639Y-39938497D02*
X46210401Y-39890878D01*
X46210401Y-39890878D02*
X46162782Y-39843259D01*
X46162782Y-39843259D02*
X46115163Y-39748021D01*
X46115163Y-39748021D02*
X46115163Y-39652783D01*
X46115163Y-39652783D02*
X46162782Y-39557545D01*
X46162782Y-39557545D02*
X46210401Y-39509926D01*
X46210401Y-39509926D02*
X46305639Y-39462307D01*
X46305639Y-39462307D02*
X46543734Y-39462307D01*
X46543734Y-39462307D02*
X46686591Y-39509926D01*
X47115163Y-40462307D02*
X47115163Y-39462307D01*
X47115163Y-39462307D02*
X47353258Y-39462307D01*
X47353258Y-39462307D02*
X47496115Y-39509926D01*
X47496115Y-39509926D02*
X47591353Y-39605164D01*
X47591353Y-39605164D02*
X47638972Y-39700402D01*
X47638972Y-39700402D02*
X47686591Y-39890878D01*
X47686591Y-39890878D02*
X47686591Y-40033735D01*
X47686591Y-40033735D02*
X47638972Y-40224211D01*
X47638972Y-40224211D02*
X47591353Y-40319449D01*
X47591353Y-40319449D02*
X47496115Y-40414688D01*
X47496115Y-40414688D02*
X47353258Y-40462307D01*
X47353258Y-40462307D02*
X47115163Y-40462307D01*
X48067544Y-40176592D02*
X48543734Y-40176592D01*
X47972306Y-40462307D02*
X48305639Y-39462307D01*
X48305639Y-39462307D02*
X48638972Y-40462307D01*
X46448496Y-41119870D02*
X46353258Y-41072251D01*
X46353258Y-41072251D02*
X46210401Y-41072251D01*
X46210401Y-41072251D02*
X46067544Y-41119870D01*
X46067544Y-41119870D02*
X45972306Y-41215108D01*
X45972306Y-41215108D02*
X45924687Y-41310346D01*
X45924687Y-41310346D02*
X45877068Y-41500822D01*
X45877068Y-41500822D02*
X45877068Y-41643679D01*
X45877068Y-41643679D02*
X45924687Y-41834155D01*
X45924687Y-41834155D02*
X45972306Y-41929393D01*
X45972306Y-41929393D02*
X46067544Y-42024632D01*
X46067544Y-42024632D02*
X46210401Y-42072251D01*
X46210401Y-42072251D02*
X46305639Y-42072251D01*
X46305639Y-42072251D02*
X46448496Y-42024632D01*
X46448496Y-42024632D02*
X46496115Y-41977012D01*
X46496115Y-41977012D02*
X46496115Y-41643679D01*
X46496115Y-41643679D02*
X46305639Y-41643679D01*
X46924687Y-42072251D02*
X46924687Y-41072251D01*
X46924687Y-41072251D02*
X47496115Y-42072251D01*
X47496115Y-42072251D02*
X47496115Y-41072251D01*
X47972306Y-42072251D02*
X47972306Y-41072251D01*
X47972306Y-41072251D02*
X48210401Y-41072251D01*
X48210401Y-41072251D02*
X48353258Y-41119870D01*
X48353258Y-41119870D02*
X48448496Y-41215108D01*
X48448496Y-41215108D02*
X48496115Y-41310346D01*
X48496115Y-41310346D02*
X48543734Y-41500822D01*
X48543734Y-41500822D02*
X48543734Y-41643679D01*
X48543734Y-41643679D02*
X48496115Y-41834155D01*
X48496115Y-41834155D02*
X48448496Y-41929393D01*
X48448496Y-41929393D02*
X48353258Y-42024632D01*
X48353258Y-42024632D02*
X48210401Y-42072251D01*
X48210401Y-42072251D02*
X47972306Y-42072251D01*
X101177693Y-34070038D02*
X101082455Y-34022419D01*
X101082455Y-34022419D02*
X100939598Y-34022419D01*
X100939598Y-34022419D02*
X100796741Y-34070038D01*
X100796741Y-34070038D02*
X100701503Y-34165276D01*
X100701503Y-34165276D02*
X100653884Y-34260514D01*
X100653884Y-34260514D02*
X100606265Y-34450990D01*
X100606265Y-34450990D02*
X100606265Y-34593847D01*
X100606265Y-34593847D02*
X100653884Y-34784323D01*
X100653884Y-34784323D02*
X100701503Y-34879561D01*
X100701503Y-34879561D02*
X100796741Y-34974800D01*
X100796741Y-34974800D02*
X100939598Y-35022419D01*
X100939598Y-35022419D02*
X101034836Y-35022419D01*
X101034836Y-35022419D02*
X101177693Y-34974800D01*
X101177693Y-34974800D02*
X101225312Y-34927180D01*
X101225312Y-34927180D02*
X101225312Y-34593847D01*
X101225312Y-34593847D02*
X101034836Y-34593847D01*
X101653884Y-35022419D02*
X101653884Y-34022419D01*
X101653884Y-34022419D02*
X102225312Y-35022419D01*
X102225312Y-35022419D02*
X102225312Y-34022419D01*
X102701503Y-35022419D02*
X102701503Y-34022419D01*
X102701503Y-34022419D02*
X102939598Y-34022419D01*
X102939598Y-34022419D02*
X103082455Y-34070038D01*
X103082455Y-34070038D02*
X103177693Y-34165276D01*
X103177693Y-34165276D02*
X103225312Y-34260514D01*
X103225312Y-34260514D02*
X103272931Y-34450990D01*
X103272931Y-34450990D02*
X103272931Y-34593847D01*
X103272931Y-34593847D02*
X103225312Y-34784323D01*
X103225312Y-34784323D02*
X103177693Y-34879561D01*
X103177693Y-34879561D02*
X103082455Y-34974800D01*
X103082455Y-34974800D02*
X102939598Y-35022419D01*
X102939598Y-35022419D02*
X102701503Y-35022419D01*
X101225312Y-36632363D02*
X100891979Y-36156172D01*
X100653884Y-36632363D02*
X100653884Y-35632363D01*
X100653884Y-35632363D02*
X101034836Y-35632363D01*
X101034836Y-35632363D02*
X101130074Y-35679982D01*
X101130074Y-35679982D02*
X101177693Y-35727601D01*
X101177693Y-35727601D02*
X101225312Y-35822839D01*
X101225312Y-35822839D02*
X101225312Y-35965696D01*
X101225312Y-35965696D02*
X101177693Y-36060934D01*
X101177693Y-36060934D02*
X101130074Y-36108553D01*
X101130074Y-36108553D02*
X101034836Y-36156172D01*
X101034836Y-36156172D02*
X100653884Y-36156172D01*
X101558646Y-35632363D02*
X102225312Y-36632363D01*
X102225312Y-35632363D02*
X101558646Y-36632363D01*
X100511027Y-37242307D02*
X101082455Y-37242307D01*
X100796741Y-38242307D02*
X100796741Y-37242307D01*
X101320551Y-37242307D02*
X101987217Y-38242307D01*
X101987217Y-37242307D02*
X101320551Y-38242307D01*
X100558646Y-38852251D02*
X101177693Y-38852251D01*
X101177693Y-38852251D02*
X100844360Y-39233203D01*
X100844360Y-39233203D02*
X100987217Y-39233203D01*
X100987217Y-39233203D02*
X101082455Y-39280822D01*
X101082455Y-39280822D02*
X101130074Y-39328441D01*
X101130074Y-39328441D02*
X101177693Y-39423679D01*
X101177693Y-39423679D02*
X101177693Y-39661774D01*
X101177693Y-39661774D02*
X101130074Y-39757012D01*
X101130074Y-39757012D02*
X101082455Y-39804632D01*
X101082455Y-39804632D02*
X100987217Y-39852251D01*
X100987217Y-39852251D02*
X100701503Y-39852251D01*
X100701503Y-39852251D02*
X100606265Y-39804632D01*
X100606265Y-39804632D02*
X100558646Y-39757012D01*
X101606265Y-39757012D02*
X101653884Y-39804632D01*
X101653884Y-39804632D02*
X101606265Y-39852251D01*
X101606265Y-39852251D02*
X101558646Y-39804632D01*
X101558646Y-39804632D02*
X101606265Y-39757012D01*
X101606265Y-39757012D02*
X101606265Y-39852251D01*
X101987217Y-38852251D02*
X102606264Y-38852251D01*
X102606264Y-38852251D02*
X102272931Y-39233203D01*
X102272931Y-39233203D02*
X102415788Y-39233203D01*
X102415788Y-39233203D02*
X102511026Y-39280822D01*
X102511026Y-39280822D02*
X102558645Y-39328441D01*
X102558645Y-39328441D02*
X102606264Y-39423679D01*
X102606264Y-39423679D02*
X102606264Y-39661774D01*
X102606264Y-39661774D02*
X102558645Y-39757012D01*
X102558645Y-39757012D02*
X102511026Y-39804632D01*
X102511026Y-39804632D02*
X102415788Y-39852251D01*
X102415788Y-39852251D02*
X102130074Y-39852251D01*
X102130074Y-39852251D02*
X102034836Y-39804632D01*
X102034836Y-39804632D02*
X101987217Y-39757012D01*
X102891979Y-38852251D02*
X103225312Y-39852251D01*
X103225312Y-39852251D02*
X103558645Y-38852251D01*
X92452381Y-32437419D02*
X92452381Y-33246942D01*
X92452381Y-33246942D02*
X92500000Y-33342180D01*
X92500000Y-33342180D02*
X92547619Y-33389800D01*
X92547619Y-33389800D02*
X92642857Y-33437419D01*
X92642857Y-33437419D02*
X92833333Y-33437419D01*
X92833333Y-33437419D02*
X92928571Y-33389800D01*
X92928571Y-33389800D02*
X92976190Y-33342180D01*
X92976190Y-33342180D02*
X93023809Y-33246942D01*
X93023809Y-33246942D02*
X93023809Y-32437419D01*
X93452381Y-33389800D02*
X93595238Y-33437419D01*
X93595238Y-33437419D02*
X93833333Y-33437419D01*
X93833333Y-33437419D02*
X93928571Y-33389800D01*
X93928571Y-33389800D02*
X93976190Y-33342180D01*
X93976190Y-33342180D02*
X94023809Y-33246942D01*
X94023809Y-33246942D02*
X94023809Y-33151704D01*
X94023809Y-33151704D02*
X93976190Y-33056466D01*
X93976190Y-33056466D02*
X93928571Y-33008847D01*
X93928571Y-33008847D02*
X93833333Y-32961228D01*
X93833333Y-32961228D02*
X93642857Y-32913609D01*
X93642857Y-32913609D02*
X93547619Y-32865990D01*
X93547619Y-32865990D02*
X93500000Y-32818371D01*
X93500000Y-32818371D02*
X93452381Y-32723133D01*
X93452381Y-32723133D02*
X93452381Y-32627895D01*
X93452381Y-32627895D02*
X93500000Y-32532657D01*
X93500000Y-32532657D02*
X93547619Y-32485038D01*
X93547619Y-32485038D02*
X93642857Y-32437419D01*
X93642857Y-32437419D02*
X93880952Y-32437419D01*
X93880952Y-32437419D02*
X94023809Y-32485038D01*
X94404762Y-33151704D02*
X94880952Y-33151704D01*
X94309524Y-33437419D02*
X94642857Y-32437419D01*
X94642857Y-32437419D02*
X94976190Y-33437419D01*
X95880952Y-33437419D02*
X95547619Y-32961228D01*
X95309524Y-33437419D02*
X95309524Y-32437419D01*
X95309524Y-32437419D02*
X95690476Y-32437419D01*
X95690476Y-32437419D02*
X95785714Y-32485038D01*
X95785714Y-32485038D02*
X95833333Y-32532657D01*
X95833333Y-32532657D02*
X95880952Y-32627895D01*
X95880952Y-32627895D02*
X95880952Y-32770752D01*
X95880952Y-32770752D02*
X95833333Y-32865990D01*
X95833333Y-32865990D02*
X95785714Y-32913609D01*
X95785714Y-32913609D02*
X95690476Y-32961228D01*
X95690476Y-32961228D02*
X95309524Y-32961228D01*
X96166667Y-32437419D02*
X96738095Y-32437419D01*
X96452381Y-33437419D02*
X96452381Y-32437419D01*
X96976191Y-32437419D02*
X97595238Y-32437419D01*
X97595238Y-32437419D02*
X97261905Y-32818371D01*
X97261905Y-32818371D02*
X97404762Y-32818371D01*
X97404762Y-32818371D02*
X97500000Y-32865990D01*
X97500000Y-32865990D02*
X97547619Y-32913609D01*
X97547619Y-32913609D02*
X97595238Y-33008847D01*
X97595238Y-33008847D02*
X97595238Y-33246942D01*
X97595238Y-33246942D02*
X97547619Y-33342180D01*
X97547619Y-33342180D02*
X97500000Y-33389800D01*
X97500000Y-33389800D02*
X97404762Y-33437419D01*
X97404762Y-33437419D02*
X97119048Y-33437419D01*
X97119048Y-33437419D02*
X97023810Y-33389800D01*
X97023810Y-33389800D02*
X96976191Y-33342180D01*
D11*
X77661905Y-25254819D02*
X77661905Y-24254819D01*
X77661905Y-24254819D02*
X78042857Y-24254819D01*
X78042857Y-24254819D02*
X78138095Y-24302438D01*
X78138095Y-24302438D02*
X78185714Y-24350057D01*
X78185714Y-24350057D02*
X78233333Y-24445295D01*
X78233333Y-24445295D02*
X78233333Y-24588152D01*
X78233333Y-24588152D02*
X78185714Y-24683390D01*
X78185714Y-24683390D02*
X78138095Y-24731009D01*
X78138095Y-24731009D02*
X78042857Y-24778628D01*
X78042857Y-24778628D02*
X77661905Y-24778628D01*
X79185714Y-25254819D02*
X78614286Y-25254819D01*
X78900000Y-25254819D02*
X78900000Y-24254819D01*
X78900000Y-24254819D02*
X78804762Y-24397676D01*
X78804762Y-24397676D02*
X78709524Y-24492914D01*
X78709524Y-24492914D02*
X78614286Y-24540533D01*
X97016666Y-40134819D02*
X97016666Y-40849104D01*
X97016666Y-40849104D02*
X96969047Y-40991961D01*
X96969047Y-40991961D02*
X96873809Y-41087200D01*
X96873809Y-41087200D02*
X96730952Y-41134819D01*
X96730952Y-41134819D02*
X96635714Y-41134819D01*
X97921428Y-40468152D02*
X97921428Y-41134819D01*
X97683333Y-40087200D02*
X97445238Y-40801485D01*
X97445238Y-40801485D02*
X98064285Y-40801485D01*
X56516666Y-38504819D02*
X56516666Y-39219104D01*
X56516666Y-39219104D02*
X56469047Y-39361961D01*
X56469047Y-39361961D02*
X56373809Y-39457200D01*
X56373809Y-39457200D02*
X56230952Y-39504819D01*
X56230952Y-39504819D02*
X56135714Y-39504819D01*
X56897619Y-38504819D02*
X57516666Y-38504819D01*
X57516666Y-38504819D02*
X57183333Y-38885771D01*
X57183333Y-38885771D02*
X57326190Y-38885771D01*
X57326190Y-38885771D02*
X57421428Y-38933390D01*
X57421428Y-38933390D02*
X57469047Y-38981009D01*
X57469047Y-38981009D02*
X57516666Y-39076247D01*
X57516666Y-39076247D02*
X57516666Y-39314342D01*
X57516666Y-39314342D02*
X57469047Y-39409580D01*
X57469047Y-39409580D02*
X57421428Y-39457200D01*
X57421428Y-39457200D02*
X57326190Y-39504819D01*
X57326190Y-39504819D02*
X57040476Y-39504819D01*
X57040476Y-39504819D02*
X56945238Y-39457200D01*
X56945238Y-39457200D02*
X56897619Y-39409580D01*
X58616666Y-30754819D02*
X58616666Y-31469104D01*
X58616666Y-31469104D02*
X58569047Y-31611961D01*
X58569047Y-31611961D02*
X58473809Y-31707200D01*
X58473809Y-31707200D02*
X58330952Y-31754819D01*
X58330952Y-31754819D02*
X58235714Y-31754819D01*
X59045238Y-30850057D02*
X59092857Y-30802438D01*
X59092857Y-30802438D02*
X59188095Y-30754819D01*
X59188095Y-30754819D02*
X59426190Y-30754819D01*
X59426190Y-30754819D02*
X59521428Y-30802438D01*
X59521428Y-30802438D02*
X59569047Y-30850057D01*
X59569047Y-30850057D02*
X59616666Y-30945295D01*
X59616666Y-30945295D02*
X59616666Y-31040533D01*
X59616666Y-31040533D02*
X59569047Y-31183390D01*
X59569047Y-31183390D02*
X58997619Y-31754819D01*
X58997619Y-31754819D02*
X59616666Y-31754819D01*
X32583333Y-42524819D02*
X32250000Y-42048628D01*
X32011905Y-42524819D02*
X32011905Y-41524819D01*
X32011905Y-41524819D02*
X32392857Y-41524819D01*
X32392857Y-41524819D02*
X32488095Y-41572438D01*
X32488095Y-41572438D02*
X32535714Y-41620057D01*
X32535714Y-41620057D02*
X32583333Y-41715295D01*
X32583333Y-41715295D02*
X32583333Y-41858152D01*
X32583333Y-41858152D02*
X32535714Y-41953390D01*
X32535714Y-41953390D02*
X32488095Y-42001009D01*
X32488095Y-42001009D02*
X32392857Y-42048628D01*
X32392857Y-42048628D02*
X32011905Y-42048628D01*
X32916667Y-41524819D02*
X33535714Y-41524819D01*
X33535714Y-41524819D02*
X33202381Y-41905771D01*
X33202381Y-41905771D02*
X33345238Y-41905771D01*
X33345238Y-41905771D02*
X33440476Y-41953390D01*
X33440476Y-41953390D02*
X33488095Y-42001009D01*
X33488095Y-42001009D02*
X33535714Y-42096247D01*
X33535714Y-42096247D02*
X33535714Y-42334342D01*
X33535714Y-42334342D02*
X33488095Y-42429580D01*
X33488095Y-42429580D02*
X33440476Y-42477200D01*
X33440476Y-42477200D02*
X33345238Y-42524819D01*
X33345238Y-42524819D02*
X33059524Y-42524819D01*
X33059524Y-42524819D02*
X32964286Y-42477200D01*
X32964286Y-42477200D02*
X32916667Y-42429580D01*
X58357142Y-42204819D02*
X58023809Y-41728628D01*
X57785714Y-42204819D02*
X57785714Y-41204819D01*
X57785714Y-41204819D02*
X58166666Y-41204819D01*
X58166666Y-41204819D02*
X58261904Y-41252438D01*
X58261904Y-41252438D02*
X58309523Y-41300057D01*
X58309523Y-41300057D02*
X58357142Y-41395295D01*
X58357142Y-41395295D02*
X58357142Y-41538152D01*
X58357142Y-41538152D02*
X58309523Y-41633390D01*
X58309523Y-41633390D02*
X58261904Y-41681009D01*
X58261904Y-41681009D02*
X58166666Y-41728628D01*
X58166666Y-41728628D02*
X57785714Y-41728628D01*
X59309523Y-42204819D02*
X58738095Y-42204819D01*
X59023809Y-42204819D02*
X59023809Y-41204819D01*
X59023809Y-41204819D02*
X58928571Y-41347676D01*
X58928571Y-41347676D02*
X58833333Y-41442914D01*
X58833333Y-41442914D02*
X58738095Y-41490533D01*
X59928571Y-41204819D02*
X60023809Y-41204819D01*
X60023809Y-41204819D02*
X60119047Y-41252438D01*
X60119047Y-41252438D02*
X60166666Y-41300057D01*
X60166666Y-41300057D02*
X60214285Y-41395295D01*
X60214285Y-41395295D02*
X60261904Y-41585771D01*
X60261904Y-41585771D02*
X60261904Y-41823866D01*
X60261904Y-41823866D02*
X60214285Y-42014342D01*
X60214285Y-42014342D02*
X60166666Y-42109580D01*
X60166666Y-42109580D02*
X60119047Y-42157200D01*
X60119047Y-42157200D02*
X60023809Y-42204819D01*
X60023809Y-42204819D02*
X59928571Y-42204819D01*
X59928571Y-42204819D02*
X59833333Y-42157200D01*
X59833333Y-42157200D02*
X59785714Y-42109580D01*
X59785714Y-42109580D02*
X59738095Y-42014342D01*
X59738095Y-42014342D02*
X59690476Y-41823866D01*
X59690476Y-41823866D02*
X59690476Y-41585771D01*
X59690476Y-41585771D02*
X59738095Y-41395295D01*
X59738095Y-41395295D02*
X59785714Y-41300057D01*
X59785714Y-41300057D02*
X59833333Y-41252438D01*
X59833333Y-41252438D02*
X59928571Y-41204819D01*
X42166666Y-24204819D02*
X42166666Y-24919104D01*
X42166666Y-24919104D02*
X42119047Y-25061961D01*
X42119047Y-25061961D02*
X42023809Y-25157200D01*
X42023809Y-25157200D02*
X41880952Y-25204819D01*
X41880952Y-25204819D02*
X41785714Y-25204819D01*
X43166666Y-25204819D02*
X42595238Y-25204819D01*
X42880952Y-25204819D02*
X42880952Y-24204819D01*
X42880952Y-24204819D02*
X42785714Y-24347676D01*
X42785714Y-24347676D02*
X42690476Y-24442914D01*
X42690476Y-24442914D02*
X42595238Y-24490533D01*
X65988095Y-38954819D02*
X65988095Y-39764342D01*
X65988095Y-39764342D02*
X66035714Y-39859580D01*
X66035714Y-39859580D02*
X66083333Y-39907200D01*
X66083333Y-39907200D02*
X66178571Y-39954819D01*
X66178571Y-39954819D02*
X66369047Y-39954819D01*
X66369047Y-39954819D02*
X66464285Y-39907200D01*
X66464285Y-39907200D02*
X66511904Y-39859580D01*
X66511904Y-39859580D02*
X66559523Y-39764342D01*
X66559523Y-39764342D02*
X66559523Y-38954819D01*
X66940476Y-38954819D02*
X67559523Y-38954819D01*
X67559523Y-38954819D02*
X67226190Y-39335771D01*
X67226190Y-39335771D02*
X67369047Y-39335771D01*
X67369047Y-39335771D02*
X67464285Y-39383390D01*
X67464285Y-39383390D02*
X67511904Y-39431009D01*
X67511904Y-39431009D02*
X67559523Y-39526247D01*
X67559523Y-39526247D02*
X67559523Y-39764342D01*
X67559523Y-39764342D02*
X67511904Y-39859580D01*
X67511904Y-39859580D02*
X67464285Y-39907200D01*
X67464285Y-39907200D02*
X67369047Y-39954819D01*
X67369047Y-39954819D02*
X67083333Y-39954819D01*
X67083333Y-39954819D02*
X66988095Y-39907200D01*
X66988095Y-39907200D02*
X66940476Y-39859580D01*
X26761905Y-52704819D02*
X26761905Y-51704819D01*
X26761905Y-51704819D02*
X27000000Y-51704819D01*
X27000000Y-51704819D02*
X27142857Y-51752438D01*
X27142857Y-51752438D02*
X27238095Y-51847676D01*
X27238095Y-51847676D02*
X27285714Y-51942914D01*
X27285714Y-51942914D02*
X27333333Y-52133390D01*
X27333333Y-52133390D02*
X27333333Y-52276247D01*
X27333333Y-52276247D02*
X27285714Y-52466723D01*
X27285714Y-52466723D02*
X27238095Y-52561961D01*
X27238095Y-52561961D02*
X27142857Y-52657200D01*
X27142857Y-52657200D02*
X27000000Y-52704819D01*
X27000000Y-52704819D02*
X26761905Y-52704819D01*
X27666667Y-51704819D02*
X28285714Y-51704819D01*
X28285714Y-51704819D02*
X27952381Y-52085771D01*
X27952381Y-52085771D02*
X28095238Y-52085771D01*
X28095238Y-52085771D02*
X28190476Y-52133390D01*
X28190476Y-52133390D02*
X28238095Y-52181009D01*
X28238095Y-52181009D02*
X28285714Y-52276247D01*
X28285714Y-52276247D02*
X28285714Y-52514342D01*
X28285714Y-52514342D02*
X28238095Y-52609580D01*
X28238095Y-52609580D02*
X28190476Y-52657200D01*
X28190476Y-52657200D02*
X28095238Y-52704819D01*
X28095238Y-52704819D02*
X27809524Y-52704819D01*
X27809524Y-52704819D02*
X27714286Y-52657200D01*
X27714286Y-52657200D02*
X27666667Y-52609580D01*
X44833333Y-47954819D02*
X44500000Y-47478628D01*
X44261905Y-47954819D02*
X44261905Y-46954819D01*
X44261905Y-46954819D02*
X44642857Y-46954819D01*
X44642857Y-46954819D02*
X44738095Y-47002438D01*
X44738095Y-47002438D02*
X44785714Y-47050057D01*
X44785714Y-47050057D02*
X44833333Y-47145295D01*
X44833333Y-47145295D02*
X44833333Y-47288152D01*
X44833333Y-47288152D02*
X44785714Y-47383390D01*
X44785714Y-47383390D02*
X44738095Y-47431009D01*
X44738095Y-47431009D02*
X44642857Y-47478628D01*
X44642857Y-47478628D02*
X44261905Y-47478628D01*
X45738095Y-46954819D02*
X45261905Y-46954819D01*
X45261905Y-46954819D02*
X45214286Y-47431009D01*
X45214286Y-47431009D02*
X45261905Y-47383390D01*
X45261905Y-47383390D02*
X45357143Y-47335771D01*
X45357143Y-47335771D02*
X45595238Y-47335771D01*
X45595238Y-47335771D02*
X45690476Y-47383390D01*
X45690476Y-47383390D02*
X45738095Y-47431009D01*
X45738095Y-47431009D02*
X45785714Y-47526247D01*
X45785714Y-47526247D02*
X45785714Y-47764342D01*
X45785714Y-47764342D02*
X45738095Y-47859580D01*
X45738095Y-47859580D02*
X45690476Y-47907200D01*
X45690476Y-47907200D02*
X45595238Y-47954819D01*
X45595238Y-47954819D02*
X45357143Y-47954819D01*
X45357143Y-47954819D02*
X45261905Y-47907200D01*
X45261905Y-47907200D02*
X45214286Y-47859580D01*
X80333333Y-33859580D02*
X80285714Y-33907200D01*
X80285714Y-33907200D02*
X80142857Y-33954819D01*
X80142857Y-33954819D02*
X80047619Y-33954819D01*
X80047619Y-33954819D02*
X79904762Y-33907200D01*
X79904762Y-33907200D02*
X79809524Y-33811961D01*
X79809524Y-33811961D02*
X79761905Y-33716723D01*
X79761905Y-33716723D02*
X79714286Y-33526247D01*
X79714286Y-33526247D02*
X79714286Y-33383390D01*
X79714286Y-33383390D02*
X79761905Y-33192914D01*
X79761905Y-33192914D02*
X79809524Y-33097676D01*
X79809524Y-33097676D02*
X79904762Y-33002438D01*
X79904762Y-33002438D02*
X80047619Y-32954819D01*
X80047619Y-32954819D02*
X80142857Y-32954819D01*
X80142857Y-32954819D02*
X80285714Y-33002438D01*
X80285714Y-33002438D02*
X80333333Y-33050057D01*
X80904762Y-33383390D02*
X80809524Y-33335771D01*
X80809524Y-33335771D02*
X80761905Y-33288152D01*
X80761905Y-33288152D02*
X80714286Y-33192914D01*
X80714286Y-33192914D02*
X80714286Y-33145295D01*
X80714286Y-33145295D02*
X80761905Y-33050057D01*
X80761905Y-33050057D02*
X80809524Y-33002438D01*
X80809524Y-33002438D02*
X80904762Y-32954819D01*
X80904762Y-32954819D02*
X81095238Y-32954819D01*
X81095238Y-32954819D02*
X81190476Y-33002438D01*
X81190476Y-33002438D02*
X81238095Y-33050057D01*
X81238095Y-33050057D02*
X81285714Y-33145295D01*
X81285714Y-33145295D02*
X81285714Y-33192914D01*
X81285714Y-33192914D02*
X81238095Y-33288152D01*
X81238095Y-33288152D02*
X81190476Y-33335771D01*
X81190476Y-33335771D02*
X81095238Y-33383390D01*
X81095238Y-33383390D02*
X80904762Y-33383390D01*
X80904762Y-33383390D02*
X80809524Y-33431009D01*
X80809524Y-33431009D02*
X80761905Y-33478628D01*
X80761905Y-33478628D02*
X80714286Y-33573866D01*
X80714286Y-33573866D02*
X80714286Y-33764342D01*
X80714286Y-33764342D02*
X80761905Y-33859580D01*
X80761905Y-33859580D02*
X80809524Y-33907200D01*
X80809524Y-33907200D02*
X80904762Y-33954819D01*
X80904762Y-33954819D02*
X81095238Y-33954819D01*
X81095238Y-33954819D02*
X81190476Y-33907200D01*
X81190476Y-33907200D02*
X81238095Y-33859580D01*
X81238095Y-33859580D02*
X81285714Y-33764342D01*
X81285714Y-33764342D02*
X81285714Y-33573866D01*
X81285714Y-33573866D02*
X81238095Y-33478628D01*
X81238095Y-33478628D02*
X81190476Y-33431009D01*
X81190476Y-33431009D02*
X81095238Y-33383390D01*
X68716562Y-31359580D02*
X68668943Y-31407200D01*
X68668943Y-31407200D02*
X68526086Y-31454819D01*
X68526086Y-31454819D02*
X68430848Y-31454819D01*
X68430848Y-31454819D02*
X68287991Y-31407200D01*
X68287991Y-31407200D02*
X68192753Y-31311961D01*
X68192753Y-31311961D02*
X68145134Y-31216723D01*
X68145134Y-31216723D02*
X68097515Y-31026247D01*
X68097515Y-31026247D02*
X68097515Y-30883390D01*
X68097515Y-30883390D02*
X68145134Y-30692914D01*
X68145134Y-30692914D02*
X68192753Y-30597676D01*
X68192753Y-30597676D02*
X68287991Y-30502438D01*
X68287991Y-30502438D02*
X68430848Y-30454819D01*
X68430848Y-30454819D02*
X68526086Y-30454819D01*
X68526086Y-30454819D02*
X68668943Y-30502438D01*
X68668943Y-30502438D02*
X68716562Y-30550057D01*
X69668943Y-31454819D02*
X69097515Y-31454819D01*
X69383229Y-31454819D02*
X69383229Y-30454819D01*
X69383229Y-30454819D02*
X69287991Y-30597676D01*
X69287991Y-30597676D02*
X69192753Y-30692914D01*
X69192753Y-30692914D02*
X69097515Y-30740533D01*
X70526086Y-30454819D02*
X70335610Y-30454819D01*
X70335610Y-30454819D02*
X70240372Y-30502438D01*
X70240372Y-30502438D02*
X70192753Y-30550057D01*
X70192753Y-30550057D02*
X70097515Y-30692914D01*
X70097515Y-30692914D02*
X70049896Y-30883390D01*
X70049896Y-30883390D02*
X70049896Y-31264342D01*
X70049896Y-31264342D02*
X70097515Y-31359580D01*
X70097515Y-31359580D02*
X70145134Y-31407200D01*
X70145134Y-31407200D02*
X70240372Y-31454819D01*
X70240372Y-31454819D02*
X70430848Y-31454819D01*
X70430848Y-31454819D02*
X70526086Y-31407200D01*
X70526086Y-31407200D02*
X70573705Y-31359580D01*
X70573705Y-31359580D02*
X70621324Y-31264342D01*
X70621324Y-31264342D02*
X70621324Y-31026247D01*
X70621324Y-31026247D02*
X70573705Y-30931009D01*
X70573705Y-30931009D02*
X70526086Y-30883390D01*
X70526086Y-30883390D02*
X70430848Y-30835771D01*
X70430848Y-30835771D02*
X70240372Y-30835771D01*
X70240372Y-30835771D02*
X70145134Y-30883390D01*
X70145134Y-30883390D02*
X70097515Y-30931009D01*
X70097515Y-30931009D02*
X70049896Y-31026247D01*
X35083333Y-50609580D02*
X35035714Y-50657200D01*
X35035714Y-50657200D02*
X34892857Y-50704819D01*
X34892857Y-50704819D02*
X34797619Y-50704819D01*
X34797619Y-50704819D02*
X34654762Y-50657200D01*
X34654762Y-50657200D02*
X34559524Y-50561961D01*
X34559524Y-50561961D02*
X34511905Y-50466723D01*
X34511905Y-50466723D02*
X34464286Y-50276247D01*
X34464286Y-50276247D02*
X34464286Y-50133390D01*
X34464286Y-50133390D02*
X34511905Y-49942914D01*
X34511905Y-49942914D02*
X34559524Y-49847676D01*
X34559524Y-49847676D02*
X34654762Y-49752438D01*
X34654762Y-49752438D02*
X34797619Y-49704819D01*
X34797619Y-49704819D02*
X34892857Y-49704819D01*
X34892857Y-49704819D02*
X35035714Y-49752438D01*
X35035714Y-49752438D02*
X35083333Y-49800057D01*
X36035714Y-50704819D02*
X35464286Y-50704819D01*
X35750000Y-50704819D02*
X35750000Y-49704819D01*
X35750000Y-49704819D02*
X35654762Y-49847676D01*
X35654762Y-49847676D02*
X35559524Y-49942914D01*
X35559524Y-49942914D02*
X35464286Y-49990533D01*
X41358333Y-52009580D02*
X41310714Y-52057200D01*
X41310714Y-52057200D02*
X41167857Y-52104819D01*
X41167857Y-52104819D02*
X41072619Y-52104819D01*
X41072619Y-52104819D02*
X40929762Y-52057200D01*
X40929762Y-52057200D02*
X40834524Y-51961961D01*
X40834524Y-51961961D02*
X40786905Y-51866723D01*
X40786905Y-51866723D02*
X40739286Y-51676247D01*
X40739286Y-51676247D02*
X40739286Y-51533390D01*
X40739286Y-51533390D02*
X40786905Y-51342914D01*
X40786905Y-51342914D02*
X40834524Y-51247676D01*
X40834524Y-51247676D02*
X40929762Y-51152438D01*
X40929762Y-51152438D02*
X41072619Y-51104819D01*
X41072619Y-51104819D02*
X41167857Y-51104819D01*
X41167857Y-51104819D02*
X41310714Y-51152438D01*
X41310714Y-51152438D02*
X41358333Y-51200057D01*
X41739286Y-51200057D02*
X41786905Y-51152438D01*
X41786905Y-51152438D02*
X41882143Y-51104819D01*
X41882143Y-51104819D02*
X42120238Y-51104819D01*
X42120238Y-51104819D02*
X42215476Y-51152438D01*
X42215476Y-51152438D02*
X42263095Y-51200057D01*
X42263095Y-51200057D02*
X42310714Y-51295295D01*
X42310714Y-51295295D02*
X42310714Y-51390533D01*
X42310714Y-51390533D02*
X42263095Y-51533390D01*
X42263095Y-51533390D02*
X41691667Y-52104819D01*
X41691667Y-52104819D02*
X42310714Y-52104819D01*
X71583333Y-48954580D02*
X71535714Y-49002200D01*
X71535714Y-49002200D02*
X71392857Y-49049819D01*
X71392857Y-49049819D02*
X71297619Y-49049819D01*
X71297619Y-49049819D02*
X71154762Y-49002200D01*
X71154762Y-49002200D02*
X71059524Y-48906961D01*
X71059524Y-48906961D02*
X71011905Y-48811723D01*
X71011905Y-48811723D02*
X70964286Y-48621247D01*
X70964286Y-48621247D02*
X70964286Y-48478390D01*
X70964286Y-48478390D02*
X71011905Y-48287914D01*
X71011905Y-48287914D02*
X71059524Y-48192676D01*
X71059524Y-48192676D02*
X71154762Y-48097438D01*
X71154762Y-48097438D02*
X71297619Y-48049819D01*
X71297619Y-48049819D02*
X71392857Y-48049819D01*
X71392857Y-48049819D02*
X71535714Y-48097438D01*
X71535714Y-48097438D02*
X71583333Y-48145057D01*
X72440476Y-48049819D02*
X72250000Y-48049819D01*
X72250000Y-48049819D02*
X72154762Y-48097438D01*
X72154762Y-48097438D02*
X72107143Y-48145057D01*
X72107143Y-48145057D02*
X72011905Y-48287914D01*
X72011905Y-48287914D02*
X71964286Y-48478390D01*
X71964286Y-48478390D02*
X71964286Y-48859342D01*
X71964286Y-48859342D02*
X72011905Y-48954580D01*
X72011905Y-48954580D02*
X72059524Y-49002200D01*
X72059524Y-49002200D02*
X72154762Y-49049819D01*
X72154762Y-49049819D02*
X72345238Y-49049819D01*
X72345238Y-49049819D02*
X72440476Y-49002200D01*
X72440476Y-49002200D02*
X72488095Y-48954580D01*
X72488095Y-48954580D02*
X72535714Y-48859342D01*
X72535714Y-48859342D02*
X72535714Y-48621247D01*
X72535714Y-48621247D02*
X72488095Y-48526009D01*
X72488095Y-48526009D02*
X72440476Y-48478390D01*
X72440476Y-48478390D02*
X72345238Y-48430771D01*
X72345238Y-48430771D02*
X72154762Y-48430771D01*
X72154762Y-48430771D02*
X72059524Y-48478390D01*
X72059524Y-48478390D02*
X72011905Y-48526009D01*
X72011905Y-48526009D02*
X71964286Y-48621247D01*
X58593333Y-36784819D02*
X58260000Y-36308628D01*
X58021905Y-36784819D02*
X58021905Y-35784819D01*
X58021905Y-35784819D02*
X58402857Y-35784819D01*
X58402857Y-35784819D02*
X58498095Y-35832438D01*
X58498095Y-35832438D02*
X58545714Y-35880057D01*
X58545714Y-35880057D02*
X58593333Y-35975295D01*
X58593333Y-35975295D02*
X58593333Y-36118152D01*
X58593333Y-36118152D02*
X58545714Y-36213390D01*
X58545714Y-36213390D02*
X58498095Y-36261009D01*
X58498095Y-36261009D02*
X58402857Y-36308628D01*
X58402857Y-36308628D02*
X58021905Y-36308628D01*
X59069524Y-36784819D02*
X59260000Y-36784819D01*
X59260000Y-36784819D02*
X59355238Y-36737200D01*
X59355238Y-36737200D02*
X59402857Y-36689580D01*
X59402857Y-36689580D02*
X59498095Y-36546723D01*
X59498095Y-36546723D02*
X59545714Y-36356247D01*
X59545714Y-36356247D02*
X59545714Y-35975295D01*
X59545714Y-35975295D02*
X59498095Y-35880057D01*
X59498095Y-35880057D02*
X59450476Y-35832438D01*
X59450476Y-35832438D02*
X59355238Y-35784819D01*
X59355238Y-35784819D02*
X59164762Y-35784819D01*
X59164762Y-35784819D02*
X59069524Y-35832438D01*
X59069524Y-35832438D02*
X59021905Y-35880057D01*
X59021905Y-35880057D02*
X58974286Y-35975295D01*
X58974286Y-35975295D02*
X58974286Y-36213390D01*
X58974286Y-36213390D02*
X59021905Y-36308628D01*
X59021905Y-36308628D02*
X59069524Y-36356247D01*
X59069524Y-36356247D02*
X59164762Y-36403866D01*
X59164762Y-36403866D02*
X59355238Y-36403866D01*
X59355238Y-36403866D02*
X59450476Y-36356247D01*
X59450476Y-36356247D02*
X59498095Y-36308628D01*
X59498095Y-36308628D02*
X59545714Y-36213390D01*
X39833333Y-46204819D02*
X39500000Y-45728628D01*
X39261905Y-46204819D02*
X39261905Y-45204819D01*
X39261905Y-45204819D02*
X39642857Y-45204819D01*
X39642857Y-45204819D02*
X39738095Y-45252438D01*
X39738095Y-45252438D02*
X39785714Y-45300057D01*
X39785714Y-45300057D02*
X39833333Y-45395295D01*
X39833333Y-45395295D02*
X39833333Y-45538152D01*
X39833333Y-45538152D02*
X39785714Y-45633390D01*
X39785714Y-45633390D02*
X39738095Y-45681009D01*
X39738095Y-45681009D02*
X39642857Y-45728628D01*
X39642857Y-45728628D02*
X39261905Y-45728628D01*
X40690476Y-45538152D02*
X40690476Y-46204819D01*
X40452381Y-45157200D02*
X40214286Y-45871485D01*
X40214286Y-45871485D02*
X40833333Y-45871485D01*
X32666666Y-37681009D02*
X32333333Y-37681009D01*
X32333333Y-38204819D02*
X32333333Y-37204819D01*
X32333333Y-37204819D02*
X32809523Y-37204819D01*
X33523809Y-37681009D02*
X33666666Y-37728628D01*
X33666666Y-37728628D02*
X33714285Y-37776247D01*
X33714285Y-37776247D02*
X33761904Y-37871485D01*
X33761904Y-37871485D02*
X33761904Y-38014342D01*
X33761904Y-38014342D02*
X33714285Y-38109580D01*
X33714285Y-38109580D02*
X33666666Y-38157200D01*
X33666666Y-38157200D02*
X33571428Y-38204819D01*
X33571428Y-38204819D02*
X33190476Y-38204819D01*
X33190476Y-38204819D02*
X33190476Y-37204819D01*
X33190476Y-37204819D02*
X33523809Y-37204819D01*
X33523809Y-37204819D02*
X33619047Y-37252438D01*
X33619047Y-37252438D02*
X33666666Y-37300057D01*
X33666666Y-37300057D02*
X33714285Y-37395295D01*
X33714285Y-37395295D02*
X33714285Y-37490533D01*
X33714285Y-37490533D02*
X33666666Y-37585771D01*
X33666666Y-37585771D02*
X33619047Y-37633390D01*
X33619047Y-37633390D02*
X33523809Y-37681009D01*
X33523809Y-37681009D02*
X33190476Y-37681009D01*
X34714285Y-38204819D02*
X34142857Y-38204819D01*
X34428571Y-38204819D02*
X34428571Y-37204819D01*
X34428571Y-37204819D02*
X34333333Y-37347676D01*
X34333333Y-37347676D02*
X34238095Y-37442914D01*
X34238095Y-37442914D02*
X34142857Y-37490533D01*
X81416667Y-25157200D02*
X81559524Y-25204819D01*
X81559524Y-25204819D02*
X81797619Y-25204819D01*
X81797619Y-25204819D02*
X81892857Y-25157200D01*
X81892857Y-25157200D02*
X81940476Y-25109580D01*
X81940476Y-25109580D02*
X81988095Y-25014342D01*
X81988095Y-25014342D02*
X81988095Y-24919104D01*
X81988095Y-24919104D02*
X81940476Y-24823866D01*
X81940476Y-24823866D02*
X81892857Y-24776247D01*
X81892857Y-24776247D02*
X81797619Y-24728628D01*
X81797619Y-24728628D02*
X81607143Y-24681009D01*
X81607143Y-24681009D02*
X81511905Y-24633390D01*
X81511905Y-24633390D02*
X81464286Y-24585771D01*
X81464286Y-24585771D02*
X81416667Y-24490533D01*
X81416667Y-24490533D02*
X81416667Y-24395295D01*
X81416667Y-24395295D02*
X81464286Y-24300057D01*
X81464286Y-24300057D02*
X81511905Y-24252438D01*
X81511905Y-24252438D02*
X81607143Y-24204819D01*
X81607143Y-24204819D02*
X81845238Y-24204819D01*
X81845238Y-24204819D02*
X81988095Y-24252438D01*
X82321429Y-24204819D02*
X82559524Y-25204819D01*
X82559524Y-25204819D02*
X82750000Y-24490533D01*
X82750000Y-24490533D02*
X82940476Y-25204819D01*
X82940476Y-25204819D02*
X83178572Y-24204819D01*
X84083333Y-25204819D02*
X83511905Y-25204819D01*
X83797619Y-25204819D02*
X83797619Y-24204819D01*
X83797619Y-24204819D02*
X83702381Y-24347676D01*
X83702381Y-24347676D02*
X83607143Y-24442914D01*
X83607143Y-24442914D02*
X83511905Y-24490533D01*
X102261905Y-48204819D02*
X102261905Y-47204819D01*
X102261905Y-47204819D02*
X102500000Y-47204819D01*
X102500000Y-47204819D02*
X102642857Y-47252438D01*
X102642857Y-47252438D02*
X102738095Y-47347676D01*
X102738095Y-47347676D02*
X102785714Y-47442914D01*
X102785714Y-47442914D02*
X102833333Y-47633390D01*
X102833333Y-47633390D02*
X102833333Y-47776247D01*
X102833333Y-47776247D02*
X102785714Y-47966723D01*
X102785714Y-47966723D02*
X102738095Y-48061961D01*
X102738095Y-48061961D02*
X102642857Y-48157200D01*
X102642857Y-48157200D02*
X102500000Y-48204819D01*
X102500000Y-48204819D02*
X102261905Y-48204819D01*
X103690476Y-47538152D02*
X103690476Y-48204819D01*
X103452381Y-47157200D02*
X103214286Y-47871485D01*
X103214286Y-47871485D02*
X103833333Y-47871485D01*
X78107142Y-48859580D02*
X78059523Y-48907200D01*
X78059523Y-48907200D02*
X77916666Y-48954819D01*
X77916666Y-48954819D02*
X77821428Y-48954819D01*
X77821428Y-48954819D02*
X77678571Y-48907200D01*
X77678571Y-48907200D02*
X77583333Y-48811961D01*
X77583333Y-48811961D02*
X77535714Y-48716723D01*
X77535714Y-48716723D02*
X77488095Y-48526247D01*
X77488095Y-48526247D02*
X77488095Y-48383390D01*
X77488095Y-48383390D02*
X77535714Y-48192914D01*
X77535714Y-48192914D02*
X77583333Y-48097676D01*
X77583333Y-48097676D02*
X77678571Y-48002438D01*
X77678571Y-48002438D02*
X77821428Y-47954819D01*
X77821428Y-47954819D02*
X77916666Y-47954819D01*
X77916666Y-47954819D02*
X78059523Y-48002438D01*
X78059523Y-48002438D02*
X78107142Y-48050057D01*
X79059523Y-48954819D02*
X78488095Y-48954819D01*
X78773809Y-48954819D02*
X78773809Y-47954819D01*
X78773809Y-47954819D02*
X78678571Y-48097676D01*
X78678571Y-48097676D02*
X78583333Y-48192914D01*
X78583333Y-48192914D02*
X78488095Y-48240533D01*
X79440476Y-48050057D02*
X79488095Y-48002438D01*
X79488095Y-48002438D02*
X79583333Y-47954819D01*
X79583333Y-47954819D02*
X79821428Y-47954819D01*
X79821428Y-47954819D02*
X79916666Y-48002438D01*
X79916666Y-48002438D02*
X79964285Y-48050057D01*
X79964285Y-48050057D02*
X80011904Y-48145295D01*
X80011904Y-48145295D02*
X80011904Y-48240533D01*
X80011904Y-48240533D02*
X79964285Y-48383390D01*
X79964285Y-48383390D02*
X79392857Y-48954819D01*
X79392857Y-48954819D02*
X80011904Y-48954819D01*
X65607142Y-46609580D02*
X65559523Y-46657200D01*
X65559523Y-46657200D02*
X65416666Y-46704819D01*
X65416666Y-46704819D02*
X65321428Y-46704819D01*
X65321428Y-46704819D02*
X65178571Y-46657200D01*
X65178571Y-46657200D02*
X65083333Y-46561961D01*
X65083333Y-46561961D02*
X65035714Y-46466723D01*
X65035714Y-46466723D02*
X64988095Y-46276247D01*
X64988095Y-46276247D02*
X64988095Y-46133390D01*
X64988095Y-46133390D02*
X65035714Y-45942914D01*
X65035714Y-45942914D02*
X65083333Y-45847676D01*
X65083333Y-45847676D02*
X65178571Y-45752438D01*
X65178571Y-45752438D02*
X65321428Y-45704819D01*
X65321428Y-45704819D02*
X65416666Y-45704819D01*
X65416666Y-45704819D02*
X65559523Y-45752438D01*
X65559523Y-45752438D02*
X65607142Y-45800057D01*
X66559523Y-46704819D02*
X65988095Y-46704819D01*
X66273809Y-46704819D02*
X66273809Y-45704819D01*
X66273809Y-45704819D02*
X66178571Y-45847676D01*
X66178571Y-45847676D02*
X66083333Y-45942914D01*
X66083333Y-45942914D02*
X65988095Y-45990533D01*
X67178571Y-45704819D02*
X67273809Y-45704819D01*
X67273809Y-45704819D02*
X67369047Y-45752438D01*
X67369047Y-45752438D02*
X67416666Y-45800057D01*
X67416666Y-45800057D02*
X67464285Y-45895295D01*
X67464285Y-45895295D02*
X67511904Y-46085771D01*
X67511904Y-46085771D02*
X67511904Y-46323866D01*
X67511904Y-46323866D02*
X67464285Y-46514342D01*
X67464285Y-46514342D02*
X67416666Y-46609580D01*
X67416666Y-46609580D02*
X67369047Y-46657200D01*
X67369047Y-46657200D02*
X67273809Y-46704819D01*
X67273809Y-46704819D02*
X67178571Y-46704819D01*
X67178571Y-46704819D02*
X67083333Y-46657200D01*
X67083333Y-46657200D02*
X67035714Y-46609580D01*
X67035714Y-46609580D02*
X66988095Y-46514342D01*
X66988095Y-46514342D02*
X66940476Y-46323866D01*
X66940476Y-46323866D02*
X66940476Y-46085771D01*
X66940476Y-46085771D02*
X66988095Y-45895295D01*
X66988095Y-45895295D02*
X67035714Y-45800057D01*
X67035714Y-45800057D02*
X67083333Y-45752438D01*
X67083333Y-45752438D02*
X67178571Y-45704819D01*
X41333333Y-58859580D02*
X41285714Y-58907200D01*
X41285714Y-58907200D02*
X41142857Y-58954819D01*
X41142857Y-58954819D02*
X41047619Y-58954819D01*
X41047619Y-58954819D02*
X40904762Y-58907200D01*
X40904762Y-58907200D02*
X40809524Y-58811961D01*
X40809524Y-58811961D02*
X40761905Y-58716723D01*
X40761905Y-58716723D02*
X40714286Y-58526247D01*
X40714286Y-58526247D02*
X40714286Y-58383390D01*
X40714286Y-58383390D02*
X40761905Y-58192914D01*
X40761905Y-58192914D02*
X40809524Y-58097676D01*
X40809524Y-58097676D02*
X40904762Y-58002438D01*
X40904762Y-58002438D02*
X41047619Y-57954819D01*
X41047619Y-57954819D02*
X41142857Y-57954819D01*
X41142857Y-57954819D02*
X41285714Y-58002438D01*
X41285714Y-58002438D02*
X41333333Y-58050057D01*
X41666667Y-57954819D02*
X42285714Y-57954819D01*
X42285714Y-57954819D02*
X41952381Y-58335771D01*
X41952381Y-58335771D02*
X42095238Y-58335771D01*
X42095238Y-58335771D02*
X42190476Y-58383390D01*
X42190476Y-58383390D02*
X42238095Y-58431009D01*
X42238095Y-58431009D02*
X42285714Y-58526247D01*
X42285714Y-58526247D02*
X42285714Y-58764342D01*
X42285714Y-58764342D02*
X42238095Y-58859580D01*
X42238095Y-58859580D02*
X42190476Y-58907200D01*
X42190476Y-58907200D02*
X42095238Y-58954819D01*
X42095238Y-58954819D02*
X41809524Y-58954819D01*
X41809524Y-58954819D02*
X41714286Y-58907200D01*
X41714286Y-58907200D02*
X41666667Y-58859580D01*
X29538095Y-44354819D02*
X29538095Y-45164342D01*
X29538095Y-45164342D02*
X29585714Y-45259580D01*
X29585714Y-45259580D02*
X29633333Y-45307200D01*
X29633333Y-45307200D02*
X29728571Y-45354819D01*
X29728571Y-45354819D02*
X29919047Y-45354819D01*
X29919047Y-45354819D02*
X30014285Y-45307200D01*
X30014285Y-45307200D02*
X30061904Y-45259580D01*
X30061904Y-45259580D02*
X30109523Y-45164342D01*
X30109523Y-45164342D02*
X30109523Y-44354819D01*
X31109523Y-45354819D02*
X30538095Y-45354819D01*
X30823809Y-45354819D02*
X30823809Y-44354819D01*
X30823809Y-44354819D02*
X30728571Y-44497676D01*
X30728571Y-44497676D02*
X30633333Y-44592914D01*
X30633333Y-44592914D02*
X30538095Y-44640533D01*
X74238095Y-27729819D02*
X74238095Y-28539342D01*
X74238095Y-28539342D02*
X74285714Y-28634580D01*
X74285714Y-28634580D02*
X74333333Y-28682200D01*
X74333333Y-28682200D02*
X74428571Y-28729819D01*
X74428571Y-28729819D02*
X74619047Y-28729819D01*
X74619047Y-28729819D02*
X74714285Y-28682200D01*
X74714285Y-28682200D02*
X74761904Y-28634580D01*
X74761904Y-28634580D02*
X74809523Y-28539342D01*
X74809523Y-28539342D02*
X74809523Y-27729819D01*
X75238095Y-27825057D02*
X75285714Y-27777438D01*
X75285714Y-27777438D02*
X75380952Y-27729819D01*
X75380952Y-27729819D02*
X75619047Y-27729819D01*
X75619047Y-27729819D02*
X75714285Y-27777438D01*
X75714285Y-27777438D02*
X75761904Y-27825057D01*
X75761904Y-27825057D02*
X75809523Y-27920295D01*
X75809523Y-27920295D02*
X75809523Y-28015533D01*
X75809523Y-28015533D02*
X75761904Y-28158390D01*
X75761904Y-28158390D02*
X75190476Y-28729819D01*
X75190476Y-28729819D02*
X75809523Y-28729819D01*
X85083333Y-46609580D02*
X85035714Y-46657200D01*
X85035714Y-46657200D02*
X84892857Y-46704819D01*
X84892857Y-46704819D02*
X84797619Y-46704819D01*
X84797619Y-46704819D02*
X84654762Y-46657200D01*
X84654762Y-46657200D02*
X84559524Y-46561961D01*
X84559524Y-46561961D02*
X84511905Y-46466723D01*
X84511905Y-46466723D02*
X84464286Y-46276247D01*
X84464286Y-46276247D02*
X84464286Y-46133390D01*
X84464286Y-46133390D02*
X84511905Y-45942914D01*
X84511905Y-45942914D02*
X84559524Y-45847676D01*
X84559524Y-45847676D02*
X84654762Y-45752438D01*
X84654762Y-45752438D02*
X84797619Y-45704819D01*
X84797619Y-45704819D02*
X84892857Y-45704819D01*
X84892857Y-45704819D02*
X85035714Y-45752438D01*
X85035714Y-45752438D02*
X85083333Y-45800057D01*
X85988095Y-45704819D02*
X85511905Y-45704819D01*
X85511905Y-45704819D02*
X85464286Y-46181009D01*
X85464286Y-46181009D02*
X85511905Y-46133390D01*
X85511905Y-46133390D02*
X85607143Y-46085771D01*
X85607143Y-46085771D02*
X85845238Y-46085771D01*
X85845238Y-46085771D02*
X85940476Y-46133390D01*
X85940476Y-46133390D02*
X85988095Y-46181009D01*
X85988095Y-46181009D02*
X86035714Y-46276247D01*
X86035714Y-46276247D02*
X86035714Y-46514342D01*
X86035714Y-46514342D02*
X85988095Y-46609580D01*
X85988095Y-46609580D02*
X85940476Y-46657200D01*
X85940476Y-46657200D02*
X85845238Y-46704819D01*
X85845238Y-46704819D02*
X85607143Y-46704819D01*
X85607143Y-46704819D02*
X85511905Y-46657200D01*
X85511905Y-46657200D02*
X85464286Y-46609580D01*
X62357142Y-44204819D02*
X62023809Y-43728628D01*
X61785714Y-44204819D02*
X61785714Y-43204819D01*
X61785714Y-43204819D02*
X62166666Y-43204819D01*
X62166666Y-43204819D02*
X62261904Y-43252438D01*
X62261904Y-43252438D02*
X62309523Y-43300057D01*
X62309523Y-43300057D02*
X62357142Y-43395295D01*
X62357142Y-43395295D02*
X62357142Y-43538152D01*
X62357142Y-43538152D02*
X62309523Y-43633390D01*
X62309523Y-43633390D02*
X62261904Y-43681009D01*
X62261904Y-43681009D02*
X62166666Y-43728628D01*
X62166666Y-43728628D02*
X61785714Y-43728628D01*
X63309523Y-44204819D02*
X62738095Y-44204819D01*
X63023809Y-44204819D02*
X63023809Y-43204819D01*
X63023809Y-43204819D02*
X62928571Y-43347676D01*
X62928571Y-43347676D02*
X62833333Y-43442914D01*
X62833333Y-43442914D02*
X62738095Y-43490533D01*
X64166666Y-43204819D02*
X63976190Y-43204819D01*
X63976190Y-43204819D02*
X63880952Y-43252438D01*
X63880952Y-43252438D02*
X63833333Y-43300057D01*
X63833333Y-43300057D02*
X63738095Y-43442914D01*
X63738095Y-43442914D02*
X63690476Y-43633390D01*
X63690476Y-43633390D02*
X63690476Y-44014342D01*
X63690476Y-44014342D02*
X63738095Y-44109580D01*
X63738095Y-44109580D02*
X63785714Y-44157200D01*
X63785714Y-44157200D02*
X63880952Y-44204819D01*
X63880952Y-44204819D02*
X64071428Y-44204819D01*
X64071428Y-44204819D02*
X64166666Y-44157200D01*
X64166666Y-44157200D02*
X64214285Y-44109580D01*
X64214285Y-44109580D02*
X64261904Y-44014342D01*
X64261904Y-44014342D02*
X64261904Y-43776247D01*
X64261904Y-43776247D02*
X64214285Y-43681009D01*
X64214285Y-43681009D02*
X64166666Y-43633390D01*
X64166666Y-43633390D02*
X64071428Y-43585771D01*
X64071428Y-43585771D02*
X63880952Y-43585771D01*
X63880952Y-43585771D02*
X63785714Y-43633390D01*
X63785714Y-43633390D02*
X63738095Y-43681009D01*
X63738095Y-43681009D02*
X63690476Y-43776247D01*
X71257142Y-59344580D02*
X71209523Y-59392200D01*
X71209523Y-59392200D02*
X71066666Y-59439819D01*
X71066666Y-59439819D02*
X70971428Y-59439819D01*
X70971428Y-59439819D02*
X70828571Y-59392200D01*
X70828571Y-59392200D02*
X70733333Y-59296961D01*
X70733333Y-59296961D02*
X70685714Y-59201723D01*
X70685714Y-59201723D02*
X70638095Y-59011247D01*
X70638095Y-59011247D02*
X70638095Y-58868390D01*
X70638095Y-58868390D02*
X70685714Y-58677914D01*
X70685714Y-58677914D02*
X70733333Y-58582676D01*
X70733333Y-58582676D02*
X70828571Y-58487438D01*
X70828571Y-58487438D02*
X70971428Y-58439819D01*
X70971428Y-58439819D02*
X71066666Y-58439819D01*
X71066666Y-58439819D02*
X71209523Y-58487438D01*
X71209523Y-58487438D02*
X71257142Y-58535057D01*
X72209523Y-59439819D02*
X71638095Y-59439819D01*
X71923809Y-59439819D02*
X71923809Y-58439819D01*
X71923809Y-58439819D02*
X71828571Y-58582676D01*
X71828571Y-58582676D02*
X71733333Y-58677914D01*
X71733333Y-58677914D02*
X71638095Y-58725533D01*
X73066666Y-58773152D02*
X73066666Y-59439819D01*
X72828571Y-58392200D02*
X72590476Y-59106485D01*
X72590476Y-59106485D02*
X73209523Y-59106485D01*
X82487142Y-36004580D02*
X82439523Y-36052200D01*
X82439523Y-36052200D02*
X82296666Y-36099819D01*
X82296666Y-36099819D02*
X82201428Y-36099819D01*
X82201428Y-36099819D02*
X82058571Y-36052200D01*
X82058571Y-36052200D02*
X81963333Y-35956961D01*
X81963333Y-35956961D02*
X81915714Y-35861723D01*
X81915714Y-35861723D02*
X81868095Y-35671247D01*
X81868095Y-35671247D02*
X81868095Y-35528390D01*
X81868095Y-35528390D02*
X81915714Y-35337914D01*
X81915714Y-35337914D02*
X81963333Y-35242676D01*
X81963333Y-35242676D02*
X82058571Y-35147438D01*
X82058571Y-35147438D02*
X82201428Y-35099819D01*
X82201428Y-35099819D02*
X82296666Y-35099819D01*
X82296666Y-35099819D02*
X82439523Y-35147438D01*
X82439523Y-35147438D02*
X82487142Y-35195057D01*
X83439523Y-36099819D02*
X82868095Y-36099819D01*
X83153809Y-36099819D02*
X83153809Y-35099819D01*
X83153809Y-35099819D02*
X83058571Y-35242676D01*
X83058571Y-35242676D02*
X82963333Y-35337914D01*
X82963333Y-35337914D02*
X82868095Y-35385533D01*
X84344285Y-35099819D02*
X83868095Y-35099819D01*
X83868095Y-35099819D02*
X83820476Y-35576009D01*
X83820476Y-35576009D02*
X83868095Y-35528390D01*
X83868095Y-35528390D02*
X83963333Y-35480771D01*
X83963333Y-35480771D02*
X84201428Y-35480771D01*
X84201428Y-35480771D02*
X84296666Y-35528390D01*
X84296666Y-35528390D02*
X84344285Y-35576009D01*
X84344285Y-35576009D02*
X84391904Y-35671247D01*
X84391904Y-35671247D02*
X84391904Y-35909342D01*
X84391904Y-35909342D02*
X84344285Y-36004580D01*
X84344285Y-36004580D02*
X84296666Y-36052200D01*
X84296666Y-36052200D02*
X84201428Y-36099819D01*
X84201428Y-36099819D02*
X83963333Y-36099819D01*
X83963333Y-36099819D02*
X83868095Y-36052200D01*
X83868095Y-36052200D02*
X83820476Y-36004580D01*
X41761905Y-37204819D02*
X41761905Y-36204819D01*
X41761905Y-36204819D02*
X42000000Y-36204819D01*
X42000000Y-36204819D02*
X42142857Y-36252438D01*
X42142857Y-36252438D02*
X42238095Y-36347676D01*
X42238095Y-36347676D02*
X42285714Y-36442914D01*
X42285714Y-36442914D02*
X42333333Y-36633390D01*
X42333333Y-36633390D02*
X42333333Y-36776247D01*
X42333333Y-36776247D02*
X42285714Y-36966723D01*
X42285714Y-36966723D02*
X42238095Y-37061961D01*
X42238095Y-37061961D02*
X42142857Y-37157200D01*
X42142857Y-37157200D02*
X42000000Y-37204819D01*
X42000000Y-37204819D02*
X41761905Y-37204819D01*
X43285714Y-37204819D02*
X42714286Y-37204819D01*
X43000000Y-37204819D02*
X43000000Y-36204819D01*
X43000000Y-36204819D02*
X42904762Y-36347676D01*
X42904762Y-36347676D02*
X42809524Y-36442914D01*
X42809524Y-36442914D02*
X42714286Y-36490533D01*
X68773809Y-54903628D02*
X68773809Y-55379819D01*
X68440476Y-54379819D02*
X68773809Y-54903628D01*
X68773809Y-54903628D02*
X69107142Y-54379819D01*
X69964285Y-55379819D02*
X69392857Y-55379819D01*
X69678571Y-55379819D02*
X69678571Y-54379819D01*
X69678571Y-54379819D02*
X69583333Y-54522676D01*
X69583333Y-54522676D02*
X69488095Y-54617914D01*
X69488095Y-54617914D02*
X69392857Y-54665533D01*
X24263095Y-56765732D02*
X24263095Y-55765732D01*
X24263095Y-56241922D02*
X24834523Y-56241922D01*
X24834523Y-56765732D02*
X24834523Y-55765732D01*
X25215476Y-55765732D02*
X25834523Y-55765732D01*
X25834523Y-55765732D02*
X25501190Y-56146684D01*
X25501190Y-56146684D02*
X25644047Y-56146684D01*
X25644047Y-56146684D02*
X25739285Y-56194303D01*
X25739285Y-56194303D02*
X25786904Y-56241922D01*
X25786904Y-56241922D02*
X25834523Y-56337160D01*
X25834523Y-56337160D02*
X25834523Y-56575255D01*
X25834523Y-56575255D02*
X25786904Y-56670493D01*
X25786904Y-56670493D02*
X25739285Y-56718113D01*
X25739285Y-56718113D02*
X25644047Y-56765732D01*
X25644047Y-56765732D02*
X25358333Y-56765732D01*
X25358333Y-56765732D02*
X25263095Y-56718113D01*
X25263095Y-56718113D02*
X25215476Y-56670493D01*
X99738095Y-30704819D02*
X99738095Y-29704819D01*
X99738095Y-30181009D02*
X100309523Y-30181009D01*
X100309523Y-30704819D02*
X100309523Y-29704819D01*
X100738095Y-29800057D02*
X100785714Y-29752438D01*
X100785714Y-29752438D02*
X100880952Y-29704819D01*
X100880952Y-29704819D02*
X101119047Y-29704819D01*
X101119047Y-29704819D02*
X101214285Y-29752438D01*
X101214285Y-29752438D02*
X101261904Y-29800057D01*
X101261904Y-29800057D02*
X101309523Y-29895295D01*
X101309523Y-29895295D02*
X101309523Y-29990533D01*
X101309523Y-29990533D02*
X101261904Y-30133390D01*
X101261904Y-30133390D02*
X100690476Y-30704819D01*
X100690476Y-30704819D02*
X101309523Y-30704819D01*
X99457676Y-56735313D02*
X99457676Y-55735313D01*
X99457676Y-56211503D02*
X100029104Y-56211503D01*
X100029104Y-56735313D02*
X100029104Y-55735313D01*
X100933866Y-56068646D02*
X100933866Y-56735313D01*
X100695771Y-55687694D02*
X100457676Y-56401979D01*
X100457676Y-56401979D02*
X101076723Y-56401979D01*
X41261905Y-46954819D02*
X41261905Y-45954819D01*
X41261905Y-45954819D02*
X41500000Y-45954819D01*
X41500000Y-45954819D02*
X41642857Y-46002438D01*
X41642857Y-46002438D02*
X41738095Y-46097676D01*
X41738095Y-46097676D02*
X41785714Y-46192914D01*
X41785714Y-46192914D02*
X41833333Y-46383390D01*
X41833333Y-46383390D02*
X41833333Y-46526247D01*
X41833333Y-46526247D02*
X41785714Y-46716723D01*
X41785714Y-46716723D02*
X41738095Y-46811961D01*
X41738095Y-46811961D02*
X41642857Y-46907200D01*
X41642857Y-46907200D02*
X41500000Y-46954819D01*
X41500000Y-46954819D02*
X41261905Y-46954819D01*
X42214286Y-46050057D02*
X42261905Y-46002438D01*
X42261905Y-46002438D02*
X42357143Y-45954819D01*
X42357143Y-45954819D02*
X42595238Y-45954819D01*
X42595238Y-45954819D02*
X42690476Y-46002438D01*
X42690476Y-46002438D02*
X42738095Y-46050057D01*
X42738095Y-46050057D02*
X42785714Y-46145295D01*
X42785714Y-46145295D02*
X42785714Y-46240533D01*
X42785714Y-46240533D02*
X42738095Y-46383390D01*
X42738095Y-46383390D02*
X42166667Y-46954819D01*
X42166667Y-46954819D02*
X42785714Y-46954819D01*
X39833333Y-43954819D02*
X39500000Y-43478628D01*
X39261905Y-43954819D02*
X39261905Y-42954819D01*
X39261905Y-42954819D02*
X39642857Y-42954819D01*
X39642857Y-42954819D02*
X39738095Y-43002438D01*
X39738095Y-43002438D02*
X39785714Y-43050057D01*
X39785714Y-43050057D02*
X39833333Y-43145295D01*
X39833333Y-43145295D02*
X39833333Y-43288152D01*
X39833333Y-43288152D02*
X39785714Y-43383390D01*
X39785714Y-43383390D02*
X39738095Y-43431009D01*
X39738095Y-43431009D02*
X39642857Y-43478628D01*
X39642857Y-43478628D02*
X39261905Y-43478628D01*
X40690476Y-42954819D02*
X40500000Y-42954819D01*
X40500000Y-42954819D02*
X40404762Y-43002438D01*
X40404762Y-43002438D02*
X40357143Y-43050057D01*
X40357143Y-43050057D02*
X40261905Y-43192914D01*
X40261905Y-43192914D02*
X40214286Y-43383390D01*
X40214286Y-43383390D02*
X40214286Y-43764342D01*
X40214286Y-43764342D02*
X40261905Y-43859580D01*
X40261905Y-43859580D02*
X40309524Y-43907200D01*
X40309524Y-43907200D02*
X40404762Y-43954819D01*
X40404762Y-43954819D02*
X40595238Y-43954819D01*
X40595238Y-43954819D02*
X40690476Y-43907200D01*
X40690476Y-43907200D02*
X40738095Y-43859580D01*
X40738095Y-43859580D02*
X40785714Y-43764342D01*
X40785714Y-43764342D02*
X40785714Y-43526247D01*
X40785714Y-43526247D02*
X40738095Y-43431009D01*
X40738095Y-43431009D02*
X40690476Y-43383390D01*
X40690476Y-43383390D02*
X40595238Y-43335771D01*
X40595238Y-43335771D02*
X40404762Y-43335771D01*
X40404762Y-43335771D02*
X40309524Y-43383390D01*
X40309524Y-43383390D02*
X40261905Y-43431009D01*
X40261905Y-43431009D02*
X40214286Y-43526247D01*
X26416666Y-33181009D02*
X26083333Y-33181009D01*
X26083333Y-33704819D02*
X26083333Y-32704819D01*
X26083333Y-32704819D02*
X26559523Y-32704819D01*
X27464285Y-33704819D02*
X26892857Y-33704819D01*
X27178571Y-33704819D02*
X27178571Y-32704819D01*
X27178571Y-32704819D02*
X27083333Y-32847676D01*
X27083333Y-32847676D02*
X26988095Y-32942914D01*
X26988095Y-32942914D02*
X26892857Y-32990533D01*
X78083333Y-51454819D02*
X77607143Y-51454819D01*
X77607143Y-51454819D02*
X77607143Y-50454819D01*
X78369048Y-50550057D02*
X78416667Y-50502438D01*
X78416667Y-50502438D02*
X78511905Y-50454819D01*
X78511905Y-50454819D02*
X78750000Y-50454819D01*
X78750000Y-50454819D02*
X78845238Y-50502438D01*
X78845238Y-50502438D02*
X78892857Y-50550057D01*
X78892857Y-50550057D02*
X78940476Y-50645295D01*
X78940476Y-50645295D02*
X78940476Y-50740533D01*
X78940476Y-50740533D02*
X78892857Y-50883390D01*
X78892857Y-50883390D02*
X78321429Y-51454819D01*
X78321429Y-51454819D02*
X78940476Y-51454819D01*
X65833333Y-42204819D02*
X65500000Y-41728628D01*
X65261905Y-42204819D02*
X65261905Y-41204819D01*
X65261905Y-41204819D02*
X65642857Y-41204819D01*
X65642857Y-41204819D02*
X65738095Y-41252438D01*
X65738095Y-41252438D02*
X65785714Y-41300057D01*
X65785714Y-41300057D02*
X65833333Y-41395295D01*
X65833333Y-41395295D02*
X65833333Y-41538152D01*
X65833333Y-41538152D02*
X65785714Y-41633390D01*
X65785714Y-41633390D02*
X65738095Y-41681009D01*
X65738095Y-41681009D02*
X65642857Y-41728628D01*
X65642857Y-41728628D02*
X65261905Y-41728628D01*
X66166667Y-41204819D02*
X66833333Y-41204819D01*
X66833333Y-41204819D02*
X66404762Y-42204819D01*
X62607142Y-34704819D02*
X62273809Y-34228628D01*
X62035714Y-34704819D02*
X62035714Y-33704819D01*
X62035714Y-33704819D02*
X62416666Y-33704819D01*
X62416666Y-33704819D02*
X62511904Y-33752438D01*
X62511904Y-33752438D02*
X62559523Y-33800057D01*
X62559523Y-33800057D02*
X62607142Y-33895295D01*
X62607142Y-33895295D02*
X62607142Y-34038152D01*
X62607142Y-34038152D02*
X62559523Y-34133390D01*
X62559523Y-34133390D02*
X62511904Y-34181009D01*
X62511904Y-34181009D02*
X62416666Y-34228628D01*
X62416666Y-34228628D02*
X62035714Y-34228628D01*
X63559523Y-34704819D02*
X62988095Y-34704819D01*
X63273809Y-34704819D02*
X63273809Y-33704819D01*
X63273809Y-33704819D02*
X63178571Y-33847676D01*
X63178571Y-33847676D02*
X63083333Y-33942914D01*
X63083333Y-33942914D02*
X62988095Y-33990533D01*
X64464285Y-33704819D02*
X63988095Y-33704819D01*
X63988095Y-33704819D02*
X63940476Y-34181009D01*
X63940476Y-34181009D02*
X63988095Y-34133390D01*
X63988095Y-34133390D02*
X64083333Y-34085771D01*
X64083333Y-34085771D02*
X64321428Y-34085771D01*
X64321428Y-34085771D02*
X64416666Y-34133390D01*
X64416666Y-34133390D02*
X64464285Y-34181009D01*
X64464285Y-34181009D02*
X64511904Y-34276247D01*
X64511904Y-34276247D02*
X64511904Y-34514342D01*
X64511904Y-34514342D02*
X64464285Y-34609580D01*
X64464285Y-34609580D02*
X64416666Y-34657200D01*
X64416666Y-34657200D02*
X64321428Y-34704819D01*
X64321428Y-34704819D02*
X64083333Y-34704819D01*
X64083333Y-34704819D02*
X63988095Y-34657200D01*
X63988095Y-34657200D02*
X63940476Y-34609580D01*
X78107142Y-50109580D02*
X78059523Y-50157200D01*
X78059523Y-50157200D02*
X77916666Y-50204819D01*
X77916666Y-50204819D02*
X77821428Y-50204819D01*
X77821428Y-50204819D02*
X77678571Y-50157200D01*
X77678571Y-50157200D02*
X77583333Y-50061961D01*
X77583333Y-50061961D02*
X77535714Y-49966723D01*
X77535714Y-49966723D02*
X77488095Y-49776247D01*
X77488095Y-49776247D02*
X77488095Y-49633390D01*
X77488095Y-49633390D02*
X77535714Y-49442914D01*
X77535714Y-49442914D02*
X77583333Y-49347676D01*
X77583333Y-49347676D02*
X77678571Y-49252438D01*
X77678571Y-49252438D02*
X77821428Y-49204819D01*
X77821428Y-49204819D02*
X77916666Y-49204819D01*
X77916666Y-49204819D02*
X78059523Y-49252438D01*
X78059523Y-49252438D02*
X78107142Y-49300057D01*
X79059523Y-50204819D02*
X78488095Y-50204819D01*
X78773809Y-50204819D02*
X78773809Y-49204819D01*
X78773809Y-49204819D02*
X78678571Y-49347676D01*
X78678571Y-49347676D02*
X78583333Y-49442914D01*
X78583333Y-49442914D02*
X78488095Y-49490533D01*
X80011904Y-50204819D02*
X79440476Y-50204819D01*
X79726190Y-50204819D02*
X79726190Y-49204819D01*
X79726190Y-49204819D02*
X79630952Y-49347676D01*
X79630952Y-49347676D02*
X79535714Y-49442914D01*
X79535714Y-49442914D02*
X79440476Y-49490533D01*
X102269400Y-42954819D02*
X101936067Y-42478628D01*
X101697972Y-42954819D02*
X101697972Y-41954819D01*
X101697972Y-41954819D02*
X102078924Y-41954819D01*
X102078924Y-41954819D02*
X102174162Y-42002438D01*
X102174162Y-42002438D02*
X102221781Y-42050057D01*
X102221781Y-42050057D02*
X102269400Y-42145295D01*
X102269400Y-42145295D02*
X102269400Y-42288152D01*
X102269400Y-42288152D02*
X102221781Y-42383390D01*
X102221781Y-42383390D02*
X102174162Y-42431009D01*
X102174162Y-42431009D02*
X102078924Y-42478628D01*
X102078924Y-42478628D02*
X101697972Y-42478628D01*
X103221781Y-42954819D02*
X102650353Y-42954819D01*
X102936067Y-42954819D02*
X102936067Y-41954819D01*
X102936067Y-41954819D02*
X102840829Y-42097676D01*
X102840829Y-42097676D02*
X102745591Y-42192914D01*
X102745591Y-42192914D02*
X102650353Y-42240533D01*
X104078924Y-42288152D02*
X104078924Y-42954819D01*
X103840829Y-41907200D02*
X103602734Y-42621485D01*
X103602734Y-42621485D02*
X104221781Y-42621485D01*
X58973333Y-26084819D02*
X58640000Y-25608628D01*
X58401905Y-26084819D02*
X58401905Y-25084819D01*
X58401905Y-25084819D02*
X58782857Y-25084819D01*
X58782857Y-25084819D02*
X58878095Y-25132438D01*
X58878095Y-25132438D02*
X58925714Y-25180057D01*
X58925714Y-25180057D02*
X58973333Y-25275295D01*
X58973333Y-25275295D02*
X58973333Y-25418152D01*
X58973333Y-25418152D02*
X58925714Y-25513390D01*
X58925714Y-25513390D02*
X58878095Y-25561009D01*
X58878095Y-25561009D02*
X58782857Y-25608628D01*
X58782857Y-25608628D02*
X58401905Y-25608628D01*
X59544762Y-25513390D02*
X59449524Y-25465771D01*
X59449524Y-25465771D02*
X59401905Y-25418152D01*
X59401905Y-25418152D02*
X59354286Y-25322914D01*
X59354286Y-25322914D02*
X59354286Y-25275295D01*
X59354286Y-25275295D02*
X59401905Y-25180057D01*
X59401905Y-25180057D02*
X59449524Y-25132438D01*
X59449524Y-25132438D02*
X59544762Y-25084819D01*
X59544762Y-25084819D02*
X59735238Y-25084819D01*
X59735238Y-25084819D02*
X59830476Y-25132438D01*
X59830476Y-25132438D02*
X59878095Y-25180057D01*
X59878095Y-25180057D02*
X59925714Y-25275295D01*
X59925714Y-25275295D02*
X59925714Y-25322914D01*
X59925714Y-25322914D02*
X59878095Y-25418152D01*
X59878095Y-25418152D02*
X59830476Y-25465771D01*
X59830476Y-25465771D02*
X59735238Y-25513390D01*
X59735238Y-25513390D02*
X59544762Y-25513390D01*
X59544762Y-25513390D02*
X59449524Y-25561009D01*
X59449524Y-25561009D02*
X59401905Y-25608628D01*
X59401905Y-25608628D02*
X59354286Y-25703866D01*
X59354286Y-25703866D02*
X59354286Y-25894342D01*
X59354286Y-25894342D02*
X59401905Y-25989580D01*
X59401905Y-25989580D02*
X59449524Y-26037200D01*
X59449524Y-26037200D02*
X59544762Y-26084819D01*
X59544762Y-26084819D02*
X59735238Y-26084819D01*
X59735238Y-26084819D02*
X59830476Y-26037200D01*
X59830476Y-26037200D02*
X59878095Y-25989580D01*
X59878095Y-25989580D02*
X59925714Y-25894342D01*
X59925714Y-25894342D02*
X59925714Y-25703866D01*
X59925714Y-25703866D02*
X59878095Y-25608628D01*
X59878095Y-25608628D02*
X59830476Y-25561009D01*
X59830476Y-25561009D02*
X59735238Y-25513390D01*
X29083333Y-42524819D02*
X28750000Y-42048628D01*
X28511905Y-42524819D02*
X28511905Y-41524819D01*
X28511905Y-41524819D02*
X28892857Y-41524819D01*
X28892857Y-41524819D02*
X28988095Y-41572438D01*
X28988095Y-41572438D02*
X29035714Y-41620057D01*
X29035714Y-41620057D02*
X29083333Y-41715295D01*
X29083333Y-41715295D02*
X29083333Y-41858152D01*
X29083333Y-41858152D02*
X29035714Y-41953390D01*
X29035714Y-41953390D02*
X28988095Y-42001009D01*
X28988095Y-42001009D02*
X28892857Y-42048628D01*
X28892857Y-42048628D02*
X28511905Y-42048628D01*
X30035714Y-42524819D02*
X29464286Y-42524819D01*
X29750000Y-42524819D02*
X29750000Y-41524819D01*
X29750000Y-41524819D02*
X29654762Y-41667676D01*
X29654762Y-41667676D02*
X29559524Y-41762914D01*
X29559524Y-41762914D02*
X29464286Y-41810533D01*
X37258333Y-49884819D02*
X36925000Y-49408628D01*
X36686905Y-49884819D02*
X36686905Y-48884819D01*
X36686905Y-48884819D02*
X37067857Y-48884819D01*
X37067857Y-48884819D02*
X37163095Y-48932438D01*
X37163095Y-48932438D02*
X37210714Y-48980057D01*
X37210714Y-48980057D02*
X37258333Y-49075295D01*
X37258333Y-49075295D02*
X37258333Y-49218152D01*
X37258333Y-49218152D02*
X37210714Y-49313390D01*
X37210714Y-49313390D02*
X37163095Y-49361009D01*
X37163095Y-49361009D02*
X37067857Y-49408628D01*
X37067857Y-49408628D02*
X36686905Y-49408628D01*
X37639286Y-48980057D02*
X37686905Y-48932438D01*
X37686905Y-48932438D02*
X37782143Y-48884819D01*
X37782143Y-48884819D02*
X38020238Y-48884819D01*
X38020238Y-48884819D02*
X38115476Y-48932438D01*
X38115476Y-48932438D02*
X38163095Y-48980057D01*
X38163095Y-48980057D02*
X38210714Y-49075295D01*
X38210714Y-49075295D02*
X38210714Y-49170533D01*
X38210714Y-49170533D02*
X38163095Y-49313390D01*
X38163095Y-49313390D02*
X37591667Y-49884819D01*
X37591667Y-49884819D02*
X38210714Y-49884819D01*
X88897142Y-42124819D02*
X88563809Y-41648628D01*
X88325714Y-42124819D02*
X88325714Y-41124819D01*
X88325714Y-41124819D02*
X88706666Y-41124819D01*
X88706666Y-41124819D02*
X88801904Y-41172438D01*
X88801904Y-41172438D02*
X88849523Y-41220057D01*
X88849523Y-41220057D02*
X88897142Y-41315295D01*
X88897142Y-41315295D02*
X88897142Y-41458152D01*
X88897142Y-41458152D02*
X88849523Y-41553390D01*
X88849523Y-41553390D02*
X88801904Y-41601009D01*
X88801904Y-41601009D02*
X88706666Y-41648628D01*
X88706666Y-41648628D02*
X88325714Y-41648628D01*
X89849523Y-42124819D02*
X89278095Y-42124819D01*
X89563809Y-42124819D02*
X89563809Y-41124819D01*
X89563809Y-41124819D02*
X89468571Y-41267676D01*
X89468571Y-41267676D02*
X89373333Y-41362914D01*
X89373333Y-41362914D02*
X89278095Y-41410533D01*
X90230476Y-41220057D02*
X90278095Y-41172438D01*
X90278095Y-41172438D02*
X90373333Y-41124819D01*
X90373333Y-41124819D02*
X90611428Y-41124819D01*
X90611428Y-41124819D02*
X90706666Y-41172438D01*
X90706666Y-41172438D02*
X90754285Y-41220057D01*
X90754285Y-41220057D02*
X90801904Y-41315295D01*
X90801904Y-41315295D02*
X90801904Y-41410533D01*
X90801904Y-41410533D02*
X90754285Y-41553390D01*
X90754285Y-41553390D02*
X90182857Y-42124819D01*
X90182857Y-42124819D02*
X90801904Y-42124819D01*
X71217142Y-51274580D02*
X71169523Y-51322200D01*
X71169523Y-51322200D02*
X71026666Y-51369819D01*
X71026666Y-51369819D02*
X70931428Y-51369819D01*
X70931428Y-51369819D02*
X70788571Y-51322200D01*
X70788571Y-51322200D02*
X70693333Y-51226961D01*
X70693333Y-51226961D02*
X70645714Y-51131723D01*
X70645714Y-51131723D02*
X70598095Y-50941247D01*
X70598095Y-50941247D02*
X70598095Y-50798390D01*
X70598095Y-50798390D02*
X70645714Y-50607914D01*
X70645714Y-50607914D02*
X70693333Y-50512676D01*
X70693333Y-50512676D02*
X70788571Y-50417438D01*
X70788571Y-50417438D02*
X70931428Y-50369819D01*
X70931428Y-50369819D02*
X71026666Y-50369819D01*
X71026666Y-50369819D02*
X71169523Y-50417438D01*
X71169523Y-50417438D02*
X71217142Y-50465057D01*
X72169523Y-51369819D02*
X71598095Y-51369819D01*
X71883809Y-51369819D02*
X71883809Y-50369819D01*
X71883809Y-50369819D02*
X71788571Y-50512676D01*
X71788571Y-50512676D02*
X71693333Y-50607914D01*
X71693333Y-50607914D02*
X71598095Y-50655533D01*
X72502857Y-50369819D02*
X73121904Y-50369819D01*
X73121904Y-50369819D02*
X72788571Y-50750771D01*
X72788571Y-50750771D02*
X72931428Y-50750771D01*
X72931428Y-50750771D02*
X73026666Y-50798390D01*
X73026666Y-50798390D02*
X73074285Y-50846009D01*
X73074285Y-50846009D02*
X73121904Y-50941247D01*
X73121904Y-50941247D02*
X73121904Y-51179342D01*
X73121904Y-51179342D02*
X73074285Y-51274580D01*
X73074285Y-51274580D02*
X73026666Y-51322200D01*
X73026666Y-51322200D02*
X72931428Y-51369819D01*
X72931428Y-51369819D02*
X72645714Y-51369819D01*
X72645714Y-51369819D02*
X72550476Y-51322200D01*
X72550476Y-51322200D02*
X72502857Y-51274580D01*
X88917142Y-39449819D02*
X88583809Y-38973628D01*
X88345714Y-39449819D02*
X88345714Y-38449819D01*
X88345714Y-38449819D02*
X88726666Y-38449819D01*
X88726666Y-38449819D02*
X88821904Y-38497438D01*
X88821904Y-38497438D02*
X88869523Y-38545057D01*
X88869523Y-38545057D02*
X88917142Y-38640295D01*
X88917142Y-38640295D02*
X88917142Y-38783152D01*
X88917142Y-38783152D02*
X88869523Y-38878390D01*
X88869523Y-38878390D02*
X88821904Y-38926009D01*
X88821904Y-38926009D02*
X88726666Y-38973628D01*
X88726666Y-38973628D02*
X88345714Y-38973628D01*
X89869523Y-39449819D02*
X89298095Y-39449819D01*
X89583809Y-39449819D02*
X89583809Y-38449819D01*
X89583809Y-38449819D02*
X89488571Y-38592676D01*
X89488571Y-38592676D02*
X89393333Y-38687914D01*
X89393333Y-38687914D02*
X89298095Y-38735533D01*
X90202857Y-38449819D02*
X90821904Y-38449819D01*
X90821904Y-38449819D02*
X90488571Y-38830771D01*
X90488571Y-38830771D02*
X90631428Y-38830771D01*
X90631428Y-38830771D02*
X90726666Y-38878390D01*
X90726666Y-38878390D02*
X90774285Y-38926009D01*
X90774285Y-38926009D02*
X90821904Y-39021247D01*
X90821904Y-39021247D02*
X90821904Y-39259342D01*
X90821904Y-39259342D02*
X90774285Y-39354580D01*
X90774285Y-39354580D02*
X90726666Y-39402200D01*
X90726666Y-39402200D02*
X90631428Y-39449819D01*
X90631428Y-39449819D02*
X90345714Y-39449819D01*
X90345714Y-39449819D02*
X90250476Y-39402200D01*
X90250476Y-39402200D02*
X90202857Y-39354580D01*
X32333333Y-58704819D02*
X31857143Y-58704819D01*
X31857143Y-58704819D02*
X31857143Y-57704819D01*
X33190476Y-58704819D02*
X32619048Y-58704819D01*
X32904762Y-58704819D02*
X32904762Y-57704819D01*
X32904762Y-57704819D02*
X32809524Y-57847676D01*
X32809524Y-57847676D02*
X32714286Y-57942914D01*
X32714286Y-57942914D02*
X32619048Y-57990533D01*
X66833333Y-34609580D02*
X66785714Y-34657200D01*
X66785714Y-34657200D02*
X66642857Y-34704819D01*
X66642857Y-34704819D02*
X66547619Y-34704819D01*
X66547619Y-34704819D02*
X66404762Y-34657200D01*
X66404762Y-34657200D02*
X66309524Y-34561961D01*
X66309524Y-34561961D02*
X66261905Y-34466723D01*
X66261905Y-34466723D02*
X66214286Y-34276247D01*
X66214286Y-34276247D02*
X66214286Y-34133390D01*
X66214286Y-34133390D02*
X66261905Y-33942914D01*
X66261905Y-33942914D02*
X66309524Y-33847676D01*
X66309524Y-33847676D02*
X66404762Y-33752438D01*
X66404762Y-33752438D02*
X66547619Y-33704819D01*
X66547619Y-33704819D02*
X66642857Y-33704819D01*
X66642857Y-33704819D02*
X66785714Y-33752438D01*
X66785714Y-33752438D02*
X66833333Y-33800057D01*
X67309524Y-34704819D02*
X67500000Y-34704819D01*
X67500000Y-34704819D02*
X67595238Y-34657200D01*
X67595238Y-34657200D02*
X67642857Y-34609580D01*
X67642857Y-34609580D02*
X67738095Y-34466723D01*
X67738095Y-34466723D02*
X67785714Y-34276247D01*
X67785714Y-34276247D02*
X67785714Y-33895295D01*
X67785714Y-33895295D02*
X67738095Y-33800057D01*
X67738095Y-33800057D02*
X67690476Y-33752438D01*
X67690476Y-33752438D02*
X67595238Y-33704819D01*
X67595238Y-33704819D02*
X67404762Y-33704819D01*
X67404762Y-33704819D02*
X67309524Y-33752438D01*
X67309524Y-33752438D02*
X67261905Y-33800057D01*
X67261905Y-33800057D02*
X67214286Y-33895295D01*
X67214286Y-33895295D02*
X67214286Y-34133390D01*
X67214286Y-34133390D02*
X67261905Y-34228628D01*
X67261905Y-34228628D02*
X67309524Y-34276247D01*
X67309524Y-34276247D02*
X67404762Y-34323866D01*
X67404762Y-34323866D02*
X67595238Y-34323866D01*
X67595238Y-34323866D02*
X67690476Y-34276247D01*
X67690476Y-34276247D02*
X67738095Y-34228628D01*
X67738095Y-34228628D02*
X67785714Y-34133390D01*
X37217261Y-30850057D02*
X37122023Y-30802438D01*
X37122023Y-30802438D02*
X37026785Y-30707200D01*
X37026785Y-30707200D02*
X36883928Y-30564342D01*
X36883928Y-30564342D02*
X36788690Y-30516723D01*
X36788690Y-30516723D02*
X36693452Y-30516723D01*
X36741071Y-30754819D02*
X36645833Y-30707200D01*
X36645833Y-30707200D02*
X36550595Y-30611961D01*
X36550595Y-30611961D02*
X36502976Y-30421485D01*
X36502976Y-30421485D02*
X36502976Y-30088152D01*
X36502976Y-30088152D02*
X36550595Y-29897676D01*
X36550595Y-29897676D02*
X36645833Y-29802438D01*
X36645833Y-29802438D02*
X36741071Y-29754819D01*
X36741071Y-29754819D02*
X36931547Y-29754819D01*
X36931547Y-29754819D02*
X37026785Y-29802438D01*
X37026785Y-29802438D02*
X37122023Y-29897676D01*
X37122023Y-29897676D02*
X37169642Y-30088152D01*
X37169642Y-30088152D02*
X37169642Y-30421485D01*
X37169642Y-30421485D02*
X37122023Y-30611961D01*
X37122023Y-30611961D02*
X37026785Y-30707200D01*
X37026785Y-30707200D02*
X36931547Y-30754819D01*
X36931547Y-30754819D02*
X36741071Y-30754819D01*
X38122023Y-30754819D02*
X37550595Y-30754819D01*
X37836309Y-30754819D02*
X37836309Y-29754819D01*
X37836309Y-29754819D02*
X37741071Y-29897676D01*
X37741071Y-29897676D02*
X37645833Y-29992914D01*
X37645833Y-29992914D02*
X37550595Y-30040533D01*
X27333333Y-48959580D02*
X27285714Y-49007200D01*
X27285714Y-49007200D02*
X27142857Y-49054819D01*
X27142857Y-49054819D02*
X27047619Y-49054819D01*
X27047619Y-49054819D02*
X26904762Y-49007200D01*
X26904762Y-49007200D02*
X26809524Y-48911961D01*
X26809524Y-48911961D02*
X26761905Y-48816723D01*
X26761905Y-48816723D02*
X26714286Y-48626247D01*
X26714286Y-48626247D02*
X26714286Y-48483390D01*
X26714286Y-48483390D02*
X26761905Y-48292914D01*
X26761905Y-48292914D02*
X26809524Y-48197676D01*
X26809524Y-48197676D02*
X26904762Y-48102438D01*
X26904762Y-48102438D02*
X27047619Y-48054819D01*
X27047619Y-48054819D02*
X27142857Y-48054819D01*
X27142857Y-48054819D02*
X27285714Y-48102438D01*
X27285714Y-48102438D02*
X27333333Y-48150057D01*
X28190476Y-48388152D02*
X28190476Y-49054819D01*
X27952381Y-48007200D02*
X27714286Y-48721485D01*
X27714286Y-48721485D02*
X28333333Y-48721485D01*
X75607142Y-54279819D02*
X75273809Y-53803628D01*
X75035714Y-54279819D02*
X75035714Y-53279819D01*
X75035714Y-53279819D02*
X75416666Y-53279819D01*
X75416666Y-53279819D02*
X75511904Y-53327438D01*
X75511904Y-53327438D02*
X75559523Y-53375057D01*
X75559523Y-53375057D02*
X75607142Y-53470295D01*
X75607142Y-53470295D02*
X75607142Y-53613152D01*
X75607142Y-53613152D02*
X75559523Y-53708390D01*
X75559523Y-53708390D02*
X75511904Y-53756009D01*
X75511904Y-53756009D02*
X75416666Y-53803628D01*
X75416666Y-53803628D02*
X75035714Y-53803628D01*
X76559523Y-54279819D02*
X75988095Y-54279819D01*
X76273809Y-54279819D02*
X76273809Y-53279819D01*
X76273809Y-53279819D02*
X76178571Y-53422676D01*
X76178571Y-53422676D02*
X76083333Y-53517914D01*
X76083333Y-53517914D02*
X75988095Y-53565533D01*
X77511904Y-54279819D02*
X76940476Y-54279819D01*
X77226190Y-54279819D02*
X77226190Y-53279819D01*
X77226190Y-53279819D02*
X77130952Y-53422676D01*
X77130952Y-53422676D02*
X77035714Y-53517914D01*
X77035714Y-53517914D02*
X76940476Y-53565533D01*
X82083333Y-45859580D02*
X82035714Y-45907200D01*
X82035714Y-45907200D02*
X81892857Y-45954819D01*
X81892857Y-45954819D02*
X81797619Y-45954819D01*
X81797619Y-45954819D02*
X81654762Y-45907200D01*
X81654762Y-45907200D02*
X81559524Y-45811961D01*
X81559524Y-45811961D02*
X81511905Y-45716723D01*
X81511905Y-45716723D02*
X81464286Y-45526247D01*
X81464286Y-45526247D02*
X81464286Y-45383390D01*
X81464286Y-45383390D02*
X81511905Y-45192914D01*
X81511905Y-45192914D02*
X81559524Y-45097676D01*
X81559524Y-45097676D02*
X81654762Y-45002438D01*
X81654762Y-45002438D02*
X81797619Y-44954819D01*
X81797619Y-44954819D02*
X81892857Y-44954819D01*
X81892857Y-44954819D02*
X82035714Y-45002438D01*
X82035714Y-45002438D02*
X82083333Y-45050057D01*
X82416667Y-44954819D02*
X83083333Y-44954819D01*
X83083333Y-44954819D02*
X82654762Y-45954819D01*
X24488095Y-30704819D02*
X24488095Y-29704819D01*
X24488095Y-30181009D02*
X25059523Y-30181009D01*
X25059523Y-30704819D02*
X25059523Y-29704819D01*
X26059523Y-30704819D02*
X25488095Y-30704819D01*
X25773809Y-30704819D02*
X25773809Y-29704819D01*
X25773809Y-29704819D02*
X25678571Y-29847676D01*
X25678571Y-29847676D02*
X25583333Y-29942914D01*
X25583333Y-29942914D02*
X25488095Y-29990533D01*
D12*
%TO.C,P1*%
X76520000Y-24570000D02*
X76520000Y-23670000D01*
X76520000Y-24570000D02*
X75720000Y-24570000D01*
X76520000Y-20530000D02*
X76520000Y-21430000D01*
X76520000Y-20530000D02*
X75720000Y-20530000D01*
X67980000Y-24570000D02*
X68780000Y-24570000D01*
X67980000Y-24570000D02*
X67980000Y-23670000D01*
X67980000Y-20530000D02*
X68780000Y-20530000D01*
X67980000Y-20530000D02*
X67980000Y-21430000D01*
X67830000Y-20380000D02*
X68330000Y-20380000D01*
X67830000Y-20380000D02*
X67830000Y-20880000D01*
%TO.C,J4*%
X95640000Y-34215000D02*
X97960000Y-34215000D01*
X95640000Y-34325000D02*
X95640000Y-35595000D01*
X95640000Y-34325000D02*
X95640000Y-35595000D01*
X95640000Y-36865000D02*
X95640000Y-38135000D01*
X95640000Y-39405000D02*
X95640000Y-39515000D01*
X95640000Y-39515000D02*
X97960000Y-39515000D01*
X97960000Y-34215000D02*
X97960000Y-34325000D01*
X97960000Y-34325000D02*
X99740000Y-34325000D01*
X97960000Y-35595000D02*
X97960000Y-36865000D01*
X97960000Y-38135000D02*
X97960000Y-39515000D01*
%TO.C,J3*%
X53660000Y-41685000D02*
X51340000Y-41685000D01*
X53660000Y-41575000D02*
X53660000Y-40305000D01*
X53660000Y-41575000D02*
X53660000Y-40305000D01*
X53660000Y-39035000D02*
X53660000Y-37765000D01*
X53660000Y-36495000D02*
X53660000Y-36385000D01*
X53660000Y-36385000D02*
X51340000Y-36385000D01*
X51340000Y-41685000D02*
X51340000Y-41575000D01*
X51340000Y-41575000D02*
X49560000Y-41575000D01*
X51340000Y-40305000D02*
X51340000Y-39035000D01*
X51340000Y-37765000D02*
X51340000Y-36385000D01*
%TO.C,J2*%
X50610000Y-26070000D02*
X51885000Y-26070000D01*
X51885000Y-26005000D02*
X51885000Y-26070000D01*
X51885000Y-26005000D02*
X55515000Y-26005000D01*
X51885000Y-32510000D02*
X51885000Y-32575000D01*
X51885000Y-32575000D02*
X55515000Y-32575000D01*
X55515000Y-26005000D02*
X55515000Y-26070000D01*
X55515000Y-32510000D02*
X55515000Y-32575000D01*
%TO.C,R3*%
X32512742Y-42977500D02*
X32987258Y-42977500D01*
X32512742Y-44022500D02*
X32987258Y-44022500D01*
%TO.C,R10*%
X58596359Y-40120000D02*
X58903641Y-40120000D01*
X58596359Y-40880000D02*
X58903641Y-40880000D01*
%TO.C,J1*%
X33880000Y-28220000D02*
X33880000Y-20380000D01*
X38950000Y-20380000D02*
X33880000Y-20380000D01*
X41120000Y-20380000D02*
X39550000Y-20380000D01*
X41120000Y-20900000D02*
X33880000Y-20900000D01*
X41120000Y-22000000D02*
X33880000Y-22000000D01*
X41120000Y-28220000D02*
X33880000Y-28220000D01*
X41120000Y-28220000D02*
X41120000Y-20380000D01*
X39250000Y-20380000D02*
X38810000Y-19770000D01*
X39690000Y-19770000D01*
X39250000Y-20380000D01*
G36*
X39250000Y-20380000D02*
G01*
X38810000Y-19770000D01*
X39690000Y-19770000D01*
X39250000Y-20380000D01*
G37*
%TO.C,U3*%
X69270000Y-35640000D02*
X70220000Y-35640000D01*
X69270000Y-36590000D02*
X69270000Y-35640000D01*
X69270000Y-44910000D02*
X69270000Y-45860000D01*
X69270000Y-45860000D02*
X70220000Y-45860000D01*
X79490000Y-35640000D02*
X78540000Y-35640000D01*
X79490000Y-36590000D02*
X79490000Y-35640000D01*
X79490000Y-44910000D02*
X79490000Y-45860000D01*
X79490000Y-45860000D02*
X78540000Y-45860000D01*
X70220000Y-46475000D02*
X69750000Y-46815000D01*
X69750000Y-46135000D01*
X70220000Y-46475000D01*
G36*
X70220000Y-46475000D02*
G01*
X69750000Y-46815000D01*
X69750000Y-46135000D01*
X70220000Y-46475000D01*
G37*
%TO.C,D3*%
X29860000Y-49250000D02*
X25850000Y-49250000D01*
X29860000Y-51250000D02*
X25850000Y-51250000D01*
X29860000Y-51250000D02*
X29860000Y-49250000D01*
%TO.C,R5*%
X42727500Y-48537742D02*
X42727500Y-49012258D01*
X43772500Y-48537742D02*
X43772500Y-49012258D01*
%TO.C,C8*%
X80270000Y-35182836D02*
X80270000Y-34967164D01*
X80990000Y-35182836D02*
X80990000Y-34967164D01*
%TO.C,C16*%
X69640580Y-31990000D02*
X69359420Y-31990000D01*
X69640580Y-33010000D02*
X69359420Y-33010000D01*
%TO.C,C1*%
X32915580Y-49740000D02*
X32634420Y-49740000D01*
X32915580Y-50760000D02*
X32634420Y-50760000D01*
%TO.C,C2*%
X40813748Y-52590000D02*
X42236252Y-52590000D01*
X40813748Y-54410000D02*
X42236252Y-54410000D01*
%TO.C,C6*%
X70020000Y-48487164D02*
X70020000Y-48702836D01*
X70740000Y-48487164D02*
X70740000Y-48702836D01*
%TO.C,R9*%
X58606359Y-37120000D02*
X58913641Y-37120000D01*
X58606359Y-37880000D02*
X58913641Y-37880000D01*
%TO.C,R4*%
X37337742Y-45227500D02*
X37812258Y-45227500D01*
X37337742Y-46272500D02*
X37812258Y-46272500D01*
%TO.C,FB1*%
X29912878Y-37190000D02*
X30712122Y-37190000D01*
X29912878Y-38310000D02*
X30712122Y-38310000D01*
%TO.C,SW1*%
X85550000Y-22255000D02*
X85550000Y-23045000D01*
X87600000Y-24095000D02*
X87400000Y-24095000D01*
X89100000Y-19955000D02*
X89100000Y-21245000D01*
X89100000Y-19955000D02*
X89300000Y-19745000D01*
X90200000Y-19745000D02*
X89300000Y-19745000D01*
X90400000Y-19955000D02*
X90200000Y-19745000D01*
X90400000Y-21245000D02*
X90400000Y-19955000D01*
X90600000Y-24095000D02*
X88900000Y-24095000D01*
X91850000Y-21245000D02*
X86150000Y-21245000D01*
X92450000Y-23045000D02*
X92450000Y-22255000D01*
%TO.C,D4*%
X101912500Y-46985000D02*
X104197500Y-46985000D01*
X104197500Y-45515000D02*
X101912500Y-45515000D01*
X104197500Y-46985000D02*
X104197500Y-45515000D01*
%TO.C,C12*%
X76507836Y-47965000D02*
X76292164Y-47965000D01*
X76507836Y-48685000D02*
X76292164Y-48685000D01*
%TO.C,C10*%
X66520000Y-44662836D02*
X66520000Y-44447164D01*
X67240000Y-44662836D02*
X67240000Y-44447164D01*
%TO.C,C3*%
X40763748Y-55565000D02*
X42186252Y-55565000D01*
X40763748Y-57385000D02*
X42186252Y-57385000D01*
%TO.C,U1*%
X32775000Y-45640000D02*
X31975000Y-45640000D01*
X32775000Y-45640000D02*
X33575000Y-45640000D01*
X32775000Y-48760000D02*
X31975000Y-48760000D01*
X32775000Y-48760000D02*
X33575000Y-48760000D01*
X34315000Y-49040000D02*
X33835000Y-49040000D01*
X34075000Y-48710000D01*
X34315000Y-49040000D01*
G36*
X34315000Y-49040000D02*
G01*
X33835000Y-49040000D01*
X34075000Y-48710000D01*
X34315000Y-49040000D01*
G37*
%TO.C,U2*%
X70740000Y-28162500D02*
X70740000Y-27362500D01*
X70740000Y-28162500D02*
X70740000Y-28962500D01*
X73860000Y-28162500D02*
X73860000Y-27362500D01*
X73860000Y-28162500D02*
X73860000Y-28962500D01*
X74140000Y-27102500D02*
X73810000Y-26862500D01*
X74140000Y-26622500D01*
X74140000Y-27102500D01*
G36*
X74140000Y-27102500D02*
G01*
X73810000Y-26862500D01*
X74140000Y-26622500D01*
X74140000Y-27102500D01*
G37*
%TO.C,C5*%
X84740000Y-43834420D02*
X84740000Y-44115580D01*
X85760000Y-43834420D02*
X85760000Y-44115580D01*
%TO.C,R16*%
X63227500Y-41737258D02*
X63227500Y-41262742D01*
X64272500Y-41737258D02*
X64272500Y-41262742D01*
%TO.C,C14*%
X72007836Y-57465000D02*
X71792164Y-57465000D01*
X72007836Y-58185000D02*
X71792164Y-58185000D01*
%TO.C,C15*%
X82989420Y-36565000D02*
X83270580Y-36565000D01*
X82989420Y-37585000D02*
X83270580Y-37585000D01*
%TO.C,D1*%
X41500000Y-35710000D02*
X41500000Y-31700000D01*
X41500000Y-35710000D02*
X43500000Y-35710000D01*
X43500000Y-35710000D02*
X43500000Y-31700000D01*
%TO.C,Y1*%
X70130000Y-56925000D02*
X73430000Y-56925000D01*
X73430000Y-56925000D02*
X73430000Y-52925000D01*
%TO.C,D2*%
X40015000Y-47302500D02*
X40015000Y-49587500D01*
X41485000Y-47302500D02*
X40015000Y-47302500D01*
X41485000Y-49587500D02*
X41485000Y-47302500D01*
%TO.C,R6*%
X37812258Y-43027500D02*
X37337742Y-43027500D01*
X37812258Y-44072500D02*
X37337742Y-44072500D01*
%TO.C,F1*%
X30852064Y-32340000D02*
X29647936Y-32340000D01*
X30852064Y-34160000D02*
X29647936Y-34160000D01*
%TO.C,R7*%
X66533641Y-42445000D02*
X66226359Y-42445000D01*
X66533641Y-43205000D02*
X66226359Y-43205000D01*
%TO.C,R15*%
X63227500Y-36262742D02*
X63227500Y-36737258D01*
X64272500Y-36262742D02*
X64272500Y-36737258D01*
%TO.C,C11*%
X76507836Y-49215000D02*
X76292164Y-49215000D01*
X76507836Y-49935000D02*
X76292164Y-49935000D01*
%TO.C,R14*%
X102912258Y-43477500D02*
X102437742Y-43477500D01*
X102912258Y-44522500D02*
X102437742Y-44522500D01*
%TO.C,R8*%
X58986359Y-26420000D02*
X59293641Y-26420000D01*
X58986359Y-27180000D02*
X59293641Y-27180000D01*
%TO.C,R1*%
X29012742Y-42977500D02*
X29487258Y-42977500D01*
X29012742Y-44022500D02*
X29487258Y-44022500D01*
%TO.C,R2*%
X37662258Y-47477500D02*
X37187742Y-47477500D01*
X37662258Y-48522500D02*
X37187742Y-48522500D01*
%TO.C,R12*%
X89693641Y-40120000D02*
X89386359Y-40120000D01*
X89693641Y-40880000D02*
X89386359Y-40880000D01*
%TO.C,C13*%
X71752164Y-51715000D02*
X71967836Y-51715000D01*
X71752164Y-52435000D02*
X71967836Y-52435000D01*
%TO.C,R13*%
X89713641Y-37445000D02*
X89406359Y-37445000D01*
X89713641Y-38205000D02*
X89406359Y-38205000D01*
%TO.C,L1*%
X30990000Y-51640000D02*
X30990000Y-52990000D01*
X30990000Y-51640000D02*
X36910000Y-51640000D01*
X30990000Y-57360000D02*
X30990000Y-56010000D01*
X30990000Y-57360000D02*
X36910000Y-57360000D01*
X36910000Y-51640000D02*
X36910000Y-52990000D01*
X36910000Y-57360000D02*
X36910000Y-56010000D01*
%TO.C,C9*%
X68967836Y-34215000D02*
X68752164Y-34215000D01*
X68967836Y-34935000D02*
X68752164Y-34935000D01*
%TO.C,Q1*%
X37312500Y-31140000D02*
X36662500Y-31140000D01*
X37312500Y-31140000D02*
X37962500Y-31140000D01*
X37312500Y-34260000D02*
X36662500Y-34260000D01*
X37312500Y-34260000D02*
X37962500Y-34260000D01*
X36150000Y-31190000D02*
X35910000Y-30860000D01*
X36390000Y-30860000D01*
X36150000Y-31190000D01*
G36*
X36150000Y-31190000D02*
G01*
X35910000Y-30860000D01*
X36390000Y-30860000D01*
X36150000Y-31190000D01*
G37*
%TO.C,C4*%
X28211252Y-45840000D02*
X26788748Y-45840000D01*
X28211252Y-47660000D02*
X26788748Y-47660000D01*
%TO.C,R11*%
X74000000Y-53671359D02*
X74000000Y-53978641D01*
X74760000Y-53671359D02*
X74760000Y-53978641D01*
%TO.C,C7*%
X81770000Y-43737164D02*
X81770000Y-43952836D01*
X82490000Y-43737164D02*
X82490000Y-43952836D01*
%TD*%
M02*
