%TF.GenerationSoftware,KiCad,Pcbnew,9.0.1*%
%TF.CreationDate,2025-04-29T02:16:07+02:00*%
%TF.ProjectId,phil-lab-11,7068696c-2d6c-4616-922d-31312e6b6963,rev?*%
%TF.SameCoordinates,Original*%
%TF.FileFunction,Copper,L1,Top*%
%TF.FilePolarity,Positive*%
%FSLAX46Y46*%
G04 Gerber Fmt 4.6, Leading zero omitted, Abs format (unit mm)*
G04 Created by KiCad (PCBNEW 9.0.1) date 2025-04-29 02:16:07*
%MOMM*%
%LPD*%
G01*
G04 APERTURE LIST*
G04 Aperture macros list*
%AMRoundRect*
0 Rectangle with rounded corners*
0 $1 Rounding radius*
0 $2 $3 $4 $5 $6 $7 $8 $9 X,Y pos of 4 corners*
0 Add a 4 corners polygon primitive as box body*
4,1,4,$2,$3,$4,$5,$6,$7,$8,$9,$2,$3,0*
0 Add four circle primitives for the rounded corners*
1,1,$1+$1,$2,$3*
1,1,$1+$1,$4,$5*
1,1,$1+$1,$6,$7*
1,1,$1+$1,$8,$9*
0 Add four rect primitives between the rounded corners*
20,1,$1+$1,$2,$3,$4,$5,0*
20,1,$1+$1,$4,$5,$6,$7,0*
20,1,$1+$1,$6,$7,$8,$9,0*
20,1,$1+$1,$8,$9,$2,$3,0*%
G04 Aperture macros list end*
%TA.AperFunction,HeatsinkPad*%
%ADD10C,1.100000*%
%TD*%
%TA.AperFunction,SMDPad,CuDef*%
%ADD11RoundRect,0.075000X-0.075000X-0.425000X0.075000X-0.425000X0.075000X0.425000X-0.075000X0.425000X0*%
%TD*%
%TA.AperFunction,SMDPad,CuDef*%
%ADD12R,3.000000X0.650000*%
%TD*%
%TA.AperFunction,SMDPad,CuDef*%
%ADD13R,2.400000X0.740000*%
%TD*%
%TA.AperFunction,SMDPad,CuDef*%
%ADD14RoundRect,0.200000X-0.200000X-0.275000X0.200000X-0.275000X0.200000X0.275000X-0.200000X0.275000X0*%
%TD*%
%TA.AperFunction,SMDPad,CuDef*%
%ADD15RoundRect,0.135000X-0.135000X-0.185000X0.135000X-0.185000X0.135000X0.185000X-0.135000X0.185000X0*%
%TD*%
%TA.AperFunction,ComponentPad*%
%ADD16RoundRect,0.250001X0.949999X0.949999X-0.949999X0.949999X-0.949999X-0.949999X0.949999X-0.949999X0*%
%TD*%
%TA.AperFunction,ComponentPad*%
%ADD17C,2.400000*%
%TD*%
%TA.AperFunction,SMDPad,CuDef*%
%ADD18RoundRect,0.075000X0.075000X-0.700000X0.075000X0.700000X-0.075000X0.700000X-0.075000X-0.700000X0*%
%TD*%
%TA.AperFunction,SMDPad,CuDef*%
%ADD19RoundRect,0.075000X0.700000X-0.075000X0.700000X0.075000X-0.700000X0.075000X-0.700000X-0.075000X0*%
%TD*%
%TA.AperFunction,SMDPad,CuDef*%
%ADD20RoundRect,0.225000X0.225000X0.375000X-0.225000X0.375000X-0.225000X-0.375000X0.225000X-0.375000X0*%
%TD*%
%TA.AperFunction,SMDPad,CuDef*%
%ADD21RoundRect,0.200000X-0.275000X0.200000X-0.275000X-0.200000X0.275000X-0.200000X0.275000X0.200000X0*%
%TD*%
%TA.AperFunction,SMDPad,CuDef*%
%ADD22RoundRect,0.140000X0.170000X-0.140000X0.170000X0.140000X-0.170000X0.140000X-0.170000X-0.140000X0*%
%TD*%
%TA.AperFunction,SMDPad,CuDef*%
%ADD23RoundRect,0.225000X0.225000X0.250000X-0.225000X0.250000X-0.225000X-0.250000X0.225000X-0.250000X0*%
%TD*%
%TA.AperFunction,SMDPad,CuDef*%
%ADD24RoundRect,0.250000X-0.325000X-0.650000X0.325000X-0.650000X0.325000X0.650000X-0.325000X0.650000X0*%
%TD*%
%TA.AperFunction,SMDPad,CuDef*%
%ADD25RoundRect,0.140000X-0.170000X0.140000X-0.170000X-0.140000X0.170000X-0.140000X0.170000X0.140000X0*%
%TD*%
%TA.AperFunction,SMDPad,CuDef*%
%ADD26RoundRect,0.218750X-0.218750X-0.381250X0.218750X-0.381250X0.218750X0.381250X-0.218750X0.381250X0*%
%TD*%
%TA.AperFunction,SMDPad,CuDef*%
%ADD27R,1.000000X0.800000*%
%TD*%
%TA.AperFunction,SMDPad,CuDef*%
%ADD28R,0.700000X1.500000*%
%TD*%
%TA.AperFunction,SMDPad,CuDef*%
%ADD29RoundRect,0.218750X0.218750X0.256250X-0.218750X0.256250X-0.218750X-0.256250X0.218750X-0.256250X0*%
%TD*%
%TA.AperFunction,SMDPad,CuDef*%
%ADD30RoundRect,0.140000X0.140000X0.170000X-0.140000X0.170000X-0.140000X-0.170000X0.140000X-0.170000X0*%
%TD*%
%TA.AperFunction,SMDPad,CuDef*%
%ADD31RoundRect,0.150000X0.512500X0.150000X-0.512500X0.150000X-0.512500X-0.150000X0.512500X-0.150000X0*%
%TD*%
%TA.AperFunction,SMDPad,CuDef*%
%ADD32RoundRect,0.150000X-0.150000X0.512500X-0.150000X-0.512500X0.150000X-0.512500X0.150000X0.512500X0*%
%TD*%
%TA.AperFunction,SMDPad,CuDef*%
%ADD33RoundRect,0.225000X-0.250000X0.225000X-0.250000X-0.225000X0.250000X-0.225000X0.250000X0.225000X0*%
%TD*%
%TA.AperFunction,SMDPad,CuDef*%
%ADD34RoundRect,0.200000X0.275000X-0.200000X0.275000X0.200000X-0.275000X0.200000X-0.275000X-0.200000X0*%
%TD*%
%TA.AperFunction,SMDPad,CuDef*%
%ADD35RoundRect,0.225000X-0.225000X-0.250000X0.225000X-0.250000X0.225000X0.250000X-0.225000X0.250000X0*%
%TD*%
%TA.AperFunction,SMDPad,CuDef*%
%ADD36RoundRect,0.225000X0.375000X-0.225000X0.375000X0.225000X-0.375000X0.225000X-0.375000X-0.225000X0*%
%TD*%
%TA.AperFunction,SMDPad,CuDef*%
%ADD37R,1.200000X1.400000*%
%TD*%
%TA.AperFunction,ComponentPad*%
%ADD38C,0.900000*%
%TD*%
%TA.AperFunction,ComponentPad*%
%ADD39C,8.600000*%
%TD*%
%TA.AperFunction,SMDPad,CuDef*%
%ADD40RoundRect,0.218750X-0.256250X0.218750X-0.256250X-0.218750X0.256250X-0.218750X0.256250X0.218750X0*%
%TD*%
%TA.AperFunction,SMDPad,CuDef*%
%ADD41RoundRect,0.200000X0.200000X0.275000X-0.200000X0.275000X-0.200000X-0.275000X0.200000X-0.275000X0*%
%TD*%
%TA.AperFunction,SMDPad,CuDef*%
%ADD42RoundRect,0.250000X0.375000X0.625000X-0.375000X0.625000X-0.375000X-0.625000X0.375000X-0.625000X0*%
%TD*%
%TA.AperFunction,SMDPad,CuDef*%
%ADD43RoundRect,0.147500X-0.147500X-0.172500X0.147500X-0.172500X0.147500X0.172500X-0.147500X0.172500X0*%
%TD*%
%TA.AperFunction,SMDPad,CuDef*%
%ADD44RoundRect,0.135000X0.135000X0.185000X-0.135000X0.185000X-0.135000X-0.185000X0.135000X-0.185000X0*%
%TD*%
%TA.AperFunction,SMDPad,CuDef*%
%ADD45RoundRect,0.140000X-0.140000X-0.170000X0.140000X-0.170000X0.140000X0.170000X-0.140000X0.170000X0*%
%TD*%
%TA.AperFunction,SMDPad,CuDef*%
%ADD46RoundRect,0.250000X-0.700000X-1.000000X0.700000X-1.000000X0.700000X1.000000X-0.700000X1.000000X0*%
%TD*%
%TA.AperFunction,SMDPad,CuDef*%
%ADD47RoundRect,0.150000X-0.587500X-0.150000X0.587500X-0.150000X0.587500X0.150000X-0.587500X0.150000X0*%
%TD*%
%TA.AperFunction,SMDPad,CuDef*%
%ADD48RoundRect,0.250000X0.325000X0.650000X-0.325000X0.650000X-0.325000X-0.650000X0.325000X-0.650000X0*%
%TD*%
%TA.AperFunction,SMDPad,CuDef*%
%ADD49RoundRect,0.135000X-0.185000X0.135000X-0.185000X-0.135000X0.185000X-0.135000X0.185000X0.135000X0*%
%TD*%
%TA.AperFunction,ViaPad*%
%ADD50C,0.600000*%
%TD*%
%TA.AperFunction,Conductor*%
%ADD51C,0.300000*%
%TD*%
%TA.AperFunction,Conductor*%
%ADD52C,0.500000*%
%TD*%
%TA.AperFunction,Conductor*%
%ADD53C,1.000000*%
%TD*%
%TA.AperFunction,Conductor*%
%ADD54C,0.750000*%
%TD*%
G04 APERTURE END LIST*
D10*
%TO.P,P1,S1,SHIELD*%
%TO.N,unconnected-(P1-SHIELD-PadS1)_3*%
X74650000Y-24700000D03*
%TO.N,unconnected-(P1-SHIELD-PadS1)_2*%
X74650000Y-20400000D03*
%TO.N,unconnected-(P1-SHIELD-PadS1)_1*%
X69850000Y-24700000D03*
%TO.N,unconnected-(P1-SHIELD-PadS1)*%
X69850000Y-20400000D03*
D11*
%TO.P,P1,B12,GND*%
%TO.N,GND*%
X69470000Y-23310000D03*
%TO.P,P1,B9,VBUS*%
%TO.N,+5V*%
X70260000Y-23310000D03*
%TO.P,P1,B8*%
%TO.N,N/C*%
X71050000Y-23310000D03*
%TO.P,P1,B7*%
X71840000Y-23310000D03*
%TO.P,P1,B6*%
X72630000Y-23310000D03*
%TO.P,P1,B5,VCONN*%
%TO.N,unconnected-(P1-VCONN-PadB5)*%
X73420000Y-23310000D03*
%TO.P,P1,B4,VBUS*%
%TO.N,+5V*%
X74210000Y-23310000D03*
%TO.P,P1,B1,GND*%
%TO.N,GND*%
X75000000Y-23310000D03*
%TO.P,P1,A12,GND*%
X75000000Y-21790000D03*
%TO.P,P1,A9,VBUS*%
%TO.N,+5V*%
X74210000Y-21790000D03*
%TO.P,P1,A8*%
%TO.N,N/C*%
X73420000Y-21790000D03*
%TO.P,P1,A7,D-*%
%TO.N,USB_CONN_D-*%
X72630000Y-21790000D03*
%TO.P,P1,A6,D+*%
%TO.N,USB_CONN_D+*%
X71840000Y-21790000D03*
%TO.P,P1,A5,CC*%
%TO.N,unconnected-(P1-CC-PadA5)*%
X71050000Y-21790000D03*
%TO.P,P1,A4,VBUS*%
%TO.N,+5V*%
X70260000Y-21790000D03*
%TO.P,P1,A1,GND*%
%TO.N,GND*%
X69470000Y-21790000D03*
%TD*%
D12*
%TO.P,J4,1,Pin_1*%
%TO.N,GND*%
X98300000Y-34960000D03*
%TO.P,J4,2,Pin_2*%
%TO.N,Net-(J4-Pin_2)*%
X95300000Y-36230000D03*
%TO.P,J4,3,Pin_3*%
%TO.N,Net-(J4-Pin_3)*%
X98300000Y-37500000D03*
%TO.P,J4,4,Pin_4*%
%TO.N,+3.3V*%
X95300000Y-38770000D03*
%TD*%
%TO.P,J3,1,Pin_1*%
%TO.N,GND*%
X51000000Y-40940000D03*
%TO.P,J3,2,Pin_2*%
%TO.N,Net-(J3-Pin_2)*%
X54000000Y-39670000D03*
%TO.P,J3,3,Pin_3*%
%TO.N,Net-(J3-Pin_3)*%
X51000000Y-38400000D03*
%TO.P,J3,4,Pin_4*%
%TO.N,+3.3V*%
X54000000Y-37130000D03*
%TD*%
D13*
%TO.P,J2,1,Pin_1*%
%TO.N,+3.3V*%
X51750000Y-26750000D03*
%TO.P,J2,2,Pin_2*%
%TO.N,Net-(J2-Pin_2)*%
X55650000Y-26750000D03*
%TO.P,J2,3,Pin_3*%
%TO.N,GND*%
X51750000Y-28020000D03*
%TO.P,J2,4,Pin_4*%
%TO.N,SWCLK*%
X55650000Y-28020000D03*
%TO.P,J2,5,Pin_5*%
%TO.N,GND*%
X51750000Y-29290000D03*
%TO.P,J2,6,Pin_6*%
%TO.N,SWO*%
X55650000Y-29290000D03*
%TO.P,J2,7,Pin_7*%
%TO.N,unconnected-(J2-Pin_7-Pad7)*%
X51750000Y-30560000D03*
%TO.P,J2,8,Pin_8*%
%TO.N,unconnected-(J2-Pin_8-Pad8)*%
X55650000Y-30560000D03*
%TO.P,J2,9,Pin_9*%
%TO.N,GND*%
X51750000Y-31830000D03*
%TO.P,J2,10,Pin_10*%
%TO.N,NRST*%
X55650000Y-31830000D03*
%TD*%
D14*
%TO.P,R3,1*%
%TO.N,BUCK_EN*%
X31925000Y-43500000D03*
%TO.P,R3,2*%
%TO.N,GND*%
X33575000Y-43500000D03*
%TD*%
D15*
%TO.P,R10,1*%
%TO.N,Net-(J3-Pin_2)*%
X58240000Y-40500000D03*
%TO.P,R10,2*%
%TO.N,I2C1_SDA*%
X59260000Y-40500000D03*
%TD*%
D16*
%TO.P,J1,1,Pin_1*%
%TO.N,+12V*%
X39250000Y-25000000D03*
D17*
%TO.P,J1,2,Pin_2*%
%TO.N,GND*%
X35750000Y-25000000D03*
%TD*%
D18*
%TO.P,U3,1,VBAT*%
%TO.N,+3.3V*%
X70630000Y-46425000D03*
%TO.P,U3,2,PC13*%
%TO.N,unconnected-(U3-PC13-Pad2)*%
X71130000Y-46425000D03*
%TO.P,U3,3,PC14*%
%TO.N,unconnected-(U3-PC14-Pad3)*%
X71630000Y-46425000D03*
%TO.P,U3,4,PC15*%
%TO.N,unconnected-(U3-PC15-Pad4)*%
X72130000Y-46425000D03*
%TO.P,U3,5,PH0*%
%TO.N,HSE_IN*%
X72630000Y-46425000D03*
%TO.P,U3,6,PH1*%
%TO.N,HSE_OUT*%
X73130000Y-46425000D03*
%TO.P,U3,7,NRST*%
%TO.N,NRST*%
X73630000Y-46425000D03*
%TO.P,U3,8,PC0*%
%TO.N,unconnected-(U3-PC0-Pad8)*%
X74130000Y-46425000D03*
%TO.P,U3,9,PC1*%
%TO.N,unconnected-(U3-PC1-Pad9)*%
X74630000Y-46425000D03*
%TO.P,U3,10,PC2*%
%TO.N,unconnected-(U3-PC2-Pad10)*%
X75130000Y-46425000D03*
%TO.P,U3,11,PC3*%
%TO.N,unconnected-(U3-PC3-Pad11)*%
X75630000Y-46425000D03*
%TO.P,U3,12,VSSA*%
%TO.N,GND*%
X76130000Y-46425000D03*
%TO.P,U3,13,VDDA*%
%TO.N,+3.3VA*%
X76630000Y-46425000D03*
%TO.P,U3,14,PA0*%
%TO.N,unconnected-(U3-PA0-Pad14)*%
X77130000Y-46425000D03*
%TO.P,U3,15,PA1*%
%TO.N,unconnected-(U3-PA1-Pad15)*%
X77630000Y-46425000D03*
%TO.P,U3,16,PA2*%
%TO.N,LED_STATUS*%
X78130000Y-46425000D03*
D19*
%TO.P,U3,17,PA3*%
%TO.N,unconnected-(U3-PA3-Pad17)*%
X80055000Y-44500000D03*
%TO.P,U3,18,VSS*%
%TO.N,GND*%
X80055000Y-44000000D03*
%TO.P,U3,19,VDD*%
%TO.N,+3.3V*%
X80055000Y-43500000D03*
%TO.P,U3,20,PA4*%
%TO.N,unconnected-(U3-PA4-Pad20)*%
X80055000Y-43000000D03*
%TO.P,U3,21,PA5*%
%TO.N,unconnected-(U3-PA5-Pad21)*%
X80055000Y-42500000D03*
%TO.P,U3,22,PA6*%
%TO.N,unconnected-(U3-PA6-Pad22)*%
X80055000Y-42000000D03*
%TO.P,U3,23,PA7*%
%TO.N,unconnected-(U3-PA7-Pad23)*%
X80055000Y-41500000D03*
%TO.P,U3,24,PC4*%
%TO.N,unconnected-(U3-PC4-Pad24)*%
X80055000Y-41000000D03*
%TO.P,U3,25,PC5*%
%TO.N,unconnected-(U3-PC5-Pad25)*%
X80055000Y-40500000D03*
%TO.P,U3,26,PB0*%
%TO.N,unconnected-(U3-PB0-Pad26)*%
X80055000Y-40000000D03*
%TO.P,U3,27,PB1*%
%TO.N,unconnected-(U3-PB1-Pad27)*%
X80055000Y-39500000D03*
%TO.P,U3,28,PB2*%
%TO.N,unconnected-(U3-PB2-Pad28)*%
X80055000Y-39000000D03*
%TO.P,U3,29,PB10*%
%TO.N,USART3_TX*%
X80055000Y-38500000D03*
%TO.P,U3,30,PB11*%
%TO.N,USART3_RX*%
X80055000Y-38000000D03*
%TO.P,U3,31,VCAP_1*%
%TO.N,Net-(U3-VCAP_1)*%
X80055000Y-37500000D03*
%TO.P,U3,32,VDD*%
%TO.N,+3.3V*%
X80055000Y-37000000D03*
D18*
%TO.P,U3,33,PB12*%
%TO.N,unconnected-(U3-PB12-Pad33)*%
X78130000Y-35075000D03*
%TO.P,U3,34,PB13*%
%TO.N,unconnected-(U3-PB13-Pad34)*%
X77630000Y-35075000D03*
%TO.P,U3,35,PB14*%
%TO.N,unconnected-(U3-PB14-Pad35)*%
X77130000Y-35075000D03*
%TO.P,U3,36,PB15*%
%TO.N,unconnected-(U3-PB15-Pad36)*%
X76630000Y-35075000D03*
%TO.P,U3,37,PC6*%
%TO.N,unconnected-(U3-PC6-Pad37)*%
X76130000Y-35075000D03*
%TO.P,U3,38,PC7*%
%TO.N,unconnected-(U3-PC7-Pad38)*%
X75630000Y-35075000D03*
%TO.P,U3,39,PC8*%
%TO.N,unconnected-(U3-PC8-Pad39)*%
X75130000Y-35075000D03*
%TO.P,U3,40,PC9*%
%TO.N,unconnected-(U3-PC9-Pad40)*%
X74630000Y-35075000D03*
%TO.P,U3,41,PA8*%
%TO.N,unconnected-(U3-PA8-Pad41)*%
X74130000Y-35075000D03*
%TO.P,U3,42,PA9*%
%TO.N,unconnected-(U3-PA9-Pad42)*%
X73630000Y-35075000D03*
%TO.P,U3,43,PA10*%
%TO.N,unconnected-(U3-PA10-Pad43)*%
X73130000Y-35075000D03*
%TO.P,U3,44,PA11*%
%TO.N,USB_D-*%
X72630000Y-35075000D03*
%TO.P,U3,45,PA12*%
%TO.N,USB_D+*%
X72130000Y-35075000D03*
%TO.P,U3,46,PA13*%
%TO.N,SWDIO*%
X71630000Y-35075000D03*
%TO.P,U3,47,VCAP_2*%
%TO.N,Net-(U3-VCAP_2)*%
X71130000Y-35075000D03*
%TO.P,U3,48,VDD*%
%TO.N,+3.3V*%
X70630000Y-35075000D03*
D19*
%TO.P,U3,49,PA14*%
%TO.N,SWCLK*%
X68705000Y-37000000D03*
%TO.P,U3,50,PA15*%
%TO.N,unconnected-(U3-PA15-Pad50)*%
X68705000Y-37500000D03*
%TO.P,U3,51,PC10*%
%TO.N,unconnected-(U3-PC10-Pad51)*%
X68705000Y-38000000D03*
%TO.P,U3,52,PC11*%
%TO.N,unconnected-(U3-PC11-Pad52)*%
X68705000Y-38500000D03*
%TO.P,U3,53,PC12*%
%TO.N,unconnected-(U3-PC12-Pad53)*%
X68705000Y-39000000D03*
%TO.P,U3,54,PD2*%
%TO.N,unconnected-(U3-PD2-Pad54)*%
X68705000Y-39500000D03*
%TO.P,U3,55,PB3*%
%TO.N,SWO*%
X68705000Y-40000000D03*
%TO.P,U3,56,PB4*%
%TO.N,unconnected-(U3-PB4-Pad56)*%
X68705000Y-40500000D03*
%TO.P,U3,57,PB5*%
%TO.N,unconnected-(U3-PB5-Pad57)*%
X68705000Y-41000000D03*
%TO.P,U3,58,PB6*%
%TO.N,I2C1_SCL*%
X68705000Y-41500000D03*
%TO.P,U3,59,PB7*%
%TO.N,I2C1_SDA*%
X68705000Y-42000000D03*
%TO.P,U3,60,BOOT0*%
%TO.N,BOOT0*%
X68705000Y-42500000D03*
%TO.P,U3,61,PB8*%
%TO.N,unconnected-(U3-PB8-Pad61)*%
X68705000Y-43000000D03*
%TO.P,U3,62,PB9*%
%TO.N,unconnected-(U3-PB9-Pad62)*%
X68705000Y-43500000D03*
%TO.P,U3,63,VSS*%
%TO.N,GND*%
X68705000Y-44000000D03*
%TO.P,U3,64,VDD*%
%TO.N,+3.3V*%
X68705000Y-44500000D03*
%TD*%
D20*
%TO.P,D3,1,K*%
%TO.N,BUCK_SW*%
X29150000Y-50250000D03*
%TO.P,D3,2,A*%
%TO.N,GND*%
X25850000Y-50250000D03*
%TD*%
D21*
%TO.P,R5,1*%
%TO.N,Net-(D2-K)*%
X43250000Y-47950000D03*
%TO.P,R5,2*%
%TO.N,GND*%
X43250000Y-49600000D03*
%TD*%
D22*
%TO.P,C8,1*%
%TO.N,+3.3V*%
X80630000Y-35555000D03*
%TO.P,C8,2*%
%TO.N,GND*%
X80630000Y-34595000D03*
%TD*%
D23*
%TO.P,C16,1*%
%TO.N,Net-(U3-VCAP_2)*%
X70275000Y-32500000D03*
%TO.P,C16,2*%
%TO.N,GND*%
X68725000Y-32500000D03*
%TD*%
%TO.P,C1,1*%
%TO.N,BUCK_BST*%
X33550000Y-50250000D03*
%TO.P,C1,2*%
%TO.N,BUCK_SW*%
X32000000Y-50250000D03*
%TD*%
D24*
%TO.P,C2,1*%
%TO.N,+3.3V*%
X40050000Y-53500000D03*
%TO.P,C2,2*%
%TO.N,GND*%
X43000000Y-53500000D03*
%TD*%
D25*
%TO.P,C6,1*%
%TO.N,+3.3V*%
X70380000Y-48115000D03*
%TO.P,C6,2*%
%TO.N,GND*%
X70380000Y-49075000D03*
%TD*%
D15*
%TO.P,R9,1*%
%TO.N,Net-(J3-Pin_3)*%
X58250000Y-37500000D03*
%TO.P,R9,2*%
%TO.N,I2C1_SCL*%
X59270000Y-37500000D03*
%TD*%
D14*
%TO.P,R4,1*%
%TO.N,BUCK_FB*%
X36750000Y-45750000D03*
%TO.P,R4,2*%
%TO.N,Net-(R4-Pad2)*%
X38400000Y-45750000D03*
%TD*%
D26*
%TO.P,FB1,1*%
%TO.N,Net-(F1-Pad2)*%
X29250000Y-37750000D03*
%TO.P,FB1,2*%
%TO.N,BUCK_IN*%
X31375000Y-37750000D03*
%TD*%
D27*
%TO.P,SW1,*%
%TO.N,*%
X92650000Y-23755000D03*
X92650000Y-21545000D03*
X85350000Y-23755000D03*
X85350000Y-21545000D03*
D28*
%TO.P,SW1,1,A*%
%TO.N,+3.3V*%
X91250000Y-24405000D03*
%TO.P,SW1,2,B*%
%TO.N,Net-(SW1-B)*%
X88250000Y-24405000D03*
%TO.P,SW1,3,C*%
%TO.N,GND*%
X86750000Y-24405000D03*
%TD*%
D29*
%TO.P,D4,1,K*%
%TO.N,Net-(D4-K)*%
X103500000Y-46250000D03*
%TO.P,D4,2,A*%
%TO.N,LED_STATUS*%
X101925000Y-46250000D03*
%TD*%
D30*
%TO.P,C12,1*%
%TO.N,+3.3VA*%
X76880000Y-48325000D03*
%TO.P,C12,2*%
%TO.N,GND*%
X75920000Y-48325000D03*
%TD*%
D22*
%TO.P,C10,1*%
%TO.N,+3.3V*%
X66880000Y-45035000D03*
%TO.P,C10,2*%
%TO.N,GND*%
X66880000Y-44075000D03*
%TD*%
D24*
%TO.P,C3,1*%
%TO.N,+3.3V*%
X40000000Y-56475000D03*
%TO.P,C3,2*%
%TO.N,GND*%
X42950000Y-56475000D03*
%TD*%
D31*
%TO.P,U1,1,BST*%
%TO.N,BUCK_BST*%
X33912500Y-48150000D03*
%TO.P,U1,2,GND*%
%TO.N,GND*%
X33912500Y-47200000D03*
%TO.P,U1,3,FB*%
%TO.N,BUCK_FB*%
X33912500Y-46250000D03*
%TO.P,U1,4,EN*%
%TO.N,BUCK_EN*%
X31637500Y-46250000D03*
%TO.P,U1,5,IN*%
%TO.N,BUCK_IN*%
X31637500Y-47200000D03*
%TO.P,U1,6,SW*%
%TO.N,BUCK_SW*%
X31637500Y-48150000D03*
%TD*%
D32*
%TO.P,U2,1,I/O1*%
%TO.N,USB_CONN_D-*%
X73250000Y-27025000D03*
%TO.P,U2,2,GND*%
%TO.N,GND*%
X72300000Y-27025000D03*
%TO.P,U2,3,I/O2*%
%TO.N,USB_CONN_D+*%
X71350000Y-27025000D03*
%TO.P,U2,4,I/O2*%
%TO.N,USB_D+*%
X71350000Y-29300000D03*
%TO.P,U2,5,VBUS*%
%TO.N,+5V*%
X72300000Y-29300000D03*
%TO.P,U2,6,I/O1*%
%TO.N,USB_D-*%
X73250000Y-29300000D03*
%TD*%
D33*
%TO.P,C5,1*%
%TO.N,+3.3V*%
X85250000Y-43200000D03*
%TO.P,C5,2*%
%TO.N,GND*%
X85250000Y-44750000D03*
%TD*%
D34*
%TO.P,R16,1*%
%TO.N,+3.3V*%
X63750000Y-42325000D03*
%TO.P,R16,2*%
%TO.N,I2C1_SDA*%
X63750000Y-40675000D03*
%TD*%
D30*
%TO.P,C14,1*%
%TO.N,Net-(C14-Pad1)*%
X72380000Y-57825000D03*
%TO.P,C14,2*%
%TO.N,GND*%
X71420000Y-57825000D03*
%TD*%
D35*
%TO.P,C15,1*%
%TO.N,Net-(U3-VCAP_1)*%
X82355000Y-37075000D03*
%TO.P,C15,2*%
%TO.N,GND*%
X83905000Y-37075000D03*
%TD*%
D36*
%TO.P,D1,1,K*%
%TO.N,Net-(D1-K)*%
X42500000Y-35000000D03*
%TO.P,D1,2,A*%
%TO.N,+5V*%
X42500000Y-31700000D03*
%TD*%
D37*
%TO.P,Y1,1,1*%
%TO.N,Net-(C14-Pad1)*%
X72630000Y-56025000D03*
%TO.P,Y1,2,2*%
%TO.N,GND*%
X72630000Y-53825000D03*
%TO.P,Y1,3,3*%
%TO.N,HSE_IN*%
X70930000Y-53825000D03*
%TO.P,Y1,4,4*%
%TO.N,GND*%
X70930000Y-56025000D03*
%TD*%
D38*
%TO.P,H3,1,1*%
%TO.N,GND*%
X21800000Y-61610913D03*
X22744581Y-59330494D03*
X22744581Y-63891332D03*
X25025000Y-58385913D03*
D39*
X25025000Y-61610913D03*
D38*
X25025000Y-64835913D03*
X27305419Y-59330494D03*
X27305419Y-63891332D03*
X28250000Y-61610913D03*
%TD*%
%TO.P,H2,1,1*%
%TO.N,GND*%
X96994581Y-24750000D03*
X97939162Y-22469581D03*
X97939162Y-27030419D03*
X100219581Y-21525000D03*
D39*
X100219581Y-24750000D03*
D38*
X100219581Y-27975000D03*
X102500000Y-22469581D03*
X102500000Y-27030419D03*
X103444581Y-24750000D03*
%TD*%
%TO.P,H4,1,1*%
%TO.N,GND*%
X96994581Y-61580494D03*
X97939162Y-59300075D03*
X97939162Y-63860913D03*
X100219581Y-58355494D03*
D39*
X100219581Y-61580494D03*
D38*
X100219581Y-64805494D03*
X102500000Y-59300075D03*
X102500000Y-63860913D03*
X103444581Y-61580494D03*
%TD*%
D40*
%TO.P,D2,1,K*%
%TO.N,Net-(D2-K)*%
X40750000Y-48000000D03*
%TO.P,D2,2,A*%
%TO.N,+3.3V*%
X40750000Y-49575000D03*
%TD*%
D41*
%TO.P,R6,1*%
%TO.N,Net-(R4-Pad2)*%
X38400000Y-43550000D03*
%TO.P,R6,2*%
%TO.N,GND*%
X36750000Y-43550000D03*
%TD*%
D42*
%TO.P,F1,1*%
%TO.N,Net-(D1-K)*%
X31650000Y-33250000D03*
%TO.P,F1,2*%
%TO.N,Net-(F1-Pad2)*%
X28850000Y-33250000D03*
%TD*%
D43*
%TO.P,L2,1*%
%TO.N,+3.3V*%
X75880000Y-50825000D03*
%TO.P,L2,2*%
%TO.N,+3.3VA*%
X76850000Y-50825000D03*
%TD*%
D44*
%TO.P,R7,1*%
%TO.N,BOOT0*%
X66890000Y-42825000D03*
%TO.P,R7,2*%
%TO.N,Net-(SW1-B)*%
X65870000Y-42825000D03*
%TD*%
D21*
%TO.P,R15,1*%
%TO.N,+3.3V*%
X63750000Y-35675000D03*
%TO.P,R15,2*%
%TO.N,I2C1_SCL*%
X63750000Y-37325000D03*
%TD*%
D30*
%TO.P,C11,1*%
%TO.N,+3.3VA*%
X76880000Y-49575000D03*
%TO.P,C11,2*%
%TO.N,GND*%
X75920000Y-49575000D03*
%TD*%
D41*
%TO.P,R14,1*%
%TO.N,Net-(D4-K)*%
X103500000Y-44000000D03*
%TO.P,R14,2*%
%TO.N,GND*%
X101850000Y-44000000D03*
%TD*%
D15*
%TO.P,R8,1*%
%TO.N,Net-(J2-Pin_2)*%
X58630000Y-26800000D03*
%TO.P,R8,2*%
%TO.N,SWDIO*%
X59650000Y-26800000D03*
%TD*%
D14*
%TO.P,R1,1*%
%TO.N,BUCK_IN*%
X28425000Y-43500000D03*
%TO.P,R1,2*%
%TO.N,BUCK_EN*%
X30075000Y-43500000D03*
%TD*%
D41*
%TO.P,R2,1*%
%TO.N,+3.3V*%
X38250000Y-48000000D03*
%TO.P,R2,2*%
%TO.N,BUCK_FB*%
X36600000Y-48000000D03*
%TD*%
D44*
%TO.P,R12,1*%
%TO.N,Net-(J4-Pin_3)*%
X90050000Y-40500000D03*
%TO.P,R12,2*%
%TO.N,USART3_TX*%
X89030000Y-40500000D03*
%TD*%
D45*
%TO.P,C13,1*%
%TO.N,HSE_IN*%
X71380000Y-52075000D03*
%TO.P,C13,2*%
%TO.N,GND*%
X72340000Y-52075000D03*
%TD*%
D44*
%TO.P,R13,1*%
%TO.N,Net-(J4-Pin_2)*%
X90070000Y-37825000D03*
%TO.P,R13,2*%
%TO.N,USART3_RX*%
X89050000Y-37825000D03*
%TD*%
D46*
%TO.P,L1,1*%
%TO.N,BUCK_SW*%
X31900000Y-54500000D03*
%TO.P,L1,2*%
%TO.N,+3.3V*%
X36000000Y-54500000D03*
%TD*%
D30*
%TO.P,C9,1*%
%TO.N,+3.3V*%
X69340000Y-34575000D03*
%TO.P,C9,2*%
%TO.N,GND*%
X68380000Y-34575000D03*
%TD*%
D47*
%TO.P,Q1,1,G*%
%TO.N,GND*%
X36375000Y-31750000D03*
%TO.P,Q1,2,S*%
%TO.N,Net-(D1-K)*%
X36375000Y-33650000D03*
%TO.P,Q1,3,D*%
%TO.N,+12V*%
X38250000Y-32700000D03*
%TD*%
D48*
%TO.P,C4,1*%
%TO.N,BUCK_IN*%
X28975000Y-46750000D03*
%TO.P,C4,2*%
%TO.N,GND*%
X26025000Y-46750000D03*
%TD*%
D49*
%TO.P,R11,1*%
%TO.N,HSE_OUT*%
X74380000Y-53315000D03*
%TO.P,R11,2*%
%TO.N,Net-(C14-Pad1)*%
X74380000Y-54335000D03*
%TD*%
D25*
%TO.P,C7,1*%
%TO.N,+3.3V*%
X82130000Y-43365000D03*
%TO.P,C7,2*%
%TO.N,GND*%
X82130000Y-44325000D03*
%TD*%
D38*
%TO.P,H1,1,1*%
%TO.N,GND*%
X21775000Y-24750000D03*
X22719581Y-22469581D03*
X22719581Y-27030419D03*
X25000000Y-21525000D03*
D39*
X25000000Y-24750000D03*
D38*
X25000000Y-27975000D03*
X27280419Y-22469581D03*
X27280419Y-27030419D03*
X28225000Y-24750000D03*
%TD*%
D50*
%TO.N,+5V*%
X62450000Y-24750000D03*
X63200000Y-24750000D03*
X64000000Y-24750000D03*
X64750000Y-24750000D03*
X71000000Y-24450000D03*
X73500000Y-24400000D03*
X73550000Y-20700000D03*
X70900000Y-20700000D03*
%TO.N,GND*%
X68650000Y-23750000D03*
X68750000Y-21250000D03*
X75850000Y-21300000D03*
%TO.N,USB_CONN_D-*%
X73250000Y-25950000D03*
X72650000Y-21050000D03*
%TO.N,USB_CONN_D+*%
X71350000Y-25950000D03*
X71850000Y-21050000D03*
%TO.N,GND*%
X72800000Y-28162500D03*
%TO.N,NRST*%
X55650000Y-33750000D03*
%TO.N,GND*%
X50000000Y-31850000D03*
X50000000Y-28000000D03*
%TO.N,+3.3V*%
X76000000Y-51750000D03*
%TO.N,GND*%
X35500000Y-30500000D03*
X35250000Y-47250000D03*
X43390000Y-50730000D03*
X43040000Y-51860000D03*
X44460000Y-49620000D03*
X44530000Y-58100000D03*
X75130000Y-48120000D03*
X85000000Y-37090000D03*
X24610000Y-45000000D03*
X66040000Y-44100000D03*
X51000000Y-42550000D03*
X24250000Y-48680000D03*
X69200000Y-56070000D03*
X50000000Y-29300000D03*
X69540000Y-49060000D03*
X34700000Y-43530000D03*
X44400000Y-56940000D03*
X43000000Y-58090000D03*
X24590000Y-47490000D03*
X24550000Y-49810000D03*
X68370000Y-33720000D03*
X44400000Y-51360000D03*
X98300000Y-33330000D03*
X44410000Y-55840000D03*
X24610000Y-46750000D03*
X24610000Y-46050000D03*
X85790000Y-24940000D03*
X68640000Y-31380000D03*
X24530000Y-50670000D03*
X100770000Y-44040000D03*
X82160000Y-45120000D03*
X35610000Y-43560000D03*
X75850000Y-23850000D03*
X44440000Y-53990000D03*
X44430000Y-52870000D03*
X86340000Y-44820000D03*
X81500000Y-34620000D03*
%TO.N,+3.3V*%
X82150000Y-42560000D03*
X38650000Y-52920000D03*
X54000000Y-35450000D03*
X38490000Y-56880000D03*
X69370000Y-33700000D03*
X39570000Y-49550000D03*
X40150000Y-58250000D03*
X39280000Y-48010000D03*
X36710000Y-52400000D03*
X35270000Y-56610000D03*
X62650000Y-42340000D03*
X66930000Y-45830000D03*
X38560000Y-56030000D03*
X91290000Y-25790000D03*
X38610000Y-54050000D03*
X81470000Y-35550000D03*
X62640000Y-35650000D03*
X50000000Y-26750000D03*
X35150000Y-52400000D03*
X95300000Y-40380000D03*
X40730000Y-50650000D03*
X36950000Y-50780000D03*
X36070000Y-56610000D03*
X36770000Y-56610000D03*
X38420000Y-51190000D03*
X69540000Y-48130000D03*
X35960000Y-52390000D03*
X37700000Y-57850000D03*
X40100000Y-51830000D03*
X35820000Y-57890000D03*
X38260000Y-49180000D03*
%TO.N,Net-(SW1-B)*%
X64700000Y-43720000D03*
X79110000Y-31740000D03*
%TO.N,NRST*%
X70500000Y-38000000D03*
%TD*%
D51*
%TO.N,GND*%
X75540000Y-23850000D02*
X75850000Y-23850000D01*
X75000000Y-23310000D02*
X75540000Y-23850000D01*
X75490000Y-21300000D02*
X75850000Y-21300000D01*
X75000000Y-21790000D02*
X75490000Y-21300000D01*
X69090000Y-23310000D02*
X68650000Y-23750000D01*
X69470000Y-23310000D02*
X69090000Y-23310000D01*
X69290000Y-21790000D02*
X68750000Y-21250000D01*
X69470000Y-21790000D02*
X69290000Y-21790000D01*
D52*
%TO.N,+5V*%
X49450000Y-24750000D02*
X65400000Y-24750000D01*
D51*
X70260000Y-23710000D02*
X71000000Y-24450000D01*
X70260000Y-23310000D02*
X70260000Y-23710000D01*
X74210000Y-23690000D02*
X73500000Y-24400000D01*
X74210000Y-23310000D02*
X74210000Y-23690000D01*
X74210000Y-21360000D02*
X73550000Y-20700000D01*
X74210000Y-21790000D02*
X74210000Y-21360000D01*
X70260000Y-21790000D02*
X70260000Y-21340000D01*
X70260000Y-21340000D02*
X70900000Y-20700000D01*
D52*
X67300000Y-26650000D02*
X66800000Y-26150000D01*
D51*
%TO.N,USB_D-*%
X73250000Y-29931000D02*
X73250000Y-29300000D01*
X72631000Y-30550000D02*
X73250000Y-29931000D01*
X72631000Y-33069000D02*
X72631000Y-30550000D01*
X72630000Y-33070000D02*
X72631000Y-33069000D01*
X72630000Y-35075000D02*
X72630000Y-33070000D01*
%TO.N,USB_D+*%
X72130000Y-30505178D02*
X71350000Y-29725178D01*
X72130000Y-35075000D02*
X72130000Y-30505178D01*
X71350000Y-29725178D02*
X71350000Y-29300000D01*
D52*
%TO.N,+5V*%
X65400000Y-24750000D02*
X66800000Y-26150000D01*
X68788500Y-28138500D02*
X67300000Y-26650000D01*
X72300000Y-28724575D02*
X71713925Y-28138500D01*
X71713925Y-28138500D02*
X68788500Y-28138500D01*
X72300000Y-29300000D02*
X72300000Y-28724575D01*
D51*
%TO.N,GND*%
X69460000Y-23300000D02*
X69470000Y-23310000D01*
X69460000Y-21800000D02*
X69470000Y-21790000D01*
%TO.N,USB_CONN_D-*%
X73250000Y-25950000D02*
X73250000Y-27025000D01*
X72630000Y-21070000D02*
X72650000Y-21050000D01*
X72630000Y-21790000D02*
X72630000Y-21070000D01*
%TO.N,USB_CONN_D+*%
X71350000Y-25950000D02*
X71350000Y-27025000D01*
X71840000Y-21790000D02*
X71840000Y-21060000D01*
X71840000Y-21060000D02*
X71850000Y-21050000D01*
%TO.N,SWO*%
X56480000Y-29290000D02*
X55650000Y-29290000D01*
X59250000Y-32060000D02*
X56480000Y-29290000D01*
X59250000Y-33000000D02*
X59250000Y-32060000D01*
%TO.N,SWCLK*%
X67500000Y-37000000D02*
X68705000Y-37000000D01*
X61500000Y-33250000D02*
X65500000Y-33250000D01*
X66250000Y-34000000D02*
X66250000Y-35750000D01*
X66250000Y-35750000D02*
X67500000Y-37000000D01*
X60750000Y-32500000D02*
X61500000Y-33250000D01*
X59370000Y-28020000D02*
X60750000Y-29400000D01*
X60750000Y-29400000D02*
X60750000Y-32500000D01*
X55650000Y-28020000D02*
X59370000Y-28020000D01*
X65500000Y-33250000D02*
X66250000Y-34000000D01*
%TO.N,Net-(J4-Pin_3)*%
X93550000Y-37500000D02*
X98300000Y-37500000D01*
X90550000Y-40500000D02*
X93550000Y-37500000D01*
X90050000Y-40500000D02*
X90550000Y-40500000D01*
%TO.N,Net-(J4-Pin_2)*%
X92020000Y-36230000D02*
X95300000Y-36230000D01*
X90425000Y-37825000D02*
X92020000Y-36230000D01*
X90070000Y-37825000D02*
X90425000Y-37825000D01*
D53*
%TO.N,+3.3V*%
X95300000Y-40380000D02*
X95300000Y-38770000D01*
%TO.N,GND*%
X98300000Y-33330000D02*
X98300000Y-34960000D01*
X51000000Y-42550000D02*
X51000000Y-40940000D01*
%TO.N,+3.3V*%
X54000000Y-37130000D02*
X54000000Y-35450000D01*
D51*
%TO.N,Net-(J3-Pin_3)*%
X57350000Y-38400000D02*
X58250000Y-37500000D01*
X51000000Y-38400000D02*
X57350000Y-38400000D01*
%TO.N,Net-(J3-Pin_2)*%
X57410000Y-39670000D02*
X58240000Y-40500000D01*
X54000000Y-39670000D02*
X57410000Y-39670000D01*
%TO.N,Net-(J2-Pin_2)*%
X58580000Y-26750000D02*
X58630000Y-26800000D01*
X55650000Y-26750000D02*
X58580000Y-26750000D01*
%TO.N,NRST*%
X55650000Y-33750000D02*
X55650000Y-31830000D01*
%TO.N,SWDIO*%
X60300000Y-26800000D02*
X67000000Y-33500000D01*
X59650000Y-26800000D02*
X60300000Y-26800000D01*
D53*
%TO.N,GND*%
X51730000Y-28000000D02*
X51750000Y-28020000D01*
X50000000Y-28000000D02*
X51730000Y-28000000D01*
X50000000Y-31850000D02*
X51730000Y-31850000D01*
X51730000Y-31850000D02*
X51750000Y-31830000D01*
X51740000Y-29300000D02*
X51750000Y-29290000D01*
X50000000Y-29300000D02*
X51740000Y-29300000D01*
%TO.N,+3.3V*%
X50000000Y-26750000D02*
X51750000Y-26750000D01*
D52*
X75880000Y-51630000D02*
X76000000Y-51750000D01*
X75880000Y-50825000D02*
X75880000Y-51630000D01*
D53*
%TO.N,GND*%
X36375000Y-31375000D02*
X35500000Y-30500000D01*
X36375000Y-31750000D02*
X36375000Y-31375000D01*
D52*
X35200000Y-47200000D02*
X35250000Y-47250000D01*
X33912500Y-47200000D02*
X35200000Y-47200000D01*
D54*
X83920000Y-37090000D02*
X83905000Y-37075000D01*
X75715000Y-48120000D02*
X75920000Y-48325000D01*
X66855000Y-44100000D02*
X66880000Y-44075000D01*
X86340000Y-44820000D02*
X85320000Y-44820000D01*
D53*
X35580000Y-43530000D02*
X35610000Y-43560000D01*
X34700000Y-43530000D02*
X35580000Y-43530000D01*
D51*
X72630000Y-53825000D02*
X72630000Y-54225000D01*
X84825000Y-44325000D02*
X85250000Y-44750000D01*
D54*
X86215000Y-24940000D02*
X86750000Y-24405000D01*
D52*
X72300000Y-27662500D02*
X72300000Y-27025000D01*
D54*
X85320000Y-44820000D02*
X85250000Y-44750000D01*
D51*
X69245000Y-56025000D02*
X69200000Y-56070000D01*
D54*
X85000000Y-37090000D02*
X83920000Y-37090000D01*
D51*
X72630000Y-54225000D02*
X70930000Y-55925000D01*
D54*
X82160000Y-45120000D02*
X82160000Y-44355000D01*
X82160000Y-44355000D02*
X82130000Y-44325000D01*
D51*
X71420000Y-57825000D02*
X71420000Y-56515000D01*
D54*
X68640000Y-32415000D02*
X68725000Y-32500000D01*
D51*
X76130000Y-46425000D02*
X76130000Y-48115000D01*
D53*
X35610000Y-43560000D02*
X36740000Y-43560000D01*
D51*
X66955000Y-44000000D02*
X66880000Y-44075000D01*
X81805000Y-44000000D02*
X82130000Y-44325000D01*
D54*
X66040000Y-44100000D02*
X66855000Y-44100000D01*
X100770000Y-44040000D02*
X101810000Y-44040000D01*
D51*
X70930000Y-56025000D02*
X69245000Y-56025000D01*
X72340000Y-53535000D02*
X72630000Y-53825000D01*
X68705000Y-44000000D02*
X66955000Y-44000000D01*
X75920000Y-49575000D02*
X75920000Y-48325000D01*
D54*
X68370000Y-32855000D02*
X68370000Y-33720000D01*
X101810000Y-44040000D02*
X101850000Y-44000000D01*
D51*
X80055000Y-44000000D02*
X81805000Y-44000000D01*
X76130000Y-48115000D02*
X75920000Y-48325000D01*
D53*
X34670000Y-43500000D02*
X34700000Y-43530000D01*
D54*
X68370000Y-34565000D02*
X68380000Y-34575000D01*
X69555000Y-49075000D02*
X69540000Y-49060000D01*
X68640000Y-31380000D02*
X68640000Y-32415000D01*
D51*
X71420000Y-56515000D02*
X70930000Y-56025000D01*
D53*
X33575000Y-43500000D02*
X34670000Y-43500000D01*
D51*
X70930000Y-55925000D02*
X70930000Y-56025000D01*
D54*
X80655000Y-34620000D02*
X80630000Y-34595000D01*
X68370000Y-33720000D02*
X68370000Y-34565000D01*
D51*
X82130000Y-44325000D02*
X84825000Y-44325000D01*
D54*
X68725000Y-32500000D02*
X68370000Y-32855000D01*
X70380000Y-49075000D02*
X69555000Y-49075000D01*
D53*
X36740000Y-43560000D02*
X36750000Y-43550000D01*
D54*
X85790000Y-24940000D02*
X86215000Y-24940000D01*
X75130000Y-48120000D02*
X75715000Y-48120000D01*
D51*
X72340000Y-52075000D02*
X72340000Y-53535000D01*
D54*
X81500000Y-34620000D02*
X80655000Y-34620000D01*
D53*
%TO.N,+12V*%
X39250000Y-25000000D02*
X39250000Y-31700000D01*
X39250000Y-31700000D02*
X38250000Y-32700000D01*
D51*
%TO.N,+3.3V*%
X70630000Y-46425000D02*
X70630000Y-47865000D01*
D52*
X81470000Y-35550000D02*
X80635000Y-35550000D01*
X66930000Y-45085000D02*
X66880000Y-45035000D01*
X80635000Y-35550000D02*
X80630000Y-35555000D01*
D51*
X80055000Y-43500000D02*
X81995000Y-43500000D01*
X80055000Y-36130000D02*
X80630000Y-35555000D01*
X68705000Y-44500000D02*
X68170000Y-45035000D01*
X70630000Y-35075000D02*
X69840000Y-35075000D01*
D52*
X63725000Y-35650000D02*
X63750000Y-35675000D01*
X62640000Y-35650000D02*
X63725000Y-35650000D01*
X63735000Y-42340000D02*
X63750000Y-42325000D01*
D51*
X70630000Y-47865000D02*
X70380000Y-48115000D01*
D52*
X66930000Y-45830000D02*
X66930000Y-45085000D01*
X70365000Y-48130000D02*
X70380000Y-48115000D01*
D51*
X69840000Y-35075000D02*
X69340000Y-34575000D01*
D52*
X91290000Y-25790000D02*
X91290000Y-24445000D01*
D51*
X82295000Y-43200000D02*
X82130000Y-43365000D01*
X85250000Y-43200000D02*
X82295000Y-43200000D01*
D52*
X62650000Y-42340000D02*
X63735000Y-42340000D01*
X69370000Y-33700000D02*
X69370000Y-34545000D01*
X82150000Y-43345000D02*
X82130000Y-43365000D01*
X69370000Y-34545000D02*
X69340000Y-34575000D01*
D51*
X85085000Y-43365000D02*
X85250000Y-43200000D01*
X81995000Y-43500000D02*
X82130000Y-43365000D01*
D52*
X91290000Y-24445000D02*
X91250000Y-24405000D01*
D51*
X80055000Y-37000000D02*
X80055000Y-36130000D01*
X68170000Y-45035000D02*
X66880000Y-45035000D01*
D52*
X82150000Y-42560000D02*
X82150000Y-43345000D01*
X69540000Y-48130000D02*
X70365000Y-48130000D01*
D51*
%TO.N,I2C1_SDA*%
X63750000Y-40675000D02*
X59435000Y-40675000D01*
X59435000Y-40675000D02*
X59260000Y-40500000D01*
X68705000Y-42000000D02*
X65075000Y-42000000D01*
X65075000Y-42000000D02*
X63750000Y-40675000D01*
%TO.N,Net-(D4-K)*%
X103500000Y-46250000D02*
X103500000Y-44000000D01*
%TO.N,I2C1_SCL*%
X59445000Y-37325000D02*
X59270000Y-37500000D01*
X68705000Y-41500000D02*
X67500000Y-41500000D01*
X67500000Y-41500000D02*
X63750000Y-37750000D01*
X63750000Y-37750000D02*
X63750000Y-37325000D01*
X63750000Y-37325000D02*
X59445000Y-37325000D01*
D54*
%TO.N,Net-(R4-Pad2)*%
X38400000Y-45750000D02*
X38400000Y-43550000D01*
D53*
%TO.N,Net-(D2-K)*%
X40800000Y-47950000D02*
X40750000Y-48000000D01*
X43250000Y-47950000D02*
X40800000Y-47950000D01*
D54*
%TO.N,BUCK_FB*%
X36250000Y-46250000D02*
X36750000Y-45750000D01*
X36600000Y-45900000D02*
X36750000Y-45750000D01*
X33912500Y-46250000D02*
X36250000Y-46250000D01*
X36600000Y-48000000D02*
X36600000Y-45900000D01*
%TO.N,BUCK_EN*%
X31925000Y-45962500D02*
X31637500Y-46250000D01*
X30075000Y-43500000D02*
X31925000Y-43500000D01*
X31925000Y-43500000D02*
X31925000Y-45962500D01*
D53*
%TO.N,BUCK_IN*%
X28425000Y-42325000D02*
X28425000Y-43500000D01*
X31375000Y-39375000D02*
X28425000Y-42325000D01*
X28425000Y-43500000D02*
X28425000Y-46200000D01*
X28425000Y-46200000D02*
X28975000Y-46750000D01*
X31375000Y-37750000D02*
X31375000Y-39375000D01*
D54*
X29425000Y-47200000D02*
X28975000Y-46750000D01*
X31637500Y-47200000D02*
X29425000Y-47200000D01*
D51*
%TO.N,USART3_RX*%
X80055000Y-38000000D02*
X88875000Y-38000000D01*
X88875000Y-38000000D02*
X89050000Y-37825000D01*
%TO.N,USART3_TX*%
X80055000Y-38500000D02*
X81000000Y-38500000D01*
X83000000Y-40500000D02*
X89030000Y-40500000D01*
X81000000Y-38500000D02*
X83000000Y-40500000D01*
%TO.N,Net-(J3-Pin_3)*%
X52050000Y-38440000D02*
X52040000Y-38450000D01*
%TO.N,Net-(C14-Pad1)*%
X72380000Y-57825000D02*
X72380000Y-56275000D01*
X74380000Y-54335000D02*
X74320000Y-54335000D01*
X74320000Y-54335000D02*
X72630000Y-56025000D01*
X72380000Y-56275000D02*
X72630000Y-56025000D01*
%TO.N,HSE_OUT*%
X73130000Y-47380000D02*
X74380000Y-48630000D01*
X73130000Y-46425000D02*
X73130000Y-47380000D01*
X74380000Y-48630000D02*
X74380000Y-53315000D01*
%TO.N,SWDIO*%
X71630000Y-35075000D02*
X71630000Y-36620000D01*
X71500000Y-36750000D02*
X70925466Y-36750000D01*
X71630000Y-36620000D02*
X71500000Y-36750000D01*
X67500000Y-35750000D02*
X67000000Y-35250000D01*
X70925466Y-36750000D02*
X69925466Y-35750000D01*
X69925466Y-35750000D02*
X67500000Y-35750000D01*
X67000000Y-35250000D02*
X67000000Y-33500000D01*
%TO.N,Net-(SW1-B)*%
X88250000Y-24805000D02*
X88250000Y-24405000D01*
X65870000Y-42825000D02*
X65595000Y-42825000D01*
X79110000Y-31740000D02*
X81315000Y-31740000D01*
X65595000Y-42825000D02*
X64700000Y-43720000D01*
X81315000Y-31740000D02*
X88250000Y-24805000D01*
%TO.N,BOOT0*%
X67215000Y-42500000D02*
X66890000Y-42825000D01*
X68705000Y-42500000D02*
X67215000Y-42500000D01*
D52*
%TO.N,+5V*%
X49450000Y-24750000D02*
X42500000Y-31700000D01*
D54*
%TO.N,BUCK_BST*%
X33912500Y-48150000D02*
X33912500Y-49887500D01*
X33912500Y-49887500D02*
X33550000Y-50250000D01*
D53*
%TO.N,BUCK_SW*%
X31900000Y-50350000D02*
X32000000Y-50250000D01*
X31900000Y-54500000D02*
X31900000Y-50350000D01*
X29150000Y-50250000D02*
X32000000Y-50250000D01*
D54*
X31637500Y-49887500D02*
X32000000Y-50250000D01*
X31637500Y-48150000D02*
X31637500Y-49887500D01*
D53*
%TO.N,Net-(D1-K)*%
X35975000Y-33250000D02*
X36375000Y-33650000D01*
X42500000Y-35000000D02*
X37725000Y-35000000D01*
X31650000Y-33250000D02*
X35975000Y-33250000D01*
X37725000Y-35000000D02*
X36375000Y-33650000D01*
D51*
%TO.N,Net-(U3-VCAP_2)*%
X71130000Y-35075000D02*
X71130000Y-33355000D01*
X71130000Y-33355000D02*
X70275000Y-32500000D01*
%TO.N,NRST*%
X73630000Y-41130000D02*
X70500000Y-38000000D01*
X73630000Y-46425000D02*
X73630000Y-41130000D01*
D52*
%TO.N,+3.3VA*%
X76885000Y-48330000D02*
X76880000Y-48325000D01*
D51*
X76630000Y-46425000D02*
X76630000Y-48075000D01*
X76630000Y-48075000D02*
X76880000Y-48325000D01*
X76880000Y-48325000D02*
X76880000Y-49575000D01*
X76880000Y-49575000D02*
X76880000Y-50795000D01*
X76880000Y-50795000D02*
X76850000Y-50825000D01*
%TO.N,Net-(U3-VCAP_1)*%
X80055000Y-37500000D02*
X81930000Y-37500000D01*
X81930000Y-37500000D02*
X82355000Y-37075000D01*
%TO.N,HSE_IN*%
X71380000Y-48620000D02*
X71380000Y-52075000D01*
X72630000Y-47370000D02*
X71380000Y-48620000D01*
X71380000Y-53375000D02*
X70930000Y-53825000D01*
X71380000Y-52075000D02*
X71380000Y-53375000D01*
X72630000Y-46425000D02*
X72630000Y-47370000D01*
%TO.N,LED_STATUS*%
X78130000Y-46425000D02*
X78305000Y-46250000D01*
X78305000Y-46250000D02*
X101925000Y-46250000D01*
%TO.N,SWO*%
X60500000Y-34250000D02*
X59250000Y-33000000D01*
X64500000Y-34250000D02*
X60500000Y-34250000D01*
X65250000Y-37500000D02*
X65250000Y-35000000D01*
X67750000Y-40000000D02*
X65250000Y-37500000D01*
X68705000Y-40000000D02*
X67750000Y-40000000D01*
X65250000Y-35000000D02*
X64500000Y-34250000D01*
D53*
%TO.N,Net-(F1-Pad2)*%
X28850000Y-33250000D02*
X28850000Y-37350000D01*
X28850000Y-37350000D02*
X29250000Y-37750000D01*
D52*
%TO.N,GND*%
X72800000Y-28162500D02*
X72300000Y-27662500D01*
%TD*%
%TA.AperFunction,Conductor*%
%TO.N,GND*%
G36*
X26515677Y-44299685D02*
G01*
X26536319Y-44316319D01*
X27213681Y-44993681D01*
X27247166Y-45055004D01*
X27250000Y-45081362D01*
X27250000Y-45693251D01*
X27230315Y-45760290D01*
X27177511Y-45806045D01*
X27108353Y-45815989D01*
X27044797Y-45786964D01*
X27020461Y-45758348D01*
X26942315Y-45631654D01*
X26818345Y-45507684D01*
X26669124Y-45415643D01*
X26669119Y-45415641D01*
X26502697Y-45360494D01*
X26502690Y-45360493D01*
X26400000Y-45350002D01*
X26400000Y-48149995D01*
X26502695Y-48139506D01*
X26502698Y-48139505D01*
X26669119Y-48084358D01*
X26669124Y-48084356D01*
X26818345Y-47992315D01*
X26942315Y-47868345D01*
X27020461Y-47741651D01*
X27072409Y-47694927D01*
X27141372Y-47683704D01*
X27205454Y-47711548D01*
X27244310Y-47769616D01*
X27250000Y-47806748D01*
X27250000Y-51308638D01*
X27230315Y-51375677D01*
X27213681Y-51396319D01*
X26626319Y-51983681D01*
X26564996Y-52017166D01*
X26538638Y-52020000D01*
X24221362Y-52020000D01*
X24154323Y-52000315D01*
X24133681Y-51983681D01*
X23576319Y-51426319D01*
X23542834Y-51364996D01*
X23540000Y-51338638D01*
X23540000Y-50673322D01*
X24900001Y-50673322D01*
X24910144Y-50772607D01*
X24963452Y-50933481D01*
X24963457Y-50933492D01*
X25052424Y-51077728D01*
X25052427Y-51077732D01*
X25172267Y-51197572D01*
X25172271Y-51197575D01*
X25316515Y-51286547D01*
X25316518Y-51286548D01*
X25474999Y-51339062D01*
X25475000Y-51339062D01*
X26225000Y-51339062D01*
X26383481Y-51286548D01*
X26383484Y-51286547D01*
X26527728Y-51197575D01*
X26527732Y-51197572D01*
X26647572Y-51077732D01*
X26647575Y-51077728D01*
X26736542Y-50933492D01*
X26736547Y-50933481D01*
X26789855Y-50772606D01*
X26799999Y-50673322D01*
X26800000Y-50673309D01*
X26800000Y-50625000D01*
X26225000Y-50625000D01*
X26225000Y-51339062D01*
X25475000Y-51339062D01*
X25475000Y-50625000D01*
X24900001Y-50625000D01*
X24900001Y-50673322D01*
X23540000Y-50673322D01*
X23540000Y-49826677D01*
X24900000Y-49826677D01*
X24900000Y-49875000D01*
X25475000Y-49875000D01*
X26225000Y-49875000D01*
X26799999Y-49875000D01*
X26799999Y-49826692D01*
X26799998Y-49826677D01*
X26789855Y-49727392D01*
X26736547Y-49566518D01*
X26736542Y-49566507D01*
X26647575Y-49422271D01*
X26647572Y-49422267D01*
X26527732Y-49302427D01*
X26527728Y-49302424D01*
X26383492Y-49213457D01*
X26383481Y-49213452D01*
X26225000Y-49160937D01*
X26225000Y-49875000D01*
X25475000Y-49875000D01*
X25475000Y-49160937D01*
X25316518Y-49213452D01*
X25316507Y-49213457D01*
X25172271Y-49302424D01*
X25172267Y-49302427D01*
X25052427Y-49422267D01*
X25052424Y-49422271D01*
X24963457Y-49566507D01*
X24963452Y-49566518D01*
X24910144Y-49727393D01*
X24900000Y-49826677D01*
X23540000Y-49826677D01*
X23540000Y-47449986D01*
X24950001Y-47449986D01*
X24960494Y-47552697D01*
X25015641Y-47719119D01*
X25015643Y-47719124D01*
X25107684Y-47868345D01*
X25231654Y-47992315D01*
X25380875Y-48084356D01*
X25380880Y-48084358D01*
X25547302Y-48139505D01*
X25649999Y-48149997D01*
X25650000Y-48149996D01*
X25650000Y-47125000D01*
X24950001Y-47125000D01*
X24950001Y-47449986D01*
X23540000Y-47449986D01*
X23540000Y-46140000D01*
X23530561Y-46117213D01*
X23533110Y-46116157D01*
X23525023Y-46103573D01*
X23524131Y-46097372D01*
X23522834Y-46094996D01*
X23520000Y-46068638D01*
X23520000Y-46050013D01*
X24950000Y-46050013D01*
X24950000Y-46375000D01*
X25650000Y-46375000D01*
X25650000Y-45350003D01*
X25649999Y-45350002D01*
X25547302Y-45360494D01*
X25380880Y-45415641D01*
X25380875Y-45415643D01*
X25231654Y-45507684D01*
X25107684Y-45631654D01*
X25015643Y-45780875D01*
X25015641Y-45780880D01*
X24960494Y-45947302D01*
X24960493Y-45947309D01*
X24950000Y-46050013D01*
X23520000Y-46050013D01*
X23520000Y-45211362D01*
X23539685Y-45144323D01*
X23556319Y-45123681D01*
X24363681Y-44316319D01*
X24425004Y-44282834D01*
X24451362Y-44280000D01*
X26448638Y-44280000D01*
X26515677Y-44299685D01*
G37*
%TD.AperFunction*%
%TD*%
%TA.AperFunction,Conductor*%
%TO.N,GND*%
G36*
X44865677Y-48819685D02*
G01*
X44886319Y-48836319D01*
X45293681Y-49243681D01*
X45327166Y-49305004D01*
X45330000Y-49331362D01*
X45330000Y-58308638D01*
X45310315Y-58375677D01*
X45293681Y-58396319D01*
X44766319Y-58923681D01*
X44704996Y-58957166D01*
X44678638Y-58960000D01*
X42631362Y-58960000D01*
X42564323Y-58940315D01*
X42543681Y-58923681D01*
X42146319Y-58526319D01*
X42112834Y-58464996D01*
X42110000Y-58438638D01*
X42110000Y-57910713D01*
X42129685Y-57843674D01*
X42182489Y-57797919D01*
X42251647Y-57787975D01*
X42299102Y-57805178D01*
X42305872Y-57809354D01*
X42305880Y-57809358D01*
X42472302Y-57864505D01*
X42574999Y-57874997D01*
X42575000Y-57874996D01*
X42575000Y-57874995D01*
X43325000Y-57874995D01*
X43427695Y-57864506D01*
X43427698Y-57864505D01*
X43594119Y-57809358D01*
X43594124Y-57809356D01*
X43743345Y-57717315D01*
X43867315Y-57593345D01*
X43959356Y-57444124D01*
X43959358Y-57444119D01*
X44014505Y-57277697D01*
X44014506Y-57277690D01*
X44024999Y-57174986D01*
X44025000Y-57174973D01*
X44025000Y-56850000D01*
X43325000Y-56850000D01*
X43325000Y-57874995D01*
X42575000Y-57874995D01*
X42575000Y-55075001D01*
X43325000Y-55075001D01*
X43325000Y-56100000D01*
X44024999Y-56100000D01*
X44024999Y-55775028D01*
X44024998Y-55775013D01*
X44014505Y-55672302D01*
X43959358Y-55505880D01*
X43959356Y-55505875D01*
X43867315Y-55356654D01*
X43743345Y-55232684D01*
X43594124Y-55140643D01*
X43594119Y-55140641D01*
X43512182Y-55113490D01*
X43454737Y-55073717D01*
X43427914Y-55009201D01*
X43440229Y-54940426D01*
X43487772Y-54889226D01*
X43512182Y-54878078D01*
X43644119Y-54834358D01*
X43644124Y-54834356D01*
X43793345Y-54742315D01*
X43917315Y-54618345D01*
X44009356Y-54469124D01*
X44009358Y-54469119D01*
X44064505Y-54302697D01*
X44064506Y-54302690D01*
X44074999Y-54199986D01*
X44075000Y-54199973D01*
X44075000Y-53875000D01*
X43375000Y-53875000D01*
X43375000Y-54921770D01*
X43381551Y-54932440D01*
X43380115Y-55002295D01*
X43344988Y-55056951D01*
X43325000Y-55075001D01*
X42575000Y-55075001D01*
X42575000Y-55053231D01*
X42568450Y-55042565D01*
X42569882Y-54972710D01*
X42605012Y-54918047D01*
X42625000Y-54899996D01*
X42625000Y-53125000D01*
X43375000Y-53125000D01*
X44074999Y-53125000D01*
X44074999Y-52800028D01*
X44074998Y-52800013D01*
X44064505Y-52697302D01*
X44009358Y-52530880D01*
X44009356Y-52530875D01*
X43917315Y-52381654D01*
X43793345Y-52257684D01*
X43644124Y-52165643D01*
X43644119Y-52165641D01*
X43477697Y-52110494D01*
X43477690Y-52110493D01*
X43375000Y-52100002D01*
X43375000Y-53125000D01*
X42625000Y-53125000D01*
X42625000Y-52100003D01*
X42624999Y-52100002D01*
X42522302Y-52110494D01*
X42355880Y-52165641D01*
X42355871Y-52165645D01*
X42299096Y-52200665D01*
X42231704Y-52219105D01*
X42165040Y-52198182D01*
X42120271Y-52144540D01*
X42110000Y-52095126D01*
X42110000Y-50167005D01*
X42129685Y-50099966D01*
X42182489Y-50054211D01*
X42251647Y-50044267D01*
X42315203Y-50073292D01*
X42340117Y-50102855D01*
X42419927Y-50234877D01*
X42540122Y-50355072D01*
X42685604Y-50443019D01*
X42685603Y-50443019D01*
X42847894Y-50493590D01*
X42847892Y-50493590D01*
X42875000Y-50496053D01*
X42875000Y-50496052D01*
X43625000Y-50496052D01*
X43652108Y-50493590D01*
X43814396Y-50443018D01*
X43959877Y-50355072D01*
X44080072Y-50234877D01*
X44168019Y-50089395D01*
X44203666Y-49975000D01*
X43625000Y-49975000D01*
X43625000Y-50496052D01*
X42875000Y-50496052D01*
X42875000Y-49724000D01*
X42894685Y-49656961D01*
X42947489Y-49611206D01*
X42999000Y-49600000D01*
X43250000Y-49600000D01*
X43250000Y-49349000D01*
X43269685Y-49281961D01*
X43322489Y-49236206D01*
X43374000Y-49225000D01*
X44203666Y-49225000D01*
X44203666Y-49224999D01*
X44168019Y-49110604D01*
X44093993Y-48988150D01*
X44076157Y-48920595D01*
X44097675Y-48854122D01*
X44151715Y-48809834D01*
X44200110Y-48800000D01*
X44798638Y-48800000D01*
X44865677Y-48819685D01*
G37*
%TD.AperFunction*%
%TD*%
%TA.AperFunction,Conductor*%
%TO.N,+3.3V*%
G36*
X39833039Y-46779685D02*
G01*
X39878794Y-46832489D01*
X39890000Y-46884000D01*
X39890000Y-47354852D01*
X39871538Y-47419949D01*
X39837455Y-47475204D01*
X39837450Y-47475215D01*
X39816593Y-47538158D01*
X39784564Y-47634815D01*
X39784564Y-47634816D01*
X39784563Y-47634816D01*
X39774500Y-47733318D01*
X39774500Y-47763564D01*
X39772117Y-47787755D01*
X39749500Y-47901456D01*
X39749500Y-47901460D01*
X39749500Y-48098540D01*
X39749500Y-48098542D01*
X39749499Y-48098542D01*
X39772117Y-48212242D01*
X39774500Y-48236434D01*
X39774500Y-48266681D01*
X39784563Y-48365183D01*
X39784564Y-48365185D01*
X39796828Y-48402196D01*
X39837450Y-48524785D01*
X39837453Y-48524792D01*
X39871538Y-48580050D01*
X39882636Y-48603053D01*
X39890000Y-48623456D01*
X39890000Y-48710000D01*
X39938873Y-48758873D01*
X39948265Y-48784896D01*
X39948774Y-48793269D01*
X39952795Y-48800633D01*
X39950864Y-48827625D01*
X39952508Y-48854637D01*
X39948409Y-48861956D01*
X39947811Y-48870325D01*
X39928898Y-48903898D01*
X39926116Y-48907415D01*
X39837908Y-49050422D01*
X39837906Y-49050427D01*
X39788343Y-49200000D01*
X40626000Y-49200000D01*
X40693039Y-49219685D01*
X40738794Y-49272489D01*
X40750000Y-49324000D01*
X40750000Y-49575000D01*
X41001000Y-49575000D01*
X41068039Y-49594685D01*
X41113794Y-49647489D01*
X41125000Y-49699000D01*
X41125000Y-50505259D01*
X41152583Y-50502442D01*
X41312072Y-50449593D01*
X41312079Y-50449590D01*
X41415402Y-50385859D01*
X41482795Y-50367418D01*
X41549458Y-50388340D01*
X41594228Y-50441982D01*
X41604500Y-50491397D01*
X41604500Y-52095127D01*
X41615078Y-52198002D01*
X41615078Y-52198005D01*
X41625345Y-52247399D01*
X41625346Y-52247403D01*
X41625349Y-52247412D01*
X41656642Y-52345981D01*
X41681540Y-52386347D01*
X41700000Y-52451441D01*
X41700000Y-57553108D01*
X41688794Y-57604621D01*
X41644663Y-57701250D01*
X41624976Y-57768295D01*
X41604500Y-57910714D01*
X41604500Y-58438640D01*
X41607397Y-58492688D01*
X41607397Y-58492689D01*
X41610229Y-58519022D01*
X41610232Y-58519049D01*
X41618885Y-58572445D01*
X41618885Y-58572447D01*
X41670716Y-58711407D01*
X41668749Y-58712140D01*
X41670642Y-58725528D01*
X41678331Y-58746143D01*
X41675437Y-58759446D01*
X41677343Y-58772929D01*
X41668155Y-58792919D01*
X41663480Y-58814416D01*
X41650003Y-58832418D01*
X41648167Y-58836415D01*
X41642329Y-58842671D01*
X41561317Y-58923682D01*
X41499997Y-58957166D01*
X41473638Y-58960000D01*
X34011362Y-58960000D01*
X33944323Y-58940315D01*
X33923681Y-58923681D01*
X33886319Y-58886319D01*
X33852834Y-58824996D01*
X33850000Y-58798638D01*
X33850000Y-57174986D01*
X38925001Y-57174986D01*
X38935494Y-57277697D01*
X38990641Y-57444119D01*
X38990643Y-57444124D01*
X39082684Y-57593345D01*
X39206654Y-57717315D01*
X39355875Y-57809356D01*
X39355880Y-57809358D01*
X39522302Y-57864505D01*
X39624999Y-57874997D01*
X39625000Y-57874996D01*
X39625000Y-57874995D01*
X40375000Y-57874995D01*
X40477695Y-57864506D01*
X40477698Y-57864505D01*
X40644119Y-57809358D01*
X40644124Y-57809356D01*
X40793345Y-57717315D01*
X40917315Y-57593345D01*
X41009356Y-57444124D01*
X41009358Y-57444119D01*
X41064505Y-57277697D01*
X41064506Y-57277690D01*
X41074999Y-57174986D01*
X41075000Y-57174973D01*
X41075000Y-56850000D01*
X40375000Y-56850000D01*
X40375000Y-57874995D01*
X39625000Y-57874995D01*
X39625000Y-56850000D01*
X38925001Y-56850000D01*
X38925001Y-57174986D01*
X33850000Y-57174986D01*
X33850000Y-55549986D01*
X34550001Y-55549986D01*
X34560494Y-55652697D01*
X34615641Y-55819119D01*
X34615643Y-55819124D01*
X34707684Y-55968345D01*
X34831654Y-56092315D01*
X34980875Y-56184356D01*
X34980880Y-56184358D01*
X35147302Y-56239505D01*
X35147309Y-56239506D01*
X35250019Y-56249999D01*
X35624999Y-56249999D01*
X36375000Y-56249999D01*
X36749972Y-56249999D01*
X36749986Y-56249998D01*
X36852697Y-56239505D01*
X37019119Y-56184358D01*
X37019124Y-56184356D01*
X37168345Y-56092315D01*
X37292315Y-55968345D01*
X37384356Y-55819124D01*
X37384358Y-55819119D01*
X37398974Y-55775013D01*
X38925000Y-55775013D01*
X38925000Y-56100000D01*
X39625000Y-56100000D01*
X39625000Y-55075001D01*
X40375000Y-55075001D01*
X40375000Y-56100000D01*
X41074999Y-56100000D01*
X41074999Y-55775028D01*
X41074998Y-55775013D01*
X41064505Y-55672302D01*
X41009358Y-55505880D01*
X41009356Y-55505875D01*
X40917315Y-55356654D01*
X40793345Y-55232684D01*
X40644124Y-55140643D01*
X40644119Y-55140641D01*
X40562182Y-55113490D01*
X40504737Y-55073717D01*
X40477914Y-55009201D01*
X40490229Y-54940426D01*
X40537772Y-54889226D01*
X40562182Y-54878078D01*
X40694119Y-54834358D01*
X40694124Y-54834356D01*
X40843345Y-54742315D01*
X40967315Y-54618345D01*
X41059356Y-54469124D01*
X41059358Y-54469119D01*
X41114505Y-54302697D01*
X41114506Y-54302690D01*
X41124999Y-54199986D01*
X41125000Y-54199973D01*
X41125000Y-53875000D01*
X40425000Y-53875000D01*
X40425000Y-54921770D01*
X40431551Y-54932440D01*
X40430115Y-55002295D01*
X40394988Y-55056951D01*
X40375000Y-55075001D01*
X39625000Y-55075001D01*
X39625000Y-55053231D01*
X39618450Y-55042565D01*
X39619882Y-54972710D01*
X39655012Y-54918047D01*
X39675000Y-54899996D01*
X39675000Y-53875000D01*
X38975001Y-53875000D01*
X38975001Y-54199986D01*
X38985494Y-54302697D01*
X39040641Y-54469119D01*
X39040643Y-54469124D01*
X39132684Y-54618345D01*
X39256654Y-54742315D01*
X39405875Y-54834356D01*
X39405880Y-54834358D01*
X39487816Y-54861509D01*
X39545261Y-54901281D01*
X39572084Y-54965797D01*
X39559769Y-55034573D01*
X39512226Y-55085773D01*
X39487817Y-55096921D01*
X39355878Y-55140642D01*
X39355875Y-55140643D01*
X39206654Y-55232684D01*
X39082684Y-55356654D01*
X38990643Y-55505875D01*
X38990641Y-55505880D01*
X38935494Y-55672302D01*
X38935493Y-55672309D01*
X38925000Y-55775013D01*
X37398974Y-55775013D01*
X37412942Y-55732860D01*
X37439505Y-55652697D01*
X37439506Y-55652690D01*
X37449999Y-55549986D01*
X37450000Y-55549973D01*
X37450000Y-54875000D01*
X36375000Y-54875000D01*
X36375000Y-56249999D01*
X35624999Y-56249999D01*
X35625000Y-56249998D01*
X35625000Y-54875000D01*
X34550001Y-54875000D01*
X34550001Y-55549986D01*
X33850000Y-55549986D01*
X33850000Y-53450013D01*
X34550000Y-53450013D01*
X34550000Y-54125000D01*
X35625000Y-54125000D01*
X36375000Y-54125000D01*
X37449999Y-54125000D01*
X37449999Y-53450028D01*
X37449998Y-53450013D01*
X37439505Y-53347302D01*
X37384358Y-53180880D01*
X37384356Y-53180875D01*
X37292315Y-53031654D01*
X37168345Y-52907684D01*
X37159783Y-52902403D01*
X37019124Y-52815643D01*
X37019119Y-52815641D01*
X36971957Y-52800013D01*
X38975000Y-52800013D01*
X38975000Y-53125000D01*
X39675000Y-53125000D01*
X40425000Y-53125000D01*
X41124999Y-53125000D01*
X41124999Y-52800028D01*
X41124998Y-52800013D01*
X41114505Y-52697302D01*
X41059358Y-52530880D01*
X41059356Y-52530875D01*
X40967315Y-52381654D01*
X40843345Y-52257684D01*
X40694124Y-52165643D01*
X40694119Y-52165641D01*
X40527697Y-52110494D01*
X40527690Y-52110493D01*
X40425000Y-52100002D01*
X40425000Y-53125000D01*
X39675000Y-53125000D01*
X39675000Y-52100003D01*
X39674999Y-52100002D01*
X39572302Y-52110494D01*
X39405880Y-52165641D01*
X39405875Y-52165643D01*
X39256654Y-52257684D01*
X39132684Y-52381654D01*
X39040643Y-52530875D01*
X39040641Y-52530880D01*
X38985494Y-52697302D01*
X38985493Y-52697309D01*
X38975000Y-52800013D01*
X36971957Y-52800013D01*
X36852697Y-52760494D01*
X36852690Y-52760493D01*
X36749986Y-52750000D01*
X36375000Y-52750000D01*
X36375000Y-54125000D01*
X35625000Y-54125000D01*
X35625000Y-52750000D01*
X35250028Y-52750000D01*
X35250012Y-52750001D01*
X35147302Y-52760494D01*
X34980880Y-52815641D01*
X34980875Y-52815643D01*
X34831654Y-52907684D01*
X34707684Y-53031654D01*
X34615643Y-53180875D01*
X34615641Y-53180880D01*
X34560494Y-53347302D01*
X34560493Y-53347309D01*
X34550000Y-53450013D01*
X33850000Y-53450013D01*
X33850000Y-52581362D01*
X33869685Y-52514323D01*
X33886319Y-52493681D01*
X36430000Y-49950000D01*
X39788343Y-49950000D01*
X39837906Y-50099572D01*
X39837908Y-50099577D01*
X39926114Y-50242580D01*
X40044919Y-50361385D01*
X40187922Y-50449591D01*
X40187927Y-50449593D01*
X40347416Y-50502442D01*
X40374999Y-50505259D01*
X40375000Y-50505259D01*
X40375000Y-49950000D01*
X39788343Y-49950000D01*
X36430000Y-49950000D01*
X37013681Y-49366319D01*
X37075004Y-49332834D01*
X37101362Y-49330000D01*
X37430000Y-49330000D01*
X37450000Y-49310000D01*
X37450000Y-48950109D01*
X37469685Y-48883070D01*
X37522489Y-48837315D01*
X37591647Y-48827371D01*
X37638151Y-48843993D01*
X37760601Y-48918018D01*
X37760603Y-48918019D01*
X37874999Y-48953666D01*
X37875000Y-48953666D01*
X38625000Y-48953666D01*
X38739395Y-48918019D01*
X38884877Y-48830072D01*
X39005072Y-48709877D01*
X39093019Y-48564395D01*
X39143590Y-48402106D01*
X39146054Y-48375000D01*
X38625000Y-48375000D01*
X38625000Y-48953666D01*
X37875000Y-48953666D01*
X37875000Y-47625000D01*
X38625000Y-47625000D01*
X39146054Y-47625000D01*
X39143590Y-47597893D01*
X39093019Y-47435604D01*
X39005072Y-47290122D01*
X38884877Y-47169927D01*
X38739396Y-47081981D01*
X38739394Y-47081980D01*
X38625000Y-47046332D01*
X38625000Y-47625000D01*
X37875000Y-47625000D01*
X37875000Y-47046333D01*
X37874999Y-47046332D01*
X37760605Y-47081980D01*
X37760603Y-47081981D01*
X37663650Y-47140591D01*
X37656554Y-47142464D01*
X37651011Y-47147268D01*
X37623231Y-47151262D01*
X37596095Y-47158427D01*
X37589115Y-47156167D01*
X37581853Y-47157212D01*
X37556320Y-47145551D01*
X37529621Y-47136909D01*
X37524970Y-47131234D01*
X37518297Y-47128187D01*
X37503122Y-47104575D01*
X37485334Y-47082869D01*
X37483558Y-47074132D01*
X37480523Y-47069409D01*
X37475500Y-47034474D01*
X37475500Y-46945862D01*
X37495185Y-46878823D01*
X37511819Y-46858181D01*
X37573681Y-46796319D01*
X37635004Y-46762834D01*
X37661362Y-46760000D01*
X39766000Y-46760000D01*
X39833039Y-46779685D01*
G37*
%TD.AperFunction*%
%TD*%
M02*
