M48
; DRILL file {KiCad 9.0.1} date 2025-04-29T02:16:05+0200
; FORMAT={-:-/ absolute / metric / decimal}
; #@! TF.CreationDate,2025-04-29T02:16:05+02:00
; #@! TF.GenerationSoftware,Kicad,Pcbnew,9.0.1
; #@! TF.FileFunction,Plated,1,3,Blind
FMAT,2
METRIC
; #@! TA.AperFunction,Plated,Buried,ViaDrill
T1C0.300
%
G90
G05
T1
X35.15Y-52.4
X35.27Y-56.61
X35.82Y-57.89
X35.96Y-52.39
X36.07Y-56.61
X36.71Y-52.4
X36.77Y-56.61
X36.95Y-50.78
X37.7Y-57.85
X38.26Y-49.18
X38.42Y-51.19
X38.49Y-56.88
X38.56Y-56.03
X38.61Y-54.05
X38.65Y-52.92
X39.28Y-48.01
X39.57Y-49.55
X40.1Y-51.83
X40.15Y-58.25
X40.73Y-50.65
X50.0Y-26.75
X54.0Y-35.45
X62.64Y-35.65
X62.65Y-42.34
X66.93Y-45.83
X69.37Y-33.7
X69.54Y-48.13
X76.0Y-51.75
X81.47Y-35.55
X82.15Y-42.56
X91.29Y-25.79
X95.3Y-40.38
M30
