M48
; DRILL file {KiCad 9.0.1} date 2025-04-29T02:16:05+0200
; FORMAT={-:-/ absolute / metric / decimal}
; #@! TF.CreationDate,2025-04-29T02:16:05+02:00
; #@! TF.GenerationSoftware,Kicad,Pcbnew,9.0.1
; #@! TF.FileFunction,Plated,1,2,Blind
FMAT,2
METRIC
; #@! TA.AperFunction,Plated,Buried,ViaDrill
T1C0.300
%
G90
G05
T1
X24.25Y-48.68
X24.53Y-50.67
X24.55Y-49.81
X24.59Y-47.49
X24.61Y-45.0
X24.61Y-46.05
X24.61Y-46.75
X34.7Y-43.53
X35.25Y-47.25
X35.5Y-30.5
X35.61Y-43.56
X43.0Y-58.09
X43.04Y-51.86
X43.39Y-50.73
X44.4Y-51.36
X44.4Y-56.94
X44.41Y-55.84
X44.43Y-52.87
X44.44Y-53.99
X44.46Y-49.62
X44.53Y-58.1
X50.0Y-28.0
X50.0Y-29.3
X50.0Y-31.85
X51.0Y-42.55
X66.04Y-44.1
X68.37Y-33.72
X68.64Y-31.38
X68.65Y-23.75
X68.75Y-21.25
X69.2Y-56.07
X69.54Y-49.06
X72.8Y-28.162
X75.13Y-48.12
X75.85Y-21.3
X75.85Y-23.85
X81.5Y-34.62
X82.16Y-45.12
X85.0Y-37.09
X85.79Y-24.94
X86.34Y-44.82
X98.3Y-33.33
X100.77Y-44.04
M30
