M48
; DRILL file {KiCad 9.0.1} date 2025-04-29T02:16:05+0200
; FORMAT={-:-/ absolute / metric / decimal}
; #@! TF.CreationDate,2025-04-29T02:16:05+02:00
; #@! TF.GenerationSoftware,Kicad,Pcbnew,9.0.1
; #@! TF.FileFunction,Plated,1,4,PTH
FMAT,2
METRIC
; #@! TA.AperFunction,Plated,PTH,ViaDrill
T1C0.300
; #@! TA.AperFunction,Plated,PTH,ComponentDrill
T2C0.600
; #@! TA.AperFunction,Plated,PTH,ComponentDrill
T3C0.700
; #@! TA.AperFunction,Plated,PTH,ComponentDrill
T4C1.200
; #@! TA.AperFunction,Plated,PTH,ComponentDrill
T5C4.300
%
G90
G05
T1
X55.65Y-33.75
X62.45Y-24.75
X63.2Y-24.75
X64.0Y-24.75
X64.7Y-43.72
X64.75Y-24.75
X70.5Y-38.0
X70.9Y-20.7
X71.0Y-24.45
X71.35Y-25.95
X71.85Y-21.05
X72.65Y-21.05
X73.25Y-25.95
X73.5Y-24.4
X73.55Y-20.7
X79.11Y-31.74
T2
X21.775Y-24.75
X21.8Y-61.611
X22.72Y-22.47
X22.72Y-27.03
X22.745Y-59.33
X22.745Y-63.891
X25.0Y-21.525
X25.0Y-27.975
X25.025Y-58.386
X25.025Y-64.836
X27.28Y-22.47
X27.28Y-27.03
X27.305Y-59.33
X27.305Y-63.891
X28.225Y-24.75
X28.25Y-61.611
X96.995Y-24.75
X96.995Y-61.58
X97.939Y-22.47
X97.939Y-27.03
X97.939Y-59.3
X97.939Y-63.861
X100.22Y-21.525
X100.22Y-27.975
X100.22Y-58.355
X100.22Y-64.805
X102.5Y-22.47
X102.5Y-27.03
X102.5Y-59.3
X102.5Y-63.861
X103.445Y-24.75
X103.445Y-61.58
T3
X69.85Y-20.4
X69.85Y-24.7
X74.65Y-20.4
X74.65Y-24.7
T4
X35.75Y-25.0
X39.25Y-25.0
T5
X25.0Y-24.75
X25.025Y-61.611
X100.22Y-24.75
X100.22Y-61.58
M30
