%TF.GenerationSoftware,KiCad,Pcbnew,9.0.1*%
%TF.CreationDate,2025-04-29T02:16:07+02:00*%
%TF.ProjectId,phil-lab-11,7068696c-2d6c-4616-922d-31312e6b6963,rev?*%
%TF.SameCoordinates,Original*%
%TF.FileFunction,Copper,L4,Bot*%
%TF.FilePolarity,Positive*%
%FSLAX46Y46*%
G04 Gerber Fmt 4.6, Leading zero omitted, Abs format (unit mm)*
G04 Created by KiCad (PCBNEW 9.0.1) date 2025-04-29 02:16:07*
%MOMM*%
%LPD*%
G01*
G04 APERTURE LIST*
G04 Aperture macros list*
%AMRoundRect*
0 Rectangle with rounded corners*
0 $1 Rounding radius*
0 $2 $3 $4 $5 $6 $7 $8 $9 X,Y pos of 4 corners*
0 Add a 4 corners polygon primitive as box body*
4,1,4,$2,$3,$4,$5,$6,$7,$8,$9,$2,$3,0*
0 Add four circle primitives for the rounded corners*
1,1,$1+$1,$2,$3*
1,1,$1+$1,$4,$5*
1,1,$1+$1,$6,$7*
1,1,$1+$1,$8,$9*
0 Add four rect primitives between the rounded corners*
20,1,$1+$1,$2,$3,$4,$5,0*
20,1,$1+$1,$4,$5,$6,$7,0*
20,1,$1+$1,$6,$7,$8,$9,0*
20,1,$1+$1,$8,$9,$2,$3,0*%
G04 Aperture macros list end*
%TA.AperFunction,HeatsinkPad*%
%ADD10C,1.100000*%
%TD*%
%TA.AperFunction,ComponentPad*%
%ADD11RoundRect,0.250001X0.949999X0.949999X-0.949999X0.949999X-0.949999X-0.949999X0.949999X-0.949999X0*%
%TD*%
%TA.AperFunction,ComponentPad*%
%ADD12C,2.400000*%
%TD*%
%TA.AperFunction,ComponentPad*%
%ADD13C,0.900000*%
%TD*%
%TA.AperFunction,ComponentPad*%
%ADD14C,8.600000*%
%TD*%
%TA.AperFunction,ViaPad*%
%ADD15C,0.600000*%
%TD*%
%TA.AperFunction,Conductor*%
%ADD16C,0.500000*%
%TD*%
%TA.AperFunction,Conductor*%
%ADD17C,0.300000*%
%TD*%
G04 APERTURE END LIST*
D10*
%TO.P,P1,S1,SHIELD*%
%TO.N,unconnected-(P1-SHIELD-PadS1)_3*%
X74650000Y-24700000D03*
%TO.N,unconnected-(P1-SHIELD-PadS1)_2*%
X74650000Y-20400000D03*
%TO.N,unconnected-(P1-SHIELD-PadS1)_1*%
X69850000Y-24700000D03*
%TO.N,unconnected-(P1-SHIELD-PadS1)*%
X69850000Y-20400000D03*
%TD*%
D11*
%TO.P,J1,1,Pin_1*%
%TO.N,+12V*%
X39250000Y-25000000D03*
D12*
%TO.P,J1,2,Pin_2*%
%TO.N,GND*%
X35750000Y-25000000D03*
%TD*%
D13*
%TO.P,H3,1,1*%
%TO.N,GND*%
X21800000Y-61610913D03*
X22744581Y-59330494D03*
X22744581Y-63891332D03*
X25025000Y-58385913D03*
D14*
X25025000Y-61610913D03*
D13*
X25025000Y-64835913D03*
X27305419Y-59330494D03*
X27305419Y-63891332D03*
X28250000Y-61610913D03*
%TD*%
%TO.P,H2,1,1*%
%TO.N,GND*%
X96994581Y-24750000D03*
X97939162Y-22469581D03*
X97939162Y-27030419D03*
X100219581Y-21525000D03*
D14*
X100219581Y-24750000D03*
D13*
X100219581Y-27975000D03*
X102500000Y-22469581D03*
X102500000Y-27030419D03*
X103444581Y-24750000D03*
%TD*%
%TO.P,H4,1,1*%
%TO.N,GND*%
X96994581Y-61580494D03*
X97939162Y-59300075D03*
X97939162Y-63860913D03*
X100219581Y-58355494D03*
D14*
X100219581Y-61580494D03*
D13*
X100219581Y-64805494D03*
X102500000Y-59300075D03*
X102500000Y-63860913D03*
X103444581Y-61580494D03*
%TD*%
%TO.P,H1,1,1*%
%TO.N,GND*%
X21775000Y-24750000D03*
X22719581Y-22469581D03*
X22719581Y-27030419D03*
X25000000Y-21525000D03*
D14*
X25000000Y-24750000D03*
D13*
X25000000Y-27975000D03*
X27280419Y-22469581D03*
X27280419Y-27030419D03*
X28225000Y-24750000D03*
%TD*%
D15*
%TO.N,+5V*%
X62450000Y-24750000D03*
X63200000Y-24750000D03*
X64000000Y-24750000D03*
X64750000Y-24750000D03*
X71000000Y-24450000D03*
X73500000Y-24400000D03*
X73550000Y-20700000D03*
X70900000Y-20700000D03*
%TO.N,USB_CONN_D-*%
X73250000Y-25950000D03*
X72650000Y-21050000D03*
%TO.N,USB_CONN_D+*%
X71350000Y-25950000D03*
X71850000Y-21050000D03*
%TO.N,NRST*%
X55650000Y-33750000D03*
%TO.N,Net-(SW1-B)*%
X64700000Y-43720000D03*
X79110000Y-31740000D03*
%TO.N,NRST*%
X70500000Y-38000000D03*
%TD*%
D16*
%TO.N,+5V*%
X66800000Y-26800000D02*
X64750000Y-24750000D01*
X77350000Y-26800000D02*
X66800000Y-26800000D01*
X77350000Y-21850000D02*
X77350000Y-26800000D01*
X76950000Y-21450000D02*
X77350000Y-21850000D01*
X73850000Y-21450000D02*
X76950000Y-21450000D01*
X73500000Y-21100000D02*
X73850000Y-21450000D01*
X73500000Y-21100000D02*
X73500000Y-20750000D01*
X70900000Y-20900000D02*
X70900000Y-20700000D01*
X70350000Y-21450000D02*
X70900000Y-20900000D01*
X68050000Y-21450000D02*
X70350000Y-21450000D01*
X64750000Y-24750000D02*
X68050000Y-21450000D01*
X63200000Y-24750000D02*
X62450000Y-24750000D01*
X64000000Y-24750000D02*
X63200000Y-24750000D01*
X64750000Y-24750000D02*
X64000000Y-24750000D01*
D17*
X71000000Y-20800000D02*
X70900000Y-20700000D01*
D16*
X71000000Y-24450000D02*
X71000000Y-20800000D01*
D17*
X73500000Y-20750000D02*
X73550000Y-20700000D01*
D16*
X73500000Y-24400000D02*
X73500000Y-21100000D01*
D17*
%TO.N,USB_CONN_D-*%
X72650000Y-25350000D02*
X73250000Y-25950000D01*
X72650000Y-21050000D02*
X72650000Y-25350000D01*
%TO.N,USB_CONN_D+*%
X71850000Y-21050000D02*
X71850000Y-25450000D01*
X71850000Y-25450000D02*
X71350000Y-25950000D01*
%TO.N,NRST*%
X56600000Y-34700000D02*
X55650000Y-33750000D01*
X64450000Y-34700000D02*
X56600000Y-34700000D01*
X67750000Y-38000000D02*
X64450000Y-34700000D01*
X70500000Y-38000000D02*
X67750000Y-38000000D01*
%TO.N,Net-(SW1-B)*%
X70490000Y-43740000D02*
X79110000Y-35120000D01*
X70470000Y-43720000D02*
X70490000Y-43740000D01*
X64700000Y-43720000D02*
X70470000Y-43720000D01*
X79110000Y-35120000D02*
X79110000Y-31740000D01*
%TD*%
M02*
