%TF.GenerationSoftware,KiCad,Pcbnew,9.0.1*%
%TF.CreationDate,2025-04-29T02:16:07+02:00*%
%TF.ProjectId,phil-lab-11,7068696c-2d6c-4616-922d-31312e6b6963,rev?*%
%TF.SameCoordinates,Original*%
%TF.FileFunction,Soldermask,Top*%
%TF.FilePolarity,Negative*%
%FSLAX46Y46*%
G04 Gerber Fmt 4.6, Leading zero omitted, Abs format (unit mm)*
G04 Created by KiCad (PCBNEW 9.0.1) date 2025-04-29 02:16:07*
%MOMM*%
%LPD*%
G01*
G04 APERTURE LIST*
G04 Aperture macros list*
%AMRoundRect*
0 Rectangle with rounded corners*
0 $1 Rounding radius*
0 $2 $3 $4 $5 $6 $7 $8 $9 X,Y pos of 4 corners*
0 Add a 4 corners polygon primitive as box body*
4,1,4,$2,$3,$4,$5,$6,$7,$8,$9,$2,$3,0*
0 Add four circle primitives for the rounded corners*
1,1,$1+$1,$2,$3*
1,1,$1+$1,$4,$5*
1,1,$1+$1,$6,$7*
1,1,$1+$1,$8,$9*
0 Add four rect primitives between the rounded corners*
20,1,$1+$1,$2,$3,$4,$5,0*
20,1,$1+$1,$4,$5,$6,$7,0*
20,1,$1+$1,$6,$7,$8,$9,0*
20,1,$1+$1,$8,$9,$2,$3,0*%
G04 Aperture macros list end*
%ADD10C,1.100000*%
%ADD11RoundRect,0.075000X-0.075000X-0.425000X0.075000X-0.425000X0.075000X0.425000X-0.075000X0.425000X0*%
%ADD12O,1.000000X0.580000*%
%ADD13C,0.660000*%
%ADD14R,3.000000X0.650000*%
%ADD15R,2.400000X0.740000*%
%ADD16RoundRect,0.200000X-0.200000X-0.275000X0.200000X-0.275000X0.200000X0.275000X-0.200000X0.275000X0*%
%ADD17RoundRect,0.135000X-0.135000X-0.185000X0.135000X-0.185000X0.135000X0.185000X-0.135000X0.185000X0*%
%ADD18RoundRect,0.250001X0.949999X0.949999X-0.949999X0.949999X-0.949999X-0.949999X0.949999X-0.949999X0*%
%ADD19C,2.400000*%
%ADD20RoundRect,0.075000X0.075000X-0.700000X0.075000X0.700000X-0.075000X0.700000X-0.075000X-0.700000X0*%
%ADD21RoundRect,0.075000X0.700000X-0.075000X0.700000X0.075000X-0.700000X0.075000X-0.700000X-0.075000X0*%
%ADD22RoundRect,0.225000X0.225000X0.375000X-0.225000X0.375000X-0.225000X-0.375000X0.225000X-0.375000X0*%
%ADD23RoundRect,0.200000X-0.275000X0.200000X-0.275000X-0.200000X0.275000X-0.200000X0.275000X0.200000X0*%
%ADD24RoundRect,0.140000X0.170000X-0.140000X0.170000X0.140000X-0.170000X0.140000X-0.170000X-0.140000X0*%
%ADD25RoundRect,0.225000X0.225000X0.250000X-0.225000X0.250000X-0.225000X-0.250000X0.225000X-0.250000X0*%
%ADD26RoundRect,0.250000X-0.325000X-0.650000X0.325000X-0.650000X0.325000X0.650000X-0.325000X0.650000X0*%
%ADD27RoundRect,0.140000X-0.170000X0.140000X-0.170000X-0.140000X0.170000X-0.140000X0.170000X0.140000X0*%
%ADD28RoundRect,0.218750X-0.218750X-0.381250X0.218750X-0.381250X0.218750X0.381250X-0.218750X0.381250X0*%
%ADD29R,1.000000X0.800000*%
%ADD30C,0.900000*%
%ADD31R,0.700000X1.500000*%
%ADD32RoundRect,0.218750X0.218750X0.256250X-0.218750X0.256250X-0.218750X-0.256250X0.218750X-0.256250X0*%
%ADD33RoundRect,0.140000X0.140000X0.170000X-0.140000X0.170000X-0.140000X-0.170000X0.140000X-0.170000X0*%
%ADD34RoundRect,0.150000X0.512500X0.150000X-0.512500X0.150000X-0.512500X-0.150000X0.512500X-0.150000X0*%
%ADD35RoundRect,0.150000X-0.150000X0.512500X-0.150000X-0.512500X0.150000X-0.512500X0.150000X0.512500X0*%
%ADD36RoundRect,0.225000X-0.250000X0.225000X-0.250000X-0.225000X0.250000X-0.225000X0.250000X0.225000X0*%
%ADD37RoundRect,0.200000X0.275000X-0.200000X0.275000X0.200000X-0.275000X0.200000X-0.275000X-0.200000X0*%
%ADD38RoundRect,0.225000X-0.225000X-0.250000X0.225000X-0.250000X0.225000X0.250000X-0.225000X0.250000X0*%
%ADD39RoundRect,0.225000X0.375000X-0.225000X0.375000X0.225000X-0.375000X0.225000X-0.375000X-0.225000X0*%
%ADD40R,1.200000X1.400000*%
%ADD41C,8.600000*%
%ADD42RoundRect,0.218750X-0.256250X0.218750X-0.256250X-0.218750X0.256250X-0.218750X0.256250X0.218750X0*%
%ADD43RoundRect,0.200000X0.200000X0.275000X-0.200000X0.275000X-0.200000X-0.275000X0.200000X-0.275000X0*%
%ADD44RoundRect,0.250000X0.375000X0.625000X-0.375000X0.625000X-0.375000X-0.625000X0.375000X-0.625000X0*%
%ADD45RoundRect,0.147500X-0.147500X-0.172500X0.147500X-0.172500X0.147500X0.172500X-0.147500X0.172500X0*%
%ADD46RoundRect,0.135000X0.135000X0.185000X-0.135000X0.185000X-0.135000X-0.185000X0.135000X-0.185000X0*%
%ADD47RoundRect,0.140000X-0.140000X-0.170000X0.140000X-0.170000X0.140000X0.170000X-0.140000X0.170000X0*%
%ADD48RoundRect,0.250000X-0.700000X-1.000000X0.700000X-1.000000X0.700000X1.000000X-0.700000X1.000000X0*%
%ADD49RoundRect,0.150000X-0.587500X-0.150000X0.587500X-0.150000X0.587500X0.150000X-0.587500X0.150000X0*%
%ADD50RoundRect,0.250000X0.325000X0.650000X-0.325000X0.650000X-0.325000X-0.650000X0.325000X-0.650000X0*%
%ADD51RoundRect,0.135000X-0.185000X0.135000X-0.185000X-0.135000X0.185000X-0.135000X0.185000X0.135000X0*%
G04 APERTURE END LIST*
D10*
%TO.C,P1*%
X74650000Y-24700000D03*
X74650000Y-20400000D03*
X69850000Y-24700000D03*
X69850000Y-20400000D03*
D11*
X69470000Y-23310000D03*
X70260000Y-23310000D03*
X71050000Y-23310000D03*
X71840000Y-23310000D03*
X72630000Y-23310000D03*
X73420000Y-23310000D03*
X74210000Y-23310000D03*
X75000000Y-23310000D03*
X75000000Y-21790000D03*
X74210000Y-21790000D03*
X73420000Y-21790000D03*
X72630000Y-21790000D03*
X71840000Y-21790000D03*
X71050000Y-21790000D03*
X70260000Y-21790000D03*
X69470000Y-21790000D03*
D12*
X76000000Y-22550000D03*
D13*
X68500000Y-22550000D03*
%TD*%
D14*
%TO.C,J4*%
X98300000Y-34960000D03*
X95300000Y-36230000D03*
X98300000Y-37500000D03*
X95300000Y-38770000D03*
%TD*%
%TO.C,J3*%
X51000000Y-40940000D03*
X54000000Y-39670000D03*
X51000000Y-38400000D03*
X54000000Y-37130000D03*
%TD*%
D15*
%TO.C,J2*%
X51750000Y-26750000D03*
X55650000Y-26750000D03*
X51750000Y-28020000D03*
X55650000Y-28020000D03*
X51750000Y-29290000D03*
X55650000Y-29290000D03*
X51750000Y-30560000D03*
X55650000Y-30560000D03*
X51750000Y-31830000D03*
X55650000Y-31830000D03*
%TD*%
D16*
%TO.C,R3*%
X31925000Y-43500000D03*
X33575000Y-43500000D03*
%TD*%
D17*
%TO.C,R10*%
X58240000Y-40500000D03*
X59260000Y-40500000D03*
%TD*%
D18*
%TO.C,J1*%
X39250000Y-25000000D03*
D19*
X35750000Y-25000000D03*
%TD*%
D20*
%TO.C,U3*%
X70630000Y-46425000D03*
X71130000Y-46425000D03*
X71630000Y-46425000D03*
X72130000Y-46425000D03*
X72630000Y-46425000D03*
X73130000Y-46425000D03*
X73630000Y-46425000D03*
X74130000Y-46425000D03*
X74630000Y-46425000D03*
X75130000Y-46425000D03*
X75630000Y-46425000D03*
X76130000Y-46425000D03*
X76630000Y-46425000D03*
X77130000Y-46425000D03*
X77630000Y-46425000D03*
X78130000Y-46425000D03*
D21*
X80055000Y-44500000D03*
X80055000Y-44000000D03*
X80055000Y-43500000D03*
X80055000Y-43000000D03*
X80055000Y-42500000D03*
X80055000Y-42000000D03*
X80055000Y-41500000D03*
X80055000Y-41000000D03*
X80055000Y-40500000D03*
X80055000Y-40000000D03*
X80055000Y-39500000D03*
X80055000Y-39000000D03*
X80055000Y-38500000D03*
X80055000Y-38000000D03*
X80055000Y-37500000D03*
X80055000Y-37000000D03*
D20*
X78130000Y-35075000D03*
X77630000Y-35075000D03*
X77130000Y-35075000D03*
X76630000Y-35075000D03*
X76130000Y-35075000D03*
X75630000Y-35075000D03*
X75130000Y-35075000D03*
X74630000Y-35075000D03*
X74130000Y-35075000D03*
X73630000Y-35075000D03*
X73130000Y-35075000D03*
X72630000Y-35075000D03*
X72130000Y-35075000D03*
X71630000Y-35075000D03*
X71130000Y-35075000D03*
X70630000Y-35075000D03*
D21*
X68705000Y-37000000D03*
X68705000Y-37500000D03*
X68705000Y-38000000D03*
X68705000Y-38500000D03*
X68705000Y-39000000D03*
X68705000Y-39500000D03*
X68705000Y-40000000D03*
X68705000Y-40500000D03*
X68705000Y-41000000D03*
X68705000Y-41500000D03*
X68705000Y-42000000D03*
X68705000Y-42500000D03*
X68705000Y-43000000D03*
X68705000Y-43500000D03*
X68705000Y-44000000D03*
X68705000Y-44500000D03*
%TD*%
D22*
%TO.C,D3*%
X29150000Y-50250000D03*
X25850000Y-50250000D03*
%TD*%
D23*
%TO.C,R5*%
X43250000Y-47950000D03*
X43250000Y-49600000D03*
%TD*%
D24*
%TO.C,C8*%
X80630000Y-35555000D03*
X80630000Y-34595000D03*
%TD*%
D25*
%TO.C,C16*%
X70275000Y-32500000D03*
X68725000Y-32500000D03*
%TD*%
%TO.C,C1*%
X33550000Y-50250000D03*
X32000000Y-50250000D03*
%TD*%
D26*
%TO.C,C2*%
X40050000Y-53500000D03*
X43000000Y-53500000D03*
%TD*%
D27*
%TO.C,C6*%
X70380000Y-48115000D03*
X70380000Y-49075000D03*
%TD*%
D17*
%TO.C,R9*%
X58250000Y-37500000D03*
X59270000Y-37500000D03*
%TD*%
D16*
%TO.C,R4*%
X36750000Y-45750000D03*
X38400000Y-45750000D03*
%TD*%
D28*
%TO.C,FB1*%
X29250000Y-37750000D03*
X31375000Y-37750000D03*
%TD*%
D29*
%TO.C,SW1*%
X92650000Y-23755000D03*
X92650000Y-21545000D03*
D30*
X90500000Y-22645000D03*
X87500000Y-22645000D03*
D29*
X85350000Y-23755000D03*
X85350000Y-21545000D03*
D31*
X91250000Y-24405000D03*
X88250000Y-24405000D03*
X86750000Y-24405000D03*
%TD*%
D32*
%TO.C,D4*%
X103500000Y-46250000D03*
X101925000Y-46250000D03*
%TD*%
D33*
%TO.C,C12*%
X76880000Y-48325000D03*
X75920000Y-48325000D03*
%TD*%
D24*
%TO.C,C10*%
X66880000Y-45035000D03*
X66880000Y-44075000D03*
%TD*%
D26*
%TO.C,C3*%
X40000000Y-56475000D03*
X42950000Y-56475000D03*
%TD*%
D34*
%TO.C,U1*%
X33912500Y-48150000D03*
X33912500Y-47200000D03*
X33912500Y-46250000D03*
X31637500Y-46250000D03*
X31637500Y-47200000D03*
X31637500Y-48150000D03*
%TD*%
D35*
%TO.C,U2*%
X73250000Y-27025000D03*
X72300000Y-27025000D03*
X71350000Y-27025000D03*
X71350000Y-29300000D03*
X72300000Y-29300000D03*
X73250000Y-29300000D03*
%TD*%
D36*
%TO.C,C5*%
X85250000Y-43200000D03*
X85250000Y-44750000D03*
%TD*%
D37*
%TO.C,R16*%
X63750000Y-42325000D03*
X63750000Y-40675000D03*
%TD*%
D33*
%TO.C,C14*%
X72380000Y-57825000D03*
X71420000Y-57825000D03*
%TD*%
D38*
%TO.C,C15*%
X82355000Y-37075000D03*
X83905000Y-37075000D03*
%TD*%
D39*
%TO.C,D1*%
X42500000Y-35000000D03*
X42500000Y-31700000D03*
%TD*%
D40*
%TO.C,Y1*%
X72630000Y-56025000D03*
X72630000Y-53825000D03*
X70930000Y-53825000D03*
X70930000Y-56025000D03*
%TD*%
D30*
%TO.C,H3*%
X21800000Y-61610913D03*
X22744581Y-59330494D03*
X22744581Y-63891332D03*
X25025000Y-58385913D03*
D41*
X25025000Y-61610913D03*
D30*
X25025000Y-64835913D03*
X27305419Y-59330494D03*
X27305419Y-63891332D03*
X28250000Y-61610913D03*
%TD*%
%TO.C,H2*%
X96994581Y-24750000D03*
X97939162Y-22469581D03*
X97939162Y-27030419D03*
X100219581Y-21525000D03*
D41*
X100219581Y-24750000D03*
D30*
X100219581Y-27975000D03*
X102500000Y-22469581D03*
X102500000Y-27030419D03*
X103444581Y-24750000D03*
%TD*%
%TO.C,H4*%
X96994581Y-61580494D03*
X97939162Y-59300075D03*
X97939162Y-63860913D03*
X100219581Y-58355494D03*
D41*
X100219581Y-61580494D03*
D30*
X100219581Y-64805494D03*
X102500000Y-59300075D03*
X102500000Y-63860913D03*
X103444581Y-61580494D03*
%TD*%
D42*
%TO.C,D2*%
X40750000Y-48000000D03*
X40750000Y-49575000D03*
%TD*%
D43*
%TO.C,R6*%
X38400000Y-43550000D03*
X36750000Y-43550000D03*
%TD*%
D44*
%TO.C,F1*%
X31650000Y-33250000D03*
X28850000Y-33250000D03*
%TD*%
D45*
%TO.C,L2*%
X75880000Y-50825000D03*
X76850000Y-50825000D03*
%TD*%
D46*
%TO.C,R7*%
X66890000Y-42825000D03*
X65870000Y-42825000D03*
%TD*%
D23*
%TO.C,R15*%
X63750000Y-35675000D03*
X63750000Y-37325000D03*
%TD*%
D33*
%TO.C,C11*%
X76880000Y-49575000D03*
X75920000Y-49575000D03*
%TD*%
D43*
%TO.C,R14*%
X103500000Y-44000000D03*
X101850000Y-44000000D03*
%TD*%
D17*
%TO.C,R8*%
X58630000Y-26800000D03*
X59650000Y-26800000D03*
%TD*%
D16*
%TO.C,R1*%
X28425000Y-43500000D03*
X30075000Y-43500000D03*
%TD*%
D43*
%TO.C,R2*%
X38250000Y-48000000D03*
X36600000Y-48000000D03*
%TD*%
D46*
%TO.C,R12*%
X90050000Y-40500000D03*
X89030000Y-40500000D03*
%TD*%
D47*
%TO.C,C13*%
X71380000Y-52075000D03*
X72340000Y-52075000D03*
%TD*%
D46*
%TO.C,R13*%
X90070000Y-37825000D03*
X89050000Y-37825000D03*
%TD*%
D48*
%TO.C,L1*%
X31900000Y-54500000D03*
X36000000Y-54500000D03*
%TD*%
D33*
%TO.C,C9*%
X69340000Y-34575000D03*
X68380000Y-34575000D03*
%TD*%
D49*
%TO.C,Q1*%
X36375000Y-31750000D03*
X36375000Y-33650000D03*
X38250000Y-32700000D03*
%TD*%
D50*
%TO.C,C4*%
X28975000Y-46750000D03*
X26025000Y-46750000D03*
%TD*%
D51*
%TO.C,R11*%
X74380000Y-53315000D03*
X74380000Y-54335000D03*
%TD*%
D27*
%TO.C,C7*%
X82130000Y-43365000D03*
X82130000Y-44325000D03*
%TD*%
D30*
%TO.C,H1*%
X21775000Y-24750000D03*
X22719581Y-22469581D03*
X22719581Y-27030419D03*
X25000000Y-21525000D03*
D41*
X25000000Y-24750000D03*
D30*
X25000000Y-27975000D03*
X27280419Y-22469581D03*
X27280419Y-27030419D03*
X28225000Y-24750000D03*
%TD*%
M02*
